<svg width="64" height="54" fill="none" xmlns="http://www.w3.org/2000/svg"><g clip-path="url(#a)"><path d="M13.961 33.369c-3.336 4.62-5.039 10.258-7.705 15.325-.609 1.178-1.402 2.426-2.681 2.765a2.636 2.636 0 0 1-2.92-1.402 3.563 3.563 0 0 1 0-2.757 10.72 10.72 0 0 1 1.463-2.41 149.426 149.426 0 0 0 8.784-13.57c1.04.678 2.073 1.317 3.06 2.049z" fill="#fff"/><path d="M3.005 51.913A3.03 3.03 0 0 1 .316 50.25a3.887 3.887 0 0 1 0-3.08c.38-.872.872-1.69 1.464-2.434l.039-.07a150.38 150.38 0 0 0 8.76-13.507.386.386 0 0 1 .532-.13c1.025.638 2.08 1.3 3.082 2.04a.368.368 0 0 1 .085.523c-2.103 2.911-3.575 6.292-5.031 9.534a67.056 67.056 0 0 1-2.636 5.745c-.655 1.255-1.54 2.58-2.92 2.957a2.93 2.93 0 0 1-.686.085zm8.037-20.023a150.71 150.71 0 0 1-8.607 13.254l-.054.061c-.547.691-1.003 1.45-1.356 2.257a3.08 3.08 0 0 0 0 2.456 2.257 2.257 0 0 0 2.497 1.171c1.101-.262 1.872-1.463 2.42-2.572.955-1.84 1.81-3.79 2.634-5.676a54.392 54.392 0 0 1 4.855-9.38c-.77-.562-1.588-1.078-2.389-1.578v.007z" fill="#000"/><path d="M16.128 32.344a2.825 2.825 0 0 1-.586 2.15 1.233 1.233 0 0 1-.609.461c-.257.052-.524.03-.77-.061a14.42 14.42 0 0 1-4.261-2.403c-.399-.25-.74-.58-1.002-.97a2.102 2.102 0 0 1 1.541-3.08 2.967 2.967 0 0 1 1.464.53 33.472 33.472 0 0 1 3.506 2.38c.44.323.879.709.717.993z" fill="#fff"/><path d="M14.702 35.333a2.127 2.127 0 0 1-.632-.108 14.557 14.557 0 0 1-4.376-2.457c-.443-.28-.82-.65-1.11-1.086a2.456 2.456 0 0 1-.308-1.232 2.387 2.387 0 0 1 2.142-2.418 3.23 3.23 0 0 1 1.664.578 33.129 33.129 0 0 1 3.59 2.448c.363.278 1.018.77.848 1.317a3.248 3.248 0 0 1-.678 2.31 1.541 1.541 0 0 1-.816.594 1.162 1.162 0 0 1-.324.054zm-4.261-6.539a1.634 1.634 0 0 0-1.387 1.664c-.006.296.066.588.208.847.238.34.542.628.894.847a13.927 13.927 0 0 0 4.145 2.31.994.994 0 0 0 .547.062.832.832 0 0 0 .416-.324 2.486 2.486 0 0 0 .486-1.855.347.347 0 0 1 0-.178 2.456 2.456 0 0 0-.57-.539 33.024 33.024 0 0 0-3.483-2.364 2.667 2.667 0 0 0-1.256-.47z" fill="#000"/><path d="M4.562 21.278a19.184 19.184 0 0 0 6.473 8.902c3.721 2.935 8.599 4.621 13.237 3.705 6.642-1.27 10.695-5.453 12.105-9.319a18.312 18.312 0 0 0-3.12-17.635C29.227 2.133 22.469-.724 16.39.771 1.457 4.543 3.399 17.711 4.562 21.277zm2.474-3.566a12.578 12.578 0 0 1 2.026-8.324c1.626-2.419 5.394-5.8 11.905-5.722 5.393.061 9.207 4.405 10.787 6.653.955 1.363 2.574 5.63 1.98 10.782-.77 6.762-8.476 12.214-16.697 9.457-5.27-1.81-9.331-7.316-10.001-12.846z" fill="#fff"/><path d="M21.728 34.524a17.974 17.974 0 0 1-10.941-4.043 19.346 19.346 0 0 1-6.596-9.087c-.855-2.627-1.61-8.387 1.079-13.285C7.35 4.32 11.064 1.74 16.296.41c5.925-1.487 12.86 1.023 17.252 6.252a18.623 18.623 0 0 1 3.182 18.06c-1.356 3.773-5.324 8.209-12.39 9.564-.861.161-1.735.241-2.612.239zM4.923 21.154a18.868 18.868 0 0 0 6.35 8.726c3.998 3.134 8.714 4.467 12.929 3.658 6.742-1.294 10.525-5.537 11.812-9.08A17.819 17.819 0 0 0 32.932 7.17C28.755 2.156 22.129-.254 16.48 1.163 11.457 2.426 7.913 4.883 5.94 8.47c-2.567 4.675-1.85 10.173-1.018 12.684zM21.42 31.629a14.028 14.028 0 0 1-4.5-.77c-5.286-1.779-9.6-7.3-10.263-13.092a12.986 12.986 0 0 1 2.088-8.579c.932-1.394 4.53-5.899 12.012-5.899h.216c5.733.07 9.67 4.798 11.103 6.823 1.102 1.54 2.628 5.938 2.042 10.998a11.909 11.909 0 0 1-5.57 8.47 13.235 13.235 0 0 1-7.128 2.05zM7.412 17.712c.632 5.545 4.73 10.782 9.755 12.484a12.782 12.782 0 0 0 10.972-1.225 11.14 11.14 0 0 0 5.216-7.916c.594-5.03-1.032-9.242-1.903-10.474-1.364-1.933-5.108-6.438-10.487-6.5h-.208c-7.104 0-10.502 4.244-11.38 5.56a12.24 12.24 0 0 0-1.965 8.071zM11.203 36.234a.123.123 0 0 1-.115-.07l-.917-1.817a.132.132 0 0 1 .001-.164.13.13 0 0 1 .23.056l.917 1.81a.13.13 0 0 1-.062.17.077.077 0 0 1-.054.015zM10.393 38.336a.138.138 0 0 1-.123-.077 59.44 59.44 0 0 0-1.017-2.618.131.131 0 0 1 .062-.17.14.14 0 0 1 .17.07c.361.862.708 1.748 1.024 2.626a.123.123 0 0 1-.077.161l-.039.008zM9.455 40.562a.124.124 0 0 1-.115-.093 19.187 19.187 0 0 0-1.118-3.019.123.123 0 0 1 .062-.17.13.13 0 0 1 .17.063c.463.992.84 2.022 1.125 3.08a.124.124 0 0 1-.085.162l-.039-.023zM8.383 42.58a.13.13 0 0 1-.124-.093 39.834 39.834 0 0 0-1.155-3.258.13.13 0 0 1 .238-.1c.432 1.07.825 2.18 1.164 3.288a.123.123 0 0 1-.085.154l-.038.008zM7.35 45.267a.124.124 0 0 1-.122-.092l-1.272-4.228a.123.123 0 0 1 .085-.154.124.124 0 0 1 .139.039c.01.013.018.029.023.045l1.263 4.228a.115.115 0 0 1-.084.154l-.031.008zM5.933 47.454a.131.131 0 0 1-.123-.092l-1.133-3.974a.13.13 0 0 1 .085-.162.138.138 0 0 1 .162.093l1.132 3.973a.124.124 0 0 1-.084.154l-.039.008zM4.438 49.957a.131.131 0 0 1-.123-.1l-1.102-4.42a.123.123 0 0 1 .247 0l1.101 4.39a.123.123 0 0 1-.092.153l-.03-.023zM2.604 50.003a.123.123 0 0 1-.124-.092l-.624-2.164a.123.123 0 0 1 .093-.154.116.116 0 0 1 .154.084l.624 2.195a.139.139 0 0 1-.093.162l-.03-.03z" fill="#000"/><path d="M21.475 29.796h.038c.146-.447.593-.563 1.033-.578.17 0 .192 0 .377-.062a33.7 33.7 0 0 1 1.541-.708 11.67 11.67 0 0 0 2.505-1.494l.107-.085c.443-.408.858-.845 1.24-1.31a11.373 11.373 0 0 0 1.796-3.187c.318-1.079.512-2.19.578-3.312.16-1.19.179-2.394.054-3.588 0-.077 0-.17-.038-.232-.393-2.171-.517-2.91-.917-4.782-.093-.339-.17-.678-.255-1.009a.685.685 0 0 1 1.287-.393.432.432 0 0 1 .116.2l.277.632a.833.833 0 0 1 .77.508c.255.455.478.932.686 1.41.167.332.249.7.24 1.07a.53.53 0 0 1 0 .154c.113.766.185 1.537.215 2.31.092.37.177.77.239 1.11.22.988.322 1.998.3 3.01-.018 1-.135 1.996-.346 2.973a10.32 10.32 0 0 1-.979 2.31.677.677 0 0 1-.177.393 4.483 4.483 0 0 0-.27.27c-.14.188-.293.368-.454.539 0 .038-.078.077-.116.116-.925 1.155-1.688 2.48-2.951 3.288a13.258 13.258 0 0 1-3.606 1.286c-.147 0-.278.061-.4.092l-.078.039h.077a5.456 5.456 0 0 1-2.019.562 2.777 2.777 0 0 1-.77 0 .77.77 0 0 1-.1-1.532zM10.094 33.06c.408 0 .693.347 1.056.478l.77.37c.231.13.532.2.701.423a.808.808 0 0 1-.994 1.24 11.184 11.184 0 0 1-1.872-1.062.77.77 0 0 1 .339-1.448z" fill="#000" opacity=".13"/><path d="m37.217 12.614-21.09 41.009 27.261-.046 20.234-41.063-26.405.1z" fill="#fff"/><path d="M16.127 54a.378.378 0 0 1-.339-.554l21.097-41.009a.378.378 0 0 1 .332-.208l26.405-.092a.4.4 0 0 1 .332.185.37.37 0 0 1 0 .37L43.727 53.745a.377.377 0 0 1-.339.208L16.128 54zm21.328-41.008L16.751 53.238l26.399-.047L63.006 12.9l-25.55.093z" fill="#000"/><path d="M55.178 19.684H41.001a.378.378 0 0 1-.378-.377.385.385 0 0 1 .378-.385h14.177a.385.385 0 0 1 .378.385.377.377 0 0 1-.378.377zM52.565 25.136H38.387a.385.385 0 0 1-.377-.385.377.377 0 0 1 .377-.377h14.178a.378.378 0 0 1 .268.647.385.385 0 0 1-.268.115zM45.237 40.046H31.059a.385.385 0 1 1 0-.77h14.178a.385.385 0 1 1 0 .77zM42.163 45.375h-14.17a.385.385 0 1 1 0-.77h14.17a.385.385 0 1 1 0 .77z" fill="#000"/></g><defs><clipPath id="a"><path fill="#fff" d="M0 0h64v54H0z"/></clipPath></defs></svg>