<svg width="237" height="289" fill="none" xmlns="http://www.w3.org/2000/svg"><g clip-path="url(#clip0_1_1720)"><path d="M88.656 37.89l-.002-.002a6.982 6.982 0 00-8.819-4.302l.16.474-.163-.473a6.941 6.941 0 108.824 4.304zm-3.3 11.738a9.966 9.966 0 11-6.49-18.847 9.966 9.966 0 016.49 18.847z" fill="#fff" stroke="#252222"/><path d="M157.137 21.046L11.353 71.244a5.121 5.121 0 00-3.175 6.509L78.964 283.33a5.121 5.121 0 006.51 3.175l145.783-50.197a5.121 5.121 0 003.175-6.509L163.646 24.221a5.12 5.12 0 00-6.509-3.175z" fill="#252222"/><path d="M157.137 21.046L11.353 71.244a5.121 5.121 0 00-3.175 6.509L78.964 283.33a5.121 5.121 0 006.51 3.175l145.783-50.197a5.121 5.121 0 003.175-6.509L163.646 24.221a5.12 5.12 0 00-6.509-3.175z" fill="#252222" opacity=".3"/><path d="M155.035 34.654L21.387 80.674l67.561 196.212 133.649-46.019-67.562-196.213z" fill="#F5F6FE"/><path d="M152.651 33.713L19.002 79.732l66.272 192.467 133.648-46.019-66.271-192.467z" fill="#fff"/><path d="M171.516 242.504s29.839-24.905 35.128-50.97a37.738 37.738 0 01-25.48 15.16s-.735 27.393-9.648 35.81z" fill="#F5F6FE"/><path d="M171.516 242.504l.461-.517a14.7 14.7 0 001.275-1.614 28.28 28.28 0 003.369-6.908c2.187-6.263 3.882-15.635 4.355-26.774l.004-.163.152-.053a36.91 36.91 0 0012.509-4.034c1.044-.505 2.018-1.164 3.028-1.767 1.01-.603 1.965-1.341 2.894-2.104a38.621 38.621 0 005.277-5.078 26.377 26.377 0 001.617-2.107l.633-.907-.222 1.064a56.847 56.847 0 01-4.095 12.097 84.37 84.37 0 01-5.805 10.344 125.106 125.106 0 01-12.281 15.751 153.075 153.075 0 01-9.45 9.53 91.598 91.598 0 01-2.721 2.41l-.727.608c-.159.132-.273.196-.258.191.015-.005.065-.082.23-.224l.701-.633a87.259 87.259 0 002.667-2.468 167.647 167.647 0 009.34-9.603 128.204 128.204 0 0012.181-15.767 86.404 86.404 0 005.75-10.308 56.89 56.89 0 004.05-12.006l.383.149a24.953 24.953 0 01-1.651 2.153 38.609 38.609 0 01-5.338 5.125c-.934.773-1.939 1.443-2.92 2.13a22.738 22.738 0 01-3.063 1.787 37.48 37.48 0 01-12.659 4.043l.166-.185c-.508 11.186-2.282 20.577-4.52 26.84a27.7 27.7 0 01-3.478 6.912 13.765 13.765 0 01-1.854 2.086z" fill="#263238"/><path d="M70.475 132.478l-11.13 3.832a2.753 2.753 0 00-1.707 3.5l3.832 11.131a2.754 2.754 0 003.5 1.707l11.131-3.832a2.755 2.755 0 001.707-3.501l-3.832-11.13a2.754 2.754 0 00-3.5-1.707z" fill="#252222"/><path d="M67.976 145.871a.377.377 0 01-.319-.035l-3.204-1.886a.403.403 0 01.409-.694l2.827 1.658 3.463-7.256a.4.4 0 01.228-.203.37.37 0 01.154-.021.378.378 0 01.15.041.396.396 0 01.207.231.408.408 0 01-.02.309l-3.627 7.644a.38.38 0 01-.268.212z" fill="#fff"/><path d="M159.868 103.92c.039.114-17.321 6.185-38.759 13.567-21.439 7.382-38.856 13.286-38.895 13.172-.04-.115 17.32-6.186 38.758-13.568 21.439-7.381 38.859-13.277 38.896-13.171zm-40.803 27.419a9.272 9.272 0 01-1.26.519l-3.489 1.27c-2.961 1.019-7.028 2.488-11.543 4.042-4.515 1.555-8.61 2.965-11.593 3.924l-3.53 1.148a9.19 9.19 0 01-1.314.366 8.066 8.066 0 011.26-.519l3.487-1.277c2.962-1.019 7.031-2.48 11.554-4.038 4.522-1.557 8.602-2.962 11.582-3.928l3.534-1.14a8.057 8.057 0 011.312-.367zm42.627-22.12c.037.106-17.32 6.185-38.759 13.567-21.438 7.382-38.858 13.278-38.895 13.171-.037-.106 17.32-6.185 38.759-13.567 21.438-7.382 38.856-13.285 38.895-13.171z" fill="#263238"/><path d="M80.35 161.156l-11.131 3.833a2.753 2.753 0 00-1.707 3.5l3.832 11.131a2.754 2.754 0 003.5 1.707l11.13-3.833a2.753 2.753 0 001.708-3.5l-3.832-11.13a2.754 2.754 0 00-3.5-1.708z" fill="#252222"/><path d="M77.39 173.945a.391.391 0 01-.32-.035l-3.203-1.886a.4.4 0 01-.143-.551.402.402 0 01.551-.143l2.827 1.658 3.463-7.256a.396.396 0 01.533-.183.397.397 0 01.206.231.408.408 0 01-.02.31l-3.627 7.644a.376.376 0 01-.268.211z" fill="#fff"/><path d="M169.744 132.599c.036.106-17.321 6.185-38.759 13.567-21.439 7.382-38.859 13.278-38.895 13.171-.037-.106 17.32-6.185 38.758-13.567 21.439-7.382 38.859-13.278 38.896-13.171zm-40.806 27.411a8.553 8.553 0 01-1.258.527l-3.489 1.269c-2.961 1.02-7.031 2.481-11.546 4.036-4.514 1.554-8.61 2.964-11.59 3.931l-3.53 1.147a8.322 8.322 0 01-1.316.36 9.115 9.115 0 011.26-.519l3.489-1.27c2.948-1.058 7.029-2.488 11.551-4.045s8.603-2.962 11.585-3.921l3.531-1.148a9.331 9.331 0 011.313-.367zm42.618-22.143c.039.114-17.318 6.193-38.756 13.575-21.439 7.382-38.859 13.278-38.898 13.164-.04-.115 17.32-6.186 38.759-13.568 21.438-7.381 38.866-13.255 38.895-13.171z" fill="#263238"/><path d="M90.222 189.828l-11.13 3.832a2.753 2.753 0 00-1.707 3.5l3.832 11.131a2.754 2.754 0 003.5 1.707l11.13-3.833a2.753 2.753 0 001.708-3.5l-3.832-11.13a2.753 2.753 0 00-3.5-1.707z" fill="#252222"/><path d="M87.273 202.654a.4.4 0 01-.321-.042l-3.201-1.878a.411.411 0 01-.037-.674.393.393 0 01.445-.021l2.827 1.658 3.463-7.255a.383.383 0 01.382-.227.396.396 0 01.15.043.39.39 0 01.205.228.395.395 0 01-.02.305l-3.625 7.652a.38.38 0 01-.268.211z" fill="#fff"/><path d="M179.619 161.277c.036.107-17.321 6.186-38.759 13.568-21.439 7.381-38.859 13.277-38.895 13.171-.037-.107 17.32-6.185 38.758-13.567 21.439-7.382 38.856-13.286 38.896-13.172zm-40.805 27.412a8.096 8.096 0 01-1.261.519l-3.486 1.277c-2.961 1.019-7.031 2.48-11.546 4.035-4.514 1.554-8.61 2.965-11.59 3.931l-3.533 1.14c-.427.16-.866.282-1.313.367a9.095 9.095 0 011.26-.519l3.489-1.27c2.961-1.019 7.029-2.488 11.551-4.045s8.603-2.962 11.585-3.921l3.531-1.148a9.328 9.328 0 011.313-.366zm42.626-22.12c.039.114-17.32 6.185-38.759 13.567-21.439 7.382-38.856 13.285-38.895 13.171-.039-.114 17.32-6.185 38.759-13.567 21.438-7.382 38.858-13.278 38.895-13.171z" fill="#263238"/><path d="M100.098 218.506l-11.13 3.833a2.753 2.753 0 00-1.707 3.5l3.832 11.13a2.754 2.754 0 003.5 1.707l11.131-3.832a2.753 2.753 0 001.707-3.5l-3.832-11.131a2.755 2.755 0 00-3.501-1.707z" fill="#252222"/><path d="M97.137 231.303a.397.397 0 01-.321-.043l-3.204-1.886a.391.391 0 01-.192-.401.385.385 0 01.054-.147.4.4 0 01.533-.184l2.83 1.665 3.46-7.263a.392.392 0 01.228-.203.407.407 0 01.155-.021.378.378 0 01.15.041.392.392 0 01.206.231.4.4 0 01-.02.309l-3.624 7.652a.41.41 0 01-.255.25z" fill="#fff"/><path d="M189.489 189.948c.039.115-17.321 6.186-38.759 13.567-21.439 7.382-38.856 13.286-38.895 13.172-.04-.114 17.32-6.186 38.759-13.567 21.438-7.382 38.858-13.278 38.895-13.172zm-40.8 27.419a9.285 9.285 0 01-1.261.519l-3.488 1.27a1016.557 1016.557 0 01-11.544 4.043c-4.514 1.554-8.61 2.964-11.593 3.923l-3.53 1.148a9.331 9.331 0 01-1.313.367 7.858 7.858 0 011.26-.519l3.486-1.277c2.962-1.02 7.032-2.481 11.554-4.038 4.522-1.557 8.603-2.963 11.583-3.929l3.533-1.14a8.04 8.04 0 011.313-.367zm42.626-22.12c.037.107-17.32 6.185-38.759 13.567-21.439 7.382-38.858 13.278-38.895 13.172-.037-.107 17.32-6.186 38.759-13.568 21.438-7.381 38.858-13.277 38.895-13.171z" fill="#263238"/><path d="M132.3 38.591h0a10.698 10.698 0 01-.495 8.172 10.703 10.703 0 01-6.131 5.426L51.751 77.643A10.7 10.7 0 0138.15 71.01l-3.305-9.6L129 29.007l3.3 9.584z" fill="#fff" stroke="#252222"/><g clip-path="url(#clip1_1_1720)"><rect x="74.827" y="79.156" width="40" height="40" rx="20" transform="rotate(-19 74.827 79.156)" fill="#D9DBE9"/><path d="M98.03 109.498l-.097.032-7.527-21.86 7.427-6.521h0l.003-.003.016-.012.06-.047a6.572 6.572 0 011.114-.648c.74-.336 1.754-.63 2.865-.472.603.086 1.133.192 1.646.435.513.242 1.015.623 1.555 1.265 1.083 1.289 2.31 3.62 4.068 7.964a352.825 352.825 0 013.85 9.902c.402 1.086.713 1.946.944 2.586.242.669.397 1.096.476 1.286a.479.479 0 01-.096.083 3.586 3.586 0 01-.48.272c-.432.216-1.067.488-1.841.797-1.546.618-3.636 1.38-5.737 2.121a470.16 470.16 0 01-7.709 2.641l-.537.179zm16.408-6.105v0z" fill="#fff" stroke="#000" stroke-width=".2"/><path d="M97.632 109.484c.098-.062.178-.108.235-.139l3.319 9.639v.001l10.368 29.009c-1.247 1.722-3.394 2.795-5.25 3.437a20.28 20.28 0 01-3.148.81 5.893 5.893 0 01-.201.032l-.007.001c-3.072-4.791-3.741-7.204-4.295-10.249-.071-.392-.14-.795-.213-1.214-.493-2.864-1.122-6.515-3.423-12.968-2.627-7.37-1.873-12.009-.48-14.8.698-1.397 1.558-2.336 2.242-2.925.343-.294.64-.501.853-.634z" fill="#FCFCFC" stroke="#000" stroke-width=".2"/><path d="M98.46 109.52a.47.47 0 01.024-.02l15.633-6.309 3.802-.611 8.872 25.766a3.107 3.107 0 01-.135 2.351 3.09 3.09 0 01-1.746 1.575h0l-17.449 6.252c-.828.122-1.534.05-2.142-.181-.612-.232-1.131-.627-1.582-1.157-.903-1.063-1.524-2.663-2.042-4.562-.358-1.312-.664-2.758-.982-4.257-.142-.669-.286-1.348-.437-2.031-.492-2.21-1.064-4.453-1.905-6.466-1.668-3.995-1.624-6.596-1.174-8.19.225-.798.553-1.346.822-1.694.134-.175.255-.299.34-.379.043-.04.077-.069.1-.087z" fill="#FCFCFC" stroke="#000" stroke-width=".2"/><path d="M105.957 97.728l2.054 4.975-6.081 2.302-1.604-5.339 5.631-1.938z" fill="#fff" stroke="#000" stroke-width=".2"/><path d="M110.385 102.153l1.209 2.086-10.771 4.183-.503-2.75h0v-.003a1.087 1.087 0 01.685-1.246l8.096-2.788a1.086 1.086 0 011.283.516h0l.001.002z" fill="#FCFCFC" stroke="#000" stroke-width=".2"/><path d="M105.367 101.754h0c-.74.352-1.646.233-2.52-.076-.872-.308-1.693-.797-2.25-1.159a2.929 2.929 0 01-.156-.111c.151.021.303.033.455.036.715.021 1.764-.067 3.046-.51a5.049 5.049 0 001.986-1.216l.378-.137.402.97c-.101.869-.49 1.8-1.341 2.203z" fill="#fff" stroke="#000" stroke-width=".2"/><path d="M106.554 90.248c.817 2.151.889 4.35.347 6.162-.541 1.813-1.691 3.235-3.316 3.852-1.625.617-3.429.318-5.037-.678-1.608-.997-3.014-2.688-3.83-4.839-.817-2.151-.889-4.35-.348-6.162.541-1.813 1.692-3.235 3.317-3.853 1.625-.617 3.429-.318 5.037.679 1.608.996 3.013 2.687 3.83 4.839z" fill="#fff" stroke="#000" stroke-width=".2"/><path d="M108.104 90.251c.147.428.108.917-.049 1.328-.158.415-.425.726-.71.824-.286.099-.609.029-.906-.182-.296-.21-.557-.558-.707-.994-.145-.423-.077-.88.108-1.261.187-.383.484-.674.776-.774a.919.919 0 01.844.123c.261.18.492.495.644.936z" fill="#fff" stroke="#000" stroke-width=".2"/><path d="M103.441 88.55h0c-1.486.018-2.232.723-2.274.763h0l-.002.002a.398.398 0 01-.566-.003.4.4 0 01.002-.567h0l.001-.002c.03-.03.984-.967 2.826-.994h0a.398.398 0 01.401.332.406.406 0 01-.049.273.404.404 0 01-.215.175l.033.095-.033-.095a.39.39 0 01-.124.022zm-8.685 3.853h0a.4.4 0 01-.534-.379.4.4 0 01.078-.238h0c.026-.035.826-1.109 2.643-1.414h.002a.398.398 0 01.414.178.402.402 0 01-.28.612h-.002c-1.462.248-2.097 1.055-2.132 1.1h0v.002a.398.398 0 01-.189.139z" fill="#000" stroke="#000" stroke-width=".2"/><mask id="path-40-inside-1_1_1720" fill="#fff"><path d="M101.279 94.445l-.474.163a.081.081 0 01-.063-.004.087.087 0 01-.043-.047l-.612-1.779a.083.083 0 01.009-.06.083.083 0 01.149.005l.585 1.7.394-.136a.086.086 0 01.06.008c.018.01.032.027.039.046a.09.09 0 01-.002.06.087.087 0 01-.042.044z"/></mask><path d="M101.279 94.445l-.474.163a.081.081 0 01-.063-.004.087.087 0 01-.043-.047l-.612-1.779a.083.083 0 01.009-.06.083.083 0 01.149.005l.585 1.7.394-.136a.086.086 0 01.06.008c.018.01.032.027.039.046a.09.09 0 01-.002.06.087.087 0 01-.042.044z" fill="#000"/><path d="M100.805 94.608l.065.19-.065-.19zm-.718-1.83l-.195.045.003.01.003.01.189-.065zm.055-.098l-.065-.19.065.19zm.103.044l.189-.065-.003-.01-.005-.01-.181.085zm.585 1.699l-.189.065.065.189.189-.065-.065-.19zm.394-.136l-.045-.195-.01.002-.01.004.065.189zm.099.054l.189-.065-.189.065zm-.109-.085l-.474.163.13.378.474-.163-.13-.378zm-.474.163a.116.116 0 01.089.005l-.175.36a.282.282 0 00.216.013l-.13-.378zm.089.005a.12.12 0 01.06.067l-.379.13c.025.072.076.13.144.163l.175-.36zm.06.067l-.613-1.778-.378.13.612 1.779.379-.13zm-.607-1.758a.117.117 0 01-.011.082l-.35-.193a.284.284 0 00-.029.201l.39-.09zm-.011.082a.118.118 0 01-.064.054l-.13-.378a.283.283 0 00-.156.13l.35.195zm-.064.054a.118.118 0 01-.084-.003l.157-.368a.282.282 0 00-.203-.007l.13.378zm-.084-.003a.116.116 0 01-.059-.058l.362-.168a.28.28 0 00-.146-.142l-.157.368zm-.067-.077l.585 1.699.378-.13-.585-1.7-.378.131zm.839 1.823l.394-.136-.13-.378-.394.136.13.378zm.374-.13a.115.115 0 01-.082-.012l.194-.35a.283.283 0 00-.202-.028l.09.39zm-.082-.012a.12.12 0 01-.054-.063l.379-.13a.287.287 0 00-.131-.157l-.194.35zm-.054-.063a.118.118 0 01.003-.083l.369.156a.285.285 0 00.007-.204l-.379.13zm.003-.083a.12.12 0 01.058-.06l.169.362a.286.286 0 00.142-.146l-.369-.156z" fill="#000" mask="url(#path-40-inside-1_1_1720)"/><path d="M97.416 93.268c.115.334-.017.64-.236.715-.22.075-.511-.084-.626-.418-.115-.335.016-.64.235-.716.22-.076.511.084.627.419zm5.886-2.768c.115.336-.017.641-.235.717-.219.075-.512-.085-.628-.42-.115-.334.017-.64.237-.715.219-.075.511.084.626.419z" fill="#000" stroke="#000" stroke-width=".2"/><path d="M102.703 97.64c-.929.477-1.943.311-2.402-.301l3.616-1.503c.032.661-.421 1.398-1.214 1.804z" fill="#FCFCFC" stroke="#000" stroke-width=".2"/><path d="M97.477 81.026h0c.683.673.97 1.326 1.012 1.96.042.637-.161 1.268-.485 1.897-.287.557-.664 1.105-1.037 1.648l-.144.209c-.416.607-.813 1.21-1.041 1.801h0c-.493 1.282-.688 2.995-.639 4.702.05 1.709.343 3.423.837 4.71.651 1.7 1.401 3.274 2.126 4.794l.053.11c.742 1.556 1.453 3.057 2.007 4.59 1.059 2.938 1.537 5.993.516 9.759-.457-3.399-2.287-5.672-4.265-8.131a97.34 97.34 0 01-1.011-1.27c-2.67-3.425-4.02-7.416-4.952-11.622h0c-.102-.46-.222-.954-.348-1.475-.313-1.287-.663-2.73-.874-4.172-.297-2.024-.314-4.018.422-5.537h0c.206-.427.69-.998 1.337-1.591a14.419 14.419 0 012.271-1.69c.828-.496 1.679-.877 2.428-1.028.751-.152 1.377-.067 1.787.336z" fill="#fff" stroke="#000" stroke-width=".2"/><path d="M106.59 88.734l-.622.683-.016-.03a10.778 10.778 0 00-1.163-1.68c-.792-.934-1.941-1.928-3.345-2.096a6.357 6.357 0 01-2.244-.714 5.639 5.639 0 01-.694-.44l3.951-1.884 4.133 6.162z" fill="#fff" stroke="#000" stroke-width=".2"/><path d="M116.067 102.992l-.059-.148.117-.039c.139-.043.343-.099.602-.146a6.266 6.266 0 012.115-.013c1.724.28 3.981 1.354 6.072 4.566 3.945 6.058 4.826 8.816 6.123 12.883l.261.815c.37 1.15 1.17 2.455 2.11 3.873.236.356.481.719.731 1.089.747 1.108 1.536 2.278 2.251 3.498 1.896 3.235 3.251 6.79 1.92 10.407l-.133-.016a46.014 46.014 0 00-2.657-.221c-1.672-.09-3.84-.116-5.835.14l-.003-.003a1.108 1.108 0 01-.12-.146c-.114-.157-.291-.448-.539-.979-.495-1.061-1.265-3.069-2.358-6.851-1.095-3.788-3.77-11.028-6.169-17.316a987.084 987.084 0 00-4.156-10.702l-.273-.691z" fill="#FCFCFC" stroke="#000" stroke-width=".2"/></g></g><defs><clipPath id="clip0_1_1720"><path fill="#fff" transform="rotate(-19 161.346 27)" d="M0 0h164.426v247.674H0z"/></clipPath><clipPath id="clip1_1_1720"><rect x="74.827" y="79.156" width="40" height="40" rx="20" transform="rotate(-19 74.827 79.156)" fill="#fff"/></clipPath></defs></svg>