<svg width="448" height="408" fill="none" xmlns="http://www.w3.org/2000/svg"><path d="M231.138 123.455l-7.45.003L228 380.263v.001a18.491 18.491 0 01-1.495 7.523 19.285 19.285 0 01-4.453 6.374 20.708 20.708 0 01-6.721 4.253 21.936 21.936 0 01-7.964 1.494 22.216 22.216 0 01-8.001-1.485 21.383 21.383 0 01-6.828-4.241 19.942 19.942 0 01-4.616-6.363 18.735 18.735 0 01-1.692-7.52l-.22-16.531v-.001a3.29 3.29 0 00-.296-1.316 3.554 3.554 0 00-.817-1.125 3.838 3.838 0 00-1.222-.759 3.988 3.988 0 00-1.44-.266 3.816 3.816 0 00-2.627 1.025 3.296 3.296 0 00-1.045 2.436l-.498.006.498-.006.216 16.402c.093 7.067 3.174 13.85 8.578 18.856 5.405 5.006 12.689 7.821 20.251 7.817 7.487-.005 14.625-2.801 19.843-7.762 5.217-4.959 8.092-11.677 8-18.674v-.001l-4.313-256.945z" fill="#fff" stroke="#000"/><path d="M446.367 201.574l.001.263c-15.56-21.364-39.502-34.991-66.276-34.791-35.465.262-65.581 24.704-77.698 58.991-12.628-34.105-43.104-58.074-78.568-57.806h-.001c-35.031.278-64.84 24.116-77.252 57.749-12.895-33.44-43.068-56.837-78.101-56.575-27.329.205-51.487 14.767-66.674 37.124-.01-.53-.016-1.061-.02-1.591C.955 93.876 99.76 3.001 222.583 2.069c122.823-.931 222.96 88.437 223.785 199.505z" fill="#fff" stroke="#000"/><path d="M.346 211.622l1.89-2.888c7.753-11.837 18.079-21.556 29.863-28.096l-1.044-1.878c-11.14 6.183-21.005 15.124-28.7 25.983a183.14 183.14 0 0116.64-77.571l-1.959-.888A185.237 185.237 0 00.261 208.159l.085 3.463zm447.315-4.703c.003-.55.278-4.808.275-5.355a185.245 185.245 0 00-18.194-78.825c-11.46-24.064-27.772-45.622-48.478-64.088-20.705-18.466-44.745-32.885-71.475-42.897C282.12 5.417 252.772.258 222.565.497a247.842 247.842 0 00-48.071 5.053l.434 2.104a245.773 245.773 0 0147.653-5.009c121.695-.92 221.463 87.508 223.18 197.425-7.521-9.912-16.935-18.12-27.393-23.859a77.5 77.5 0 00-38.288-9.739l.016 2.148c24.941-.189 48.099 11.728 64.016 32.819a47.692 47.692 0 013.192 4.857l.357.623z" fill="#49263E"/><path d="M303.474 227.662c8.432-69.264-6.902-121.184-21.25-152.54-18.118-39.596-42.407-63.512-59.089-73.556l-1.116.926c16.414 9.875 40.337 34.375 58.25 73.523 14.235 31.105 29.444 82.62 21.07 151.387l2.135.26z" fill="#49263E"/><path d="M145.522 227.566l2.129-.294C131.314 107.91 185.286 26.057 223.142 2.482l-.007-.916-1.121.023c-16.55 10.3-40.416 34.417-57.752 73.792-13.767 31.264-28.202 83.06-18.74 152.185z" fill="#49263E"/><path fill-rule="evenodd" clip-rule="evenodd" d="M216.098 119.635c0 12.302.102 12.967 1.995 12.967 1.879 0 1.994-.665 1.994-11.471v-11.47h12.967v11.47c0 10.806.116 11.471 1.995 11.471 1.892 0 1.995-.665 1.995-12.967v-12.966h-20.946v12.966zm127.217-10.894c.149 1.099 1.355 1.326 4.65.876l4.446-.606 1.551 11.365c1.462 10.705 1.667 11.349 3.528 11.095 1.862-.254 1.887-.929.433-11.578l-1.543-11.308 4.082-.868c2.245-.477 4.19-1.446 4.321-2.156.179-.982-2.396-.932-10.717.203-9.077 1.24-10.919 1.75-10.751 2.977zM75.734 110.1c-.28.652-1.112 4.243-1.845 7.98-.735 3.739-1.828 8.864-2.429 11.389-.993 4.177-.91 4.611.929 4.809 1.713.183 2.213-.595 3.277-5.101 1.021-4.33 1.599-5.281 3.106-5.119 2.639.284 4.93 3.511 6.377 8.98.87 3.287 1.81 4.789 3.083 4.925 1.008.109 1.855-.011 1.881-.264.16-1.488-3.664-11.539-4.852-12.753-1.255-1.282-.732-2.026 4.526-6.453 4.939-4.156 5.63-5.09 4.088-5.507-1.214-.331-3.654 1.039-7.04 3.951-2.85 2.451-6.046 4.364-7.103 4.25-1.714-.184-1.823-.782-1.007-5.551.651-3.8.552-5.53-.34-5.985-1.803-.919-2.079-.873-2.65.449z" fill="#000"/></svg>