<svg width="306" height="330" fill="none" xmlns="http://www.w3.org/2000/svg"><g clip-path="url(#clip0_1_2095)"><path d="M80.745 9.846S25.79 31.184 8.77 88.566c-17.02 57.384 8.223 119.726 27.277 170.646 19.054 50.921 65.95 78.721 113.228 68.718 47.278-10.004 43.132-52.565 84.612-91.073 41.48-38.508 59.022-42.552 70.478-97.161 11.458-54.608-38.732-116.002-108.55-132.903-69.818-16.9-115.07 3.053-115.07 3.053z" fill="#fff"/><path opacity=".75" d="M80.936 10.308l.01-.004-.055-.125.055.125h.002l.005-.003.023-.01.03-.013a27.92 27.92 0 01.453-.189c.343-.14.86-.344 1.541-.599a99.643 99.643 0 016.05-2.019c5.312-1.6 13.126-3.56 23.119-4.994 19.986-2.868 48.689-3.632 83.528 4.802 34.805 8.425 64.712 27.94 84.484 52.142 19.776 24.205 29.385 53.055 23.696 80.172-5.717 27.249-12.938 41.825-23.868 54.393-5.476 6.297-11.892 12.099-19.548 18.746-1.575 1.367-3.202 2.77-4.884 4.22-6.488 5.594-13.787 11.888-22.029 19.539-16.92 15.707-26.285 32.104-34.587 46.639-1.907 3.34-3.759 6.582-5.633 9.695-5.021 8.338-10.199 15.745-17.047 21.692-6.84 5.94-15.367 10.439-27.109 12.923-47.002 9.945-93.676-17.68-112.656-68.403-.854-2.283-1.72-4.588-2.595-6.915-8.882-23.633-18.583-49.443-24.551-75.919-6.555-29.078-8.596-58.915-.12-87.494 8.472-28.563 26.387-48.163 42.2-60.628 7.905-6.232 15.28-10.677 20.678-13.563a109.868 109.868 0 016.428-3.187 67.864 67.864 0 012.217-.958l.116-.046.028-.011.007-.003h.001l-.18-.467.18.466.011-.004z" fill="#fff" stroke="#000"/><path d="M36.344 282.533a53.422 53.422 0 01-9.736-.87c-10.222-1.896-18.602-7.315-23-14.848-7.206-12.369-2.608-28.087 5.076-38.186 9.788-12.795 24.54-20.233 37.682-25.817 25.208-10.699 51.911-17.571 77.763-24.216 7.388-1.897 15.029-3.862 22.522-5.889 3.737-1.009 7.553-2.001 11.413-3.001 27.355-7.107 58.361-15.161 78.866-35.385 14.847-14.64 25.86-31.654 31.823-49.207a75.226 75.226 0 004.295-22.746 117.383 117.383 0 00-1.791-24.878l-.565-.426c-12.526-9.464-26.538-15.257-38.369-15.857-18.845-.957-56.266 5.732-76.371 27.782l-.87.966a210.276 210.276 0 00-22.417 34.29 1.76 1.76 0 01-1.002.888 1.747 1.747 0 01-2.225-1.082 1.748 1.748 0 01.08-1.338 192.21 192.21 0 0111.378-19.31 1.742 1.742 0 01.183-1.74 165.358 165.358 0 0110.526-13.048 92.2 92.2 0 002.712-3.383c14.508-17.545 37.83-39.143 66.524-42.622 18.402-2.201 31.831.774 41.045 9.116 6.085 5.514 10.223 13.29 12.509 23.798 13.908 11.221 19.349 25.417 16.142 42.214-4.825 25.225-18.072 44.014-33.614 64.203-41.35 53.773-86.333 92.838-133.724 116.167a257.084 257.084 0 01-69.392 22.616 101.779 101.779 0 01-17.463 1.809zM275.386 41.031a131.845 131.845 0 011.138 21.424 78.828 78.828 0 01-4.45 23.799c-6.146 18.057-17.446 35.55-32.675 50.563-21.175 20.876-52.659 29.062-80.431 36.273-3.851 1-7.658 1.992-11.378 2.992-7.519 2.035-15.169 4.001-22.601 5.906-25.72 6.611-52.32 13.448-77.267 24.051-12.717 5.402-26.947 12.569-36.274 24.721-7.014 9.177-11.23 23.347-4.833 34.315 3.886 6.663 11.405 11.473 20.628 13.187 8.692 1.609 17.602.487 25.964-.974a253.33 253.33 0 0068.488-22.303c46.217-22.738 92.044-62.576 132.473-115.132 15.263-19.832 28.276-38.273 32.953-62.733 2.694-14.083-1.252-26.2-11.735-36.09zM231.88 5.428c-3.551.009-7.098.23-10.622.661-19.706 2.375-36.978 13.726-50.886 27.078 20.862-12.256 47.174-16.196 62.151-15.43 15.256.773 29.19 8.698 37.491 14.526-2.225-7.733-5.676-13.622-10.431-17.92-6.632-5.966-15.733-8.915-27.703-8.915z" fill="#000"/><path d="M79.97 123.352l23.861 167.993a4.48 4.48 0 005.059 3.801l101.597-14.457a4.47 4.47 0 003.799-5.054l-23.922-168.001a4.463 4.463 0 00-5.05-3.801L83.743 118.299a4.466 4.466 0 00-3.773 5.053zm66.454-2.914l-20.644 2.941a3.39 3.39 0 01-3.113-5.372 3.393 3.393 0 012.165-1.344l20.636-2.94a3.388 3.388 0 013.758 2.89 3.39 3.39 0 01-2.802 3.825z" fill="#fff"/><path d="M108.24 295.624a4.911 4.911 0 01-4.851-4.219l-23.87-167.992a4.91 4.91 0 012.359-4.915 4.889 4.889 0 011.805-.634l101.606-14.457a4.911 4.911 0 015.546 4.166l23.87 167.993a4.92 4.92 0 01-.93 3.643 4.902 4.902 0 01-3.234 1.915l-101.606 14.448a4.76 4.76 0 01-.695.052zm77.736-191.365a4.273 4.273 0 00-.565.044L83.805 118.725a4.031 4.031 0 00-3.425 4.558l23.87 168.001a4.04 4.04 0 004.563 3.427l101.598-14.448a4.033 4.033 0 003.424-4.523l-23.86-168.045a4.055 4.055 0 00-3.955-3.47l-.044.034zm-60.691 19.624a3.822 3.822 0 01-3.831-3.561 3.83 3.83 0 013.301-4.059l20.636-2.931a3.748 3.748 0 012.834.73 3.807 3.807 0 011.494 2.516 3.819 3.819 0 01-.729 2.834 3.845 3.845 0 01-2.521 1.496l-20.645 2.931a3.729 3.729 0 01-.539.009v.035zm20.654-9.725a3.784 3.784 0 00-.426 0l-20.636 2.931a2.96 2.96 0 00.869 5.855l20.601-2.906a2.938 2.938 0 001.947-1.157 2.982 2.982 0 00.565-2.192 2.982 2.982 0 00-2.92-2.54v.009z" fill="#000"/><path d="M187.016 123.098l-99.528 14.157 21.527 151.551 99.528-14.157-21.527-151.551z" fill="#fff"/><path d="M109.022 289.231a.433.433 0 01-.426-.374L87.065 137.313a.428.428 0 01.087-.322.421.421 0 01.286-.174l99.529-14.169a.472.472 0 01.321.087.383.383 0 01.166.287l21.531 151.552a.435.435 0 01-.365.487l-99.537 14.17h-.061zM87.986 137.617l21.409 150.692 98.668-14.04-21.409-150.691-98.668 14.039z" fill="#000"/><path d="M120.426 78.373l5.615 39.717a1.546 1.546 0 00.597 1.015 1.543 1.543 0 001.141.289l15.534-2.209a1.53 1.53 0 001.304-1.74l-5.642-39.717-18.549 2.645zm10.744 8.924a3.304 3.304 0 112.807-3.74 3.31 3.31 0 01-2.807 3.74z" fill="#fff"/><path d="M127.589 119.847a1.976 1.976 0 01-1.947-1.696l-5.685-39.717a.434.434 0 01.374-.487l18.575-2.61a.417.417 0 01.322.078.445.445 0 01.174.287l5.641 39.717a1.965 1.965 0 01-.375 1.466 1.967 1.967 0 01-1.303.77l-15.533 2.209-.243-.017zm-6.676-41.1l5.589 39.282a1.104 1.104 0 001.243.939l15.534-2.209c.291-.044.553-.2.73-.435a1.105 1.105 0 00.208-.818l-5.58-39.282-17.724 2.523zm9.788 9.02a3.782 3.782 0 01-2.883-6.282 3.78 3.78 0 016.595 2.057 3.782 3.782 0 01-3.182 4.182 3.631 3.631 0 01-.53.043zm.008-6.61h-.408a2.875 2.875 0 00-2.434 3.244 2.82 2.82 0 001.112 1.887c.61.458 1.376.655 2.13.548a2.868 2.868 0 002.418-3.037 2.869 2.869 0 00-2.818-2.669v.026z" fill="#000"/><path d="M122.846 95.39l18.58-2.642 3.212 22.614c.063.439-.052.884-.318 1.238a1.662 1.662 0 01-1.099.651l-15.276 2.173a1.67 1.67 0 01-1.887-1.419l-3.212-22.614z" fill="#fff"/><path d="M127.702 119.829a2.126 2.126 0 01-2.087-1.809l-3.207-22.616a.434.434 0 01.204-.438.434.434 0 01.161-.058l18.584-2.61a.434.434 0 01.487.366l3.216 22.616a2.095 2.095 0 01-1.79 2.383l-15.273 2.175-.295-.009zm-4.347-24.12l3.147 22.189a1.243 1.243 0 001.399 1.053l15.273-2.175a1.228 1.228 0 001.026-.917c.04-.158.049-.322.026-.483l-3.156-22.181-17.715 2.514z" fill="#000"/><path d="M136.471 100.51a3.394 3.394 0 00-2.513-2.808 3.389 3.389 0 00-4.228 3.1 3.399 3.399 0 001.918 3.245 3.39 3.39 0 001.946.299 3.397 3.397 0 002.877-3.836z" fill="#fff"/><path d="M133.107 104.816a3.773 3.773 0 01-2.286-.765 3.821 3.821 0 011.739-6.846 3.824 3.824 0 014.241 3.261 3.829 3.829 0 01-3.163 4.315 3.769 3.769 0 01-.531.035zm0-6.785a3.386 3.386 0 00-.425 0 2.947 2.947 0 00-2.377 3.906 2.95 2.95 0 001.02 1.383 2.907 2.907 0 002.191.565 2.959 2.959 0 002.443-2.193c.096-.374.116-.764.06-1.147a2.964 2.964 0 00-2.912-2.549v.035z" fill="#000"/><path d="M134.36 100.815a1.266 1.266 0 00-.935-1.044 1.26 1.26 0 00-1.572 1.153 1.265 1.265 0 00.714 1.206 1.261 1.261 0 001.793-1.315z" fill="#fff"/><path d="M133.117 102.685a1.733 1.733 0 01-1.622-.995 1.736 1.736 0 01.259-1.885 1.74 1.74 0 012.654.034c.215.261.349.579.386.915.058.443-.057.892-.321 1.252a1.676 1.676 0 01-1.122.661 1.022 1.022 0 01-.234.018zm0-2.523h-.122a.869.869 0 00-.696.94.818.818 0 00.931.696.801.801 0 00.547-.322.86.86 0 00.128-.418.86.86 0 00-.788-.904v.008z" fill="#000"/><path d="M130.074 79.59a4.477 4.477 0 00-3.597 5.92 4.479 4.479 0 003.979 2.989 4.474 4.474 0 004.282-2.536 4.485 4.485 0 00-2.921-6.278 4.463 4.463 0 00-1.743-.095zm1.095 7.707a3.3 3.3 0 01-3.306-1.592 3.293 3.293 0 01-.454-1.864 3.3 3.3 0 012.203-2.935 3.304 3.304 0 014.365 2.65 3.312 3.312 0 01-2.808 3.74v.001z" fill="#fff"/><path d="M130.701 88.942a4.91 4.91 0 01-4.935-4.57 4.915 4.915 0 014.248-5.216 4.912 4.912 0 015.555 4.175 4.914 4.914 0 01-4.173 5.558c-.23.035-.462.053-.695.053zm-.565-8.916a4.052 4.052 0 00-2.706 6.405 4.049 4.049 0 006.92-.633 4.05 4.05 0 00-1.215-4.998 4.049 4.049 0 00-2.999-.774zm.565 7.75a3.778 3.778 0 01-3.82-3.607 3.783 3.783 0 013.468-3.948 3.778 3.778 0 014.064 3.33 3.78 3.78 0 01-3.182 4.181 3.648 3.648 0 01-.53.035v.009zm.009-6.61a3.208 3.208 0 00-.409 0 2.878 2.878 0 00-2.068 4.3c.191.324.445.607.747.831a2.864 2.864 0 003.733-.23 2.866 2.866 0 00.836-2.481 2.868 2.868 0 00-2.831-2.447l-.008.026z" fill="#000"/><path d="M171.787 131.74l-67.256 9.566 14.008 98.614 67.255-9.566-14.007-98.614z" fill="#fff"/><path d="M118.548 240.363a.438.438 0 01-.269-.096.404.404 0 01-.166-.278l-14.012-98.622a.435.435 0 01.374-.488l67.253-9.568a.447.447 0 01.496.366l14.012 98.613a.488.488 0 01-.087.331.456.456 0 01-.287.165l-67.253 9.568-.061.009zm-13.525-98.683l13.908 97.752 66.401-9.446-13.908-97.77-66.401 9.464z" fill="#000"/><path d="M118.547 239.928c12.83-1.74 53.328-7.829 67.254-9.568-1.148-8.055-2.66-18.528-2.843-23.538-1.816-1.314-4.989-2.436-9.561-4.854-7.172-3.784-18.811-11.725-18.811-11.725l-4.729.495v-.278l-3.789.679-3.834.408.044.27-4.686.87s-8.962 10.882-14.777 16.527c-3.842 3.714-6.241 5.41-7.571 7.22.026.295 1.999 14.187 3.303 23.494z" fill="#fff"/><path d="M118.54 240.25a.331.331 0 01-.322-.278c-1.313-9.395-3.26-23.147-3.338-23.486a.317.317 0 01.061-.261 24.721 24.721 0 013.599-3.575c1.086-.966 2.442-2.166 4.007-3.68 5.754-5.558 14.681-16.379 14.777-16.527a.363.363 0 01.2-.113l4.346-.782a.266.266 0 01.07-.209.32.32 0 01.217-.131l3.833-.4 3.764-.678a.369.369 0 01.252.061.295.295 0 01.122.182l4.416-.469a.37.37 0 01.217.06c.122.079 11.709 7.977 18.776 11.708a92.65 92.65 0 005.215 2.54 29.507 29.507 0 014.416 2.332.313.313 0 01.139.252c.165 4.758 1.556 14.5 2.669 22.329l.165 1.183a.325.325 0 01-.004.128.346.346 0 01-.152.203.336.336 0 01-.122.043c-8.78 1.078-27.712 3.836-44.419 6.271-9.709 1.418-18.089 2.61-22.835 3.297h-.069zm-2.999-23.782c.252 1.592 2.129 14.866 3.277 23.086 4.798-.661 13.038-1.861 22.513-3.244 16.516-2.41 35.179-5.133 44.106-6.237l-.122-.87c-1.104-7.759-2.477-17.397-2.669-22.233a32.402 32.402 0 00-4.189-2.184 121.776 121.776 0 01-5.216-2.548c-6.745-3.566-17.585-10.908-18.741-11.691l-4.607.487a.342.342 0 01-.209-.052.342.342 0 01-.138-.165l-3.477.617-3.477.374a.317.317 0 01-.27.305l-4.563.87c-.87 1.07-9.249 11.142-14.778 16.44a105.934 105.934 0 01-4.033 3.705 27.565 27.565 0 00-3.407 3.34z" fill="#000"/><path d="M148.275 208.509l2.521 16.11 4.033-.574-3.894-16.153s-2.295-.339-2.66.617z" fill="#fff"/><path d="M150.797 224.95a.33.33 0 01-.321-.279l-2.521-16.109a.32.32 0 010-.157c.391-1.183 2.747-.869 3.016-.869a.317.317 0 01.261.252l3.894 16.135a.313.313 0 010 .261.31.31 0 01-.226.14l-4.033.574-.07.052zm-2.155-16.397l2.451 15.701 3.364-.479-3.755-15.578c-.817-.079-1.86-.026-2.06.356z" fill="#000"/><path d="M150.997 212.902a.651.651 0 00-.478-.531.65.65 0 00-.674.238.647.647 0 00.235.966.652.652 0 00.607-.025.646.646 0 00.31-.648z" fill="#fff"/><path d="M150.38 213.981a.955.955 0 01-.583-.2.965.965 0 01-.359-1.017.967.967 0 01.168-.34.969.969 0 011.507-.068.961.961 0 01.232.52.932.932 0 01-.183.713.99.99 0 01-.634.383l-.148.009zm0-1.288a.288.288 0 00-.209.122.296.296 0 00-.061.235.286.286 0 00.122.209.334.334 0 00.352.023.323.323 0 00.152-.319.327.327 0 00-.118-.218.316.316 0 00-.238-.069v.017z" fill="#000"/><path d="M152.735 220.566a.648.648 0 00-.478-.531.64.64 0 00-.801.588.65.65 0 00.363.616.639.639 0 00.606-.026.643.643 0 00.31-.647z" fill="#fff"/><path d="M152.119 221.627a.957.957 0 01-.956-.827.92.92 0 01.182-.722.991.991 0 01.635-.382.965.965 0 01.913 1.548.946.946 0 01-.635.374l-.139.009zm0-1.288a.325.325 0 00-.21.122.305.305 0 00-.053.112.32.32 0 00.35.393.293.293 0 00.209-.122.29.29 0 00.055-.111.326.326 0 00-.118-.331.324.324 0 00-.233-.063z" fill="#000"/><path d="M138.211 187.755s-2.608 1.053-3.329 5.506c-.722 4.454-.079 15.562-.4 18.119-.322 2.557.417 2.914 2.112 1.992 1.695-.922 3.268-4.349 5.954-4.741a35.641 35.641 0 017.102.14s3.912-3.071 6.598-3.48c2.686-.409 6.745 4.071 7.866 3.906 1.122-.165-1.59-9.568-4.05-15.657s-6.685-8.429-11.388-7.759c-4.702.669-10.465 1.974-10.465 1.974z" fill="#fff"/><path d="M135.289 214.163a1.05 1.05 0 01-.608-.174c-.522-.356-.67-1.174-.487-2.609.122-1.009.096-3.392.061-6.167-.052-4.132-.113-9.273.339-11.969.756-4.584 3.416-5.715 3.529-5.759h.052c.061 0 5.824-1.287 10.492-1.948 5.172-.739 9.344 2.088 11.735 7.959 1.938 4.775 5.006 14.405 4.189 15.822a.555.555 0 01-.391.287c-.547.079-1.286-.443-2.66-1.435-1.564-1.139-3.72-2.696-5.215-2.479-2.608.365-6.398 3.358-6.441 3.384a.332.332 0 01-.235.069 35.45 35.45 0 00-7.023-.13c-1.548.217-2.747 1.583-3.808 2.792a8.686 8.686 0 01-2.034 1.905c-.456.265-.968.42-1.495.452zm3.06-26.095c-.243.113-2.451 1.261-3.112 5.219-.443 2.61-.374 7.75-.33 11.856 0 2.792.069 5.219-.07 6.254-.182 1.514.052 1.923.209 2.027.156.104.53.122 1.425-.365a8.404 8.404 0 001.861-1.74c1.13-1.287 2.416-2.749 4.207-3.01a34.672 34.672 0 017.049.122c.661-.504 4.12-3.079 6.65-3.479 1.738-.252 3.938 1.322 5.685 2.609a8.572 8.572 0 002.121 1.314c.426-.966-1.652-8.829-4.251-15.214-2.26-5.567-6.171-8.246-11.039-7.559-4.459.661-9.936 1.862-10.405 1.966z" fill="#000"/><path d="M119.86 219.2c-1.851-3.253-3.477-2.81-4.503-1.74.496 3.427 2.078 14.596 3.182 22.485h.252l8.006-1.139.147-.07c-2.042-6.724-5.041-15.944-7.084-19.536z" fill="#fff"/><path d="M118.54 240.233a.328.328 0 01-.321-.279c-1.044-7.463-2.66-18.91-3.182-22.485a.327.327 0 01.087-.278 2.49 2.49 0 012.104-.87c.999.139 1.981 1.044 2.912 2.688 2.034 3.592 4.998 12.621 7.119 19.562a.325.325 0 01-.2.401l-.131.069h-.078l-8.014 1.14h-.27l-.026.052zm-2.834-22.686c.531 3.697 2.087 14.657 3.112 22.007 2-.269 4.642-.652 7.719-1.096-2.103-6.863-4.989-15.657-6.954-19.136-.826-1.453-1.643-2.253-2.434-2.357a1.735 1.735 0 00-1.443.582z" fill="#000"/><path d="M178.196 231.299a72.341 72.341 0 017.597-1.139c-.999-7.054-2.277-15.875-2.694-21.294-5.572 2.34-5.598 14.274-4.903 22.433z" fill="#fff"/><path d="M178.196 231.621a.311.311 0 01-.281-.165.352.352 0 01-.041-.131c-.756-9.089-.486-20.415 5.103-22.763a.306.306 0 01.148-.039c.051 0 .102.014.147.039a.348.348 0 01.109.107.341.341 0 01.048.145c.391 5.141 1.582 13.509 2.538 20.224l.148 1.052a.31.31 0 01-.07.244.306.306 0 01-.217.122 73.576 73.576 0 00-7.562 1.13l-.07.035zm4.616-22.259c-4.99 2.714-4.885 14.422-4.347 21.537a71.05 71.05 0 016.954-1.026l-.095-.713c-.948-6.533-2.095-14.605-2.53-19.798h.018z" fill="#000"/><path d="M155.83 165.026s.348-7.254 3.799-2.252c3.451 5.001-2.608 12.734-3.477 11.481-.869-1.252-.322-9.229-.322-9.229z" fill="#fff"/><path d="M156.387 174.716a.63.63 0 01-.539-.269c-.869-1.305-.4-8.586-.339-9.438 0-.409.226-3.854 1.739-4.28.782-.217 1.66.383 2.677 1.862 1.999 2.896.869 6.35 0 8.15-1 2.123-2.547 3.906-3.477 3.975h-.061zm1.156-13.378h-.139c-.817.235-1.191 2.61-1.243 3.688-.226 3.045-.356 8.177.226 9.021.148 0 .947-.444 1.93-1.871 1.738-2.479 3.016-6.384 1.043-9.246-.722-1.026-1.365-1.592-1.817-1.592z" fill="#000"/><path d="M156.246 169.21h-.061a.32.32 0 01-.26-.383c.139-.748.912-4.514 1.921-5.123a1.015 1.015 0 01.939-.122 1.812 1.812 0 01.869 1.157.33.33 0 01-.244.391.316.316 0 01-.246-.032.319.319 0 01-.145-.202c-.052-.192-.217-.609-.452-.705 0 0-.139-.061-.347.07-.557.339-1.287 2.948-1.617 4.688a.34.34 0 01-.357.261z" fill="#000"/><path d="M158.421 169.193a.336.336 0 01-.192-.067.327.327 0 01-.112-.37.329.329 0 01.121-.163 1.077 1.077 0 00.383-1.166.293.293 0 00-.054-.107.297.297 0 00-.094-.075 2.716 2.716 0 00-1.608.26.327.327 0 01-.354-.061.34.34 0 01-.072-.104.324.324 0 01-.031-.123.337.337 0 01.021-.126.328.328 0 01.069-.107.337.337 0 01.106-.07 3.26 3.26 0 012.139-.261.923.923 0 01.504.592 1.735 1.735 0 01-.635 1.887.382.382 0 01-.191.061z" fill="#000"/><path d="M129.091 168.836s-2.355-6.88-4.276-1.113c-1.921 5.767 6.084 11.499 6.571 10.055.487-1.444-2.295-8.942-2.295-8.942z" fill="#fff"/><path d="M131.004 178.317a1.835 1.835 0 01-.583-.104c-2.121-.713-7.588-5.593-5.919-10.604.565-1.696 1.243-2.522 2.051-2.522 1.547 0 2.703 3.236 2.834 3.627.295.8 2.807 7.655 2.303 9.16a.66.66 0 01-.686.443zm-4.442-12.578c-.487 0-.991.74-1.443 2.079-1.096 3.297 1.243 6.689 3.581 8.594 1.339 1.096 2.243 1.331 2.39 1.244.313-.965-1.251-5.863-2.312-8.698-.452-1.349-1.443-3.21-2.216-3.21v-.009z" fill="#000"/><path d="M129.771 172.976a.331.331 0 01-.173-.05.347.347 0 01-.123-.132c-.808-1.575-2.234-3.88-2.868-4.054-.235-.061-.322 0-.348 0-.2.148-.243.609-.235.801a.329.329 0 01-.548.254.33.33 0 01-.104-.228 1.749 1.749 0 01.479-1.34 1.016 1.016 0 01.93-.148c1.138.305 2.929 3.706 3.277 4.349a.343.343 0 01-.139.444.508.508 0 01-.148.104z" fill="#000"/><path d="M127.667 173.568h-.104a1.74 1.74 0 01-1.139-1.635.93.93 0 01.082-.389.938.938 0 01.239-.316 3.267 3.267 0 012.13-.357.333.333 0 01.253.366.328.328 0 01-.34.287 2.603 2.603 0 00-1.617.191.292.292 0 00-.095.218 1.103 1.103 0 00.695 1.017.325.325 0 01.19.161.31.31 0 01.034.122.315.315 0 01-.015.126.327.327 0 01-.124.153.327.327 0 01-.189.056z" fill="#000"/><path d="M136.236 183.241s3.764 13.169 4.494 15.596c.87 2.853 5.946 9.673 8.545 8.62 2.599-1.052 3.077-8.898 3.425-11.238.348-2.34-.339-15.275-.339-15.275l-16.125 2.297z" fill="#fff"/><path d="M148.686 207.892a3.079 3.079 0 01-1.313-.339c-2.755-1.314-6.224-6.228-6.954-8.62-.73-2.392-4.459-15.475-4.503-15.605a.37.37 0 010-.27.304.304 0 01.226-.139l16.134-2.297a.304.304 0 01.252.07.305.305 0 01.113.235c0 .531.695 12.995.339 15.335-.052.357-.105.87-.174 1.392-.522 4.419-1.261 9.212-3.477 10.099a1.8 1.8 0 01-.643.139zm-12.039-24.356c.617 2.132 3.746 13.048 4.398 15.231.652 2.184 4.042 6.959 6.606 8.22a1.84 1.84 0 001.495.192c2.026-.87 2.721-6.733 3.06-9.569.07-.565.122-1.052.174-1.409.313-2.061-.217-12.752-.322-14.848l-15.411 2.183z" fill="#000"/><path d="M127.137 152.979s.756 12.595 3.39 21.485c2.634 8.89 10.509 16.031 14.638 15.779 4.129-.252 11.822-10.951 11.352-16.718-.469-5.768.539-20.337-2.295-25.765-2.833-5.428-6.762-6.594-14.881-5.785-8.119.809-13.691 5.376-12.204 11.004z" fill="#fff"/><path d="M144.921 188.321c-4.451 0-12.169-5.133-14.699-13.761-2.53-8.629-3.364-20.816-3.407-21.529a6.96 6.96 0 011.06-5.915c2.051-2.949 6.198-4.94 11.387-5.462 8.606-.87 12.439.643 15.212 5.949 2.06 3.958 2.112 12.456 2.156 19.276 0 2.679 0 4.984.165 6.619.313 3.758-2.73 9.412-5.894 13.048-1.39.905-3.563 1.775-5.736 1.775h-.244zm-1.495-46.25a39.495 39.495 0 00-4.068.235c-4.92.487-9.006 2.427-10.909 5.219a6.344 6.344 0 00-.965 5.402c.003.02.003.04 0 .061 0 .13.791 12.665 3.381 21.415 2.608 8.89 10.391 13.048 14.056 13.291 1.347-.078 3.286-.243 5.511-1.531 3.077-3.54 6.032-9.003 5.737-12.578-.139-1.652-.148-3.975-.165-6.663-.044-6.758-.096-15.161-2.086-18.979-2.2-4.202-4.972-5.872-10.492-5.872z" fill="#000"/><path d="M128.327 167.879s1.382-.487 1.061-2.774c-.322-2.288-.809-3.662 0-4.21.808-.548 2.034-1.018 1.981-3.48-.052-2.461-3.181-3.914-2.52-6.48a6.195 6.195 0 016.519-4.271c2.947.304 3.738 4.845 8.44 7.237 4.703 2.392 10.24 1.453 10.24 1.453a2.153 2.153 0 00.226 2.609 4.639 4.639 0 011.078 2.471s.4 4.888 1.26 4.766c.861-.122.435-11.264.192-12.978-.244-1.713.069-8.742-5.216-11.047-5.285-2.305-12.891-1.661-17.472-.13-4.581 1.531-6.954 4.045-7.988 8.263-1.034 4.219 2.199 18.571 2.199 18.571z" fill="#000"/><path d="M128.327 168.227a.343.343 0 01-.156 0 .356.356 0 01-.166-.217c-.13-.592-3.207-14.509-2.199-18.754 1.009-4.245 3.555-6.959 8.197-8.498 4.903-1.636 12.561-2.105 17.707.148 4.737 2.07 5.128 7.672 5.319 10.359 0 .392 0 .714.079.94.13.87.287 4.132.321 7.124.052 6.089-.434 6.176-.791 6.219a.538.538 0 01-.443-.13c-.774-.609-1.104-3.932-1.182-4.932a4.559 4.559 0 00-1.017-2.297 2.662 2.662 0 01-.513-2.383 18.441 18.441 0 01-9.84-1.566 14.777 14.777 0 01-5.024-4.532c-1.104-1.417-1.982-2.531-3.303-2.67a5.895 5.895 0 00-6.172 4.027c-.322 1.262.391 2.244 1.139 3.288a5.616 5.616 0 011.391 3.106c.06 2.366-1.035 3.07-1.835 3.575l-.286.182c-.426.305-.313 1.07-.061 2.532.069.417.148.869.217 1.374.357 2.522-1.208 3.105-1.269 3.123a.274.274 0 01-.113-.018zm14.847-28.243a29.383 29.383 0 00-8.962 1.357c-4.468 1.487-6.789 3.888-7.771 8.037-.869 3.679 1.573 15.518 2.103 17.997a2.359 2.359 0 00.522-2.192c-.07-.496-.148-.948-.217-1.357-.279-1.583-.452-2.61.339-3.175l.295-.2c.748-.47 1.591-1.009 1.539-3.01a5.06 5.06 0 00-1.269-2.74c-.8-1.122-1.635-2.279-1.243-3.827.704-2.766 3.85-4.836 6.867-4.523 1.599.165 2.607 1.444 3.755 2.914a14.111 14.111 0 004.807 4.349c4.554 2.314 9.987 1.435 10.039 1.426a.31.31 0 01.331.148.316.316 0 010 .366 1.845 1.845 0 00.226 2.2 4.877 4.877 0 011.138 2.662c.062 1.486.355 2.954.87 4.349.486-1.487.208-10.699-.044-12.517 0-.235-.061-.574-.087-.983-.182-2.557-.547-7.889-4.928-9.811a21.088 21.088 0 00-8.31-1.47z" fill="#000"/><path d="M135.751 173.098a6.394 6.394 0 01-6.33-5.437 6.408 6.408 0 011.847-5.538 6.393 6.393 0 018.325-.541 6.33 6.33 0 012.495 4.219 6.386 6.386 0 01-6.337 7.297zm0-12.177a5.202 5.202 0 00-.826.061 5.759 5.759 0 103.234 10.922 5.765 5.765 0 003.162-6.587 5.754 5.754 0 00-2.136-3.239 5.674 5.674 0 00-3.417-1.105l-.017-.052zm13.829 10.238a6.401 6.401 0 111.811-12.544 6.404 6.404 0 014.526 5.237 6.399 6.399 0 01-1.495 5.107 6.404 6.404 0 01-2.181 1.629 6.393 6.393 0 01-2.661.571zm0-12.178a5.787 5.787 0 00-4.584 2.202 5.8 5.8 0 00.796 8.007 5.788 5.788 0 009.534-4.58 5.796 5.796 0 00-1.737-3.976 5.784 5.784 0 00-4.009-1.653z" fill="#000"/><path d="M137.194 166.861c.139.983-.157 1.845-.67 1.914-.512.07-1.043-.661-1.182-1.653-.139-.991.165-1.835.678-1.913.513-.079 1.035.67 1.174 1.652zm11.691-1.661c.139.983-.156 1.844-.669 1.914-.513.069-1.043-.67-1.182-1.653s.165-1.844.669-1.913c.504-.07 1.043.669 1.182 1.652z" fill="#000"/><path d="M143.034 161.886a72.688 72.688 0 00.565 9.09c.521 2.688 1.052 4.349-.661 4.602-1.712.252-1.686-2.671-1.686-2.671m-3.26 4.68s4.964 3.227 11.118-1.575z" fill="#fff"/><path d="M142.182 178.961a8.692 8.692 0 01-4.346-1.096.339.339 0 01-.093-.088.325.325 0 01.441-.46c.2.122 4.859 3.027 10.744-1.566a.335.335 0 01.113-.057.335.335 0 01.247.031.318.318 0 01.153.196.332.332 0 01-.114.344 11.42 11.42 0 01-7.145 2.696zm-.268-13.387a.326.326 0 01-.277-.326.33.33 0 01.277-.326l1.738-.244a.33.33 0 01.333.156.32.32 0 01.041.123.335.335 0 01-.065.239.333.333 0 01-.213.126l-1.739.244-.095.008zm-13.814 2.105a.33.33 0 01-.321-.278.32.32 0 01.278-.365l1.286-.183a.318.318 0 01.325.15.316.316 0 01.04.12.33.33 0 01-.278.374l-1.278.182h-.052zm27.496-3.914a.324.324 0 01-.343-.3.317.317 0 01.079-.234.32.32 0 01.221-.11l1.286-.183a.314.314 0 01.365.27.327.327 0 01-.062.244.328.328 0 01-.216.13l-1.278.183h-.052zm-24.01-1.714a.92.92 0 01-.417-.104.881.881 0 01-.415-.521.881.881 0 01.076-.662c.869-1.566 3.546-3.993 7.597-2.009a.868.868 0 01.4 1.165.871.871 0 01-1.165.4c-3.59-1.739-5.215 1.157-5.311 1.279a.87.87 0 01-.765.452zm13.692-1.948a.878.878 0 01-.75-.425.876.876 0 01-.015-.862c.869-1.557 3.555-3.993 7.597-2.01a.87.87 0 01-.756 1.566c-3.59-1.74-5.216 1.157-5.32 1.279a.87.87 0 01-.756.452zm58.423 80.405l-99.527 14.157 4.849 34.137 99.528-14.156-4.85-34.138z" fill="#000"/><path d="M169.337 250.596l-29.956 4.239.243 1.722 29.956-4.239-.243-1.722zm25.424 15.366l-75.2 10.683.244 1.722 75.2-10.683-.244-1.722zm-20.338-11.457l-38.521 5.473.245 1.722 38.521-5.472-.245-1.723z" fill="#fff"/><path d="M134.142 263.23l-.396.056.965 6.828.396-.056-.965-6.828zm38.842-5.491l-.396.056.965 6.829.396-.056-.965-6.829zm10.31-1.558l-.792.112.97 6.83.792-.113-.97-6.829zM130.708 85.766a1.816 1.816 0 01-.478-.07 1.74 1.74 0 01-1.2-2.139c.096-.348 2.46-8.525 12.074-21.877a1.74 1.74 0 012.449-.433 1.742 1.742 0 01.376 2.46c-9.205 12.787-11.526 20.711-11.552 20.79a1.735 1.735 0 01-1.669 1.27z" fill="#000"/><path d="M141.879 175.299l.121-.065-.221.12.086.157.005.009.003.005.001.003.002.002.085.157-.085-.163-.001-.001-.001-.002-.001-.001-.004-.007-.084-.162v-.001l.09-.049.004-.002zm.09.384l-.002.001-.09-.165h0l-.001-.002-.001-.002-.001-.002-.089-.163.089.161.002.003.001.002.001.002h0l.091.165z" fill="#1A1A1A" stroke="#000"/></g><defs><clipPath id="clip0_1_2095"><path fill="#fff" d="M0 0h306v330H0z"/></clipPath></defs></svg>