<svg width="113" height="114" fill="none" xmlns="http://www.w3.org/2000/svg"><path d="M31.89 40.81C31.89 18.546 49.935.5 72.19.5c22.265 0 40.31 18.045 40.31 40.31 0 22.255-18.045 40.3-40.31 40.3-22.255 0-40.3-18.045-40.3-40.3z" fill="#fff" stroke="#4D4D4D"/><path d="M.5 72.193c0-22.253 18.045-40.299 40.31-40.299 22.255 0 40.3 18.045 40.3 40.3 0 22.265-18.045 40.31-40.3 40.31C18.546 112.504.5 94.459.5 72.194z" fill="#fff" stroke="#4D4D4D"/><path d="M28.753 70.626a7.35 7.35 0 017.352-7.352c4.054 0 7.34 3.295 7.34 7.352 0 4.056-3.286 7.351-7.34 7.351a7.35 7.35 0 01-7.352-7.352zm9.417-21.977a4.207 4.207 0 014.209-4.209 4.207 4.207 0 014.208 4.209 4.207 4.207 0 01-4.208 4.208 4.207 4.207 0 01-4.209-4.208zm9.417 39.245c0-3.197 2.59-5.786 5.774-5.786a5.785 5.785 0 015.786 5.786c0 3.184-2.589 5.774-5.786 5.774a5.78 5.78 0 01-5.774-5.774zM13.062 76.9a4.207 4.207 0 014.208-4.209 4.207 4.207 0 014.21 4.209 4.207 4.207 0 01-4.209 4.208 4.207 4.207 0 01-4.208-4.208zm43.942-9.417a4.207 4.207 0 014.209-4.209 4.207 4.207 0 014.208 4.209 4.207 4.207 0 01-4.208 4.208 4.207 4.207 0 01-4.209-4.208zm-28.25 26.685a2.642 2.642 0 012.642-2.643 2.64 2.64 0 012.631 2.643 2.64 2.64 0 01-2.631 2.643 2.642 2.642 0 01-2.643-2.643z" fill="#fff" stroke="#4D4D4D"/><path d="M57.003 18.836a5.772 5.772 0 015.774-5.774 5.775 5.775 0 110 11.548 5.772 5.772 0 01-5.774-5.774zM75.837 32.96a4.207 4.207 0 014.208-4.208 4.207 4.207 0 014.209 4.208 4.207 4.207 0 01-4.209 4.209 4.207 4.207 0 01-4.208-4.209zm3.131-18.834a4.207 4.207 0 014.209-4.208 4.207 4.207 0 014.208 4.208 4.207 4.207 0 01-4.208 4.209 4.207 4.207 0 01-4.209-4.209zm12.56 32.96a2.65 2.65 0 012.643-2.643 2.65 2.65 0 012.643 2.643 2.65 2.65 0 01-2.643 2.643 2.65 2.65 0 01-2.643-2.643z" fill="#4D4D4D" stroke="#4D4D4D"/></svg>