<svg width="184" height="58" fill="none" xmlns="http://www.w3.org/2000/svg"><path d="M52.953 40.684c-.289-.699-.56-1.433-.85-2.06l-1.34-2.994-.053-.053c-3.982-8.603-8.235-17.348-12.74-25.95l-.182-.36c-.452-.841-.905-1.773-1.375-2.634-.58-1.021-1.14-2.114-2.063-3.154A9.58 9.58 0 0031.035.914a9.67 9.67 0 00-8.21 0 9.58 9.58 0 00-3.315 2.565c-.85 1.04-1.484 2.133-2.063 3.154a53.383 53.383 0 01-1.375 2.689l-.181.358c-4.434 8.602-8.76 17.348-12.74 25.95l-.11.108c-.398.932-.868 1.9-1.32 2.939-.29.627-.58 1.308-.87 2.061a12.077 12.077 0 00-.723 6.205 12.126 12.126 0 002.475 5.746 12.294 12.294 0 005.025 3.776 12.417 12.417 0 006.254.814 15.265 15.265 0 005.755-1.97c2.352-1.31 4.614-3.209 7.148-5.95 2.534 2.741 4.85 4.64 7.148 5.967a15.277 15.277 0 007.276 2.061 12.36 12.36 0 008.082-2.96 12.137 12.137 0 004.133-7.488c.485-2.09.32-4.276-.47-6.273v.018zM26.966 43.66c-3.113-3.942-5.14-7.563-5.827-10.663a9.229 9.229 0 01-.181-3.513c.127-.914.47-1.72.94-2.401 1.087-1.56 2.987-2.527 5.068-2.527a6.021 6.021 0 012.853.622 5.956 5.956 0 012.214 1.887c.47.717.815 1.505.923 2.42.181 1.039.109 2.24-.18 3.512-.689 3.047-2.715 6.703-5.81 10.663zm23.056 2.653a8.487 8.487 0 01-1.72 4.053 8.605 8.605 0 01-3.528 2.667c-1.376.574-2.896.735-4.38.574-1.448-.18-2.895-.646-4.38-1.506a28.232 28.232 0 01-6.569-5.556c3.8-4.659 6.1-8.906 6.968-12.688.416-1.792.47-3.405.29-4.892a9.854 9.854 0 00-1.557-3.943 9.673 9.673 0 00-3.548-3.047 9.779 9.779 0 00-4.578-1.04c-3.348 0-6.334 1.542-8.143 4.069a9.228 9.228 0 00-1.539 3.96 11.686 11.686 0 00.29 4.893c.869 3.782 3.221 8.083 6.967 12.724a25.867 25.867 0 01-6.569 5.592c-1.502.86-2.932 1.308-4.38 1.487a8.676 8.676 0 01-6.328-1.686 8.514 8.514 0 01-3.3-5.608c-.18-1.433-.053-2.867.526-4.48.18-.573.452-1.147.742-1.828.398-.932.868-1.9 1.32-2.867l.073-.126A583.933 583.933 0 0119.293 11.24l.18-.358c.453-.86.906-1.774 1.376-2.635.47-.914.977-1.792 1.629-2.509a6.002 6.002 0 012.064-1.57 6.057 6.057 0 015.083 0c.796.368 1.5.904 2.064 1.57.634.717 1.159 1.595 1.63 2.51.452.86.904 1.792 1.374 2.634l.181.358a707.389 707.389 0 0112.668 25.825l.055.054c.47.932.868 1.971 1.32 2.867.29.7.58 1.255.761 1.846.344 1.613.525 3.047.344 4.48zm25.191-3.047a9.16 9.16 0 01-3.952-.833 9.076 9.076 0 01-3.196-2.447 11.67 11.67 0 01-2.896-8.029 12.4 12.4 0 013.004-8.207 9.583 9.583 0 013.319-2.479 9.671 9.671 0 014.065-.855 7.844 7.844 0 013.797.863 7.756 7.756 0 012.899 2.578l.18-2.814h5.285v21.65h-5.302l-.181-3.155a8.15 8.15 0 01-3.022 2.768 8.244 8.244 0 01-4 .96zm1.375-5.162c1.05 0 1.973-.286 2.842-.806.796-.573 1.447-1.326 1.954-2.24.453-.914.688-2.007.688-3.226a6.077 6.077 0 00-.604-3.072 6.146 6.146 0 00-2.056-2.376 5.378 5.378 0 00-5.647 0c-.796.573-1.448 1.326-1.954 2.24a7.127 7.127 0 00-.688 3.226 6.077 6.077 0 00.604 3.072 6.146 6.146 0 002.056 2.376c.85.52 1.774.806 2.805.806zM96.767 15.2c0 .627-.109 1.2-.398 1.667a3.38 3.38 0 01-1.213 1.147c-.525.286-1.086.394-1.665.394s-1.158-.108-1.683-.394a3.315 3.315 0 01-1.212-1.147 3.236 3.236 0 01-.399-1.667c0-.645.127-1.219.399-1.667.29-.537.705-.86 1.212-1.147a3.439 3.439 0 011.683-.412 3.355 3.355 0 011.653.392c.508.27.936.666 1.243 1.15.263.522.394 1.1.38 1.684zm-6.153 27.42V21.007h5.755v21.649h-5.773l.018-.036zm21.137-15.95v.071c-.271-.125-.633-.179-.905-.233-.362-.071-.651-.071-.995-.071-1.611 0-2.823.466-3.619 1.433-.869.986-1.267 2.366-1.267 4.14v10.628h-5.773v-21.65h5.302l.181 3.28c.579-1.147 1.267-2.007 2.244-2.652a5.653 5.653 0 013.276-.896c.416 0 .814.036 1.158.107.181.054.29.054.398.108v5.735zm2.317 15.95V12.117h5.754v11.65c.815-1.04 1.738-1.846 2.896-2.474a9.166 9.166 0 015.913-.717 9.101 9.101 0 015.09 3.065 11.67 11.67 0 012.896 8.047 12.405 12.405 0 01-3.004 8.208 9.584 9.584 0 01-3.319 2.478 9.672 9.672 0 01-4.065.855 7.843 7.843 0 01-3.797-.863 7.752 7.752 0 01-2.899-2.578l-.181 2.814-5.284.054v-.036zm11.129-4.517c1.032 0 1.955-.286 2.823-.806.797-.573 1.448-1.326 1.955-2.24.471-.914.688-2.007.688-3.226 0-1.2-.217-2.294-.688-3.208a6.734 6.734 0 00-1.955-2.24 5.377 5.377 0 00-5.646 0c-.814.573-1.448 1.326-1.972 2.24a7.126 7.126 0 00-.688 3.226 6.066 6.066 0 00.604 3.072 6.147 6.147 0 002.056 2.376c.851.52 1.774.806 2.823.806zm13.591 4.535v-21.65h5.303l.181 2.814a7.132 7.132 0 012.738-2.556 7.22 7.22 0 013.668-.83 7.47 7.47 0 014.122 1.153 7.363 7.363 0 012.791 3.219c.634 1.362.977 3.046.977 4.928v12.975h-5.773V30.47c0-1.505-.343-2.688-1.031-3.566-.688-.86-1.629-1.327-2.823-1.327-.869 0-1.629.18-2.299.574a4.493 4.493 0 00-1.556 1.667 4.807 4.807 0 00-.579 2.419v12.402h-5.719zm22.658 0V12.1h5.773v11.649a8.43 8.43 0 012.971-2.484 8.52 8.52 0 013.779-.904 9.16 9.16 0 013.952.833 9.086 9.086 0 013.197 2.447 11.709 11.709 0 012.877 8.029 12.388 12.388 0 01-3.004 8.208 9.59 9.59 0 01-3.318 2.478 9.675 9.675 0 01-4.066.855 7.843 7.843 0 01-3.797-.863 7.76 7.76 0 01-2.899-2.578l-.163 2.814-5.302.054zm11.184-4.535a5.28 5.28 0 002.823-.806c.814-.573 1.448-1.326 1.973-2.24.452-.914.687-2.007.687-3.226a6.076 6.076 0 00-.603-3.072 6.15 6.15 0 00-2.057-2.376 5.377 5.377 0 00-5.646 0c-.796.573-1.448 1.326-1.955 2.24a6.446 6.446 0 00-.687 3.226 6.076 6.076 0 00.603 3.072 6.15 6.15 0 002.057 2.376c.85.52 1.719.806 2.805.806z" fill="#4F4F4F"/></svg>