<svg width="184" height="62" fill="none" xmlns="http://www.w3.org/2000/svg"><path d="M78.302 31.785c0 8.603-6.758 14.942-15.051 14.942-8.294 0-15.052-6.34-15.052-14.942 0-8.664 6.758-14.943 15.052-14.943 8.293 0 15.051 6.279 15.051 14.943zm-6.589 0c0-5.376-3.916-9.055-8.462-9.055-4.546 0-8.463 3.679-8.463 9.055 0 5.322 3.917 9.054 8.463 9.054 4.546 0 8.462-3.739 8.462-9.054zm39.06 0c0 8.603-6.758 14.942-15.052 14.942-8.293 0-15.051-6.34-15.051-14.942 0-8.657 6.758-14.943 15.051-14.943 8.294 0 15.052 6.279 15.052 14.943zm-6.589 0c0-5.376-3.917-9.055-8.463-9.055-4.546 0-8.462 3.679-8.462 9.055 0 5.322 3.916 9.054 8.462 9.054 4.546 0 8.463-3.739 8.463-9.054zm37.707-14.04v26.826c0 11.035-6.535 15.542-14.26 15.542-7.273 0-11.649-4.844-13.3-8.805l5.737-2.378c1.021 2.432 3.524 5.302 7.556 5.302 4.945 0 8.009-3.038 8.009-8.758v-2.15h-.23c-1.475 1.813-4.316 3.396-7.901 3.396-7.502 0-14.375-6.508-14.375-14.881 0-8.435 6.873-14.997 14.375-14.997 3.579 0 6.42 1.583 7.901 3.342h.23v-2.432h6.258v-.007zM136.1 31.838c0-5.261-3.524-9.108-8.009-9.108-4.546 0-8.355 3.847-8.355 9.108 0 5.208 3.809 9 8.355 9 4.485 0 8.009-3.792 8.009-9zm16.106-29.817v43.79h-6.427V2.02h6.427zm25.043 34.681l5.114 3.396c-1.65 2.432-5.628 6.622-12.501 6.622-8.524 0-14.889-6.562-14.889-14.942 0-8.886 6.42-14.943 14.152-14.943 7.786 0 11.594 6.171 12.839 9.506l.683 1.698-20.057 8.273c1.536 2.998 3.923 4.527 7.272 4.527 3.355 0 5.682-1.644 7.387-4.137zm-15.741-5.376l13.407-5.544c-.737-1.866-2.956-3.166-5.567-3.166-3.349 0-8.01 2.944-7.84 8.71zM23.873 27.897v-6.34h21.451c.21 1.106.318 2.413.318 3.827 0 4.756-1.306 10.638-5.513 14.828-4.093 4.244-9.322 6.508-16.249 6.508C11.04 46.72.244 36.305.244 23.518.244 10.732 11.041.316 23.88.316c7.103 0 12.163 2.776 15.965 6.394l-4.492 4.473c-2.726-2.547-6.42-4.527-11.48-4.527-9.376 0-16.709 7.525-16.709 16.862 0 9.337 7.333 16.862 16.71 16.862 6.08 0 9.544-2.432 11.763-4.641 1.8-1.792 2.983-4.352 3.45-7.849l-15.214.007z" fill="#4F4F4F"/></svg>