<svg width="184" height="40" fill="none" xmlns="http://www.w3.org/2000/svg"><g clip-path="url(#clip0_1_2220)" fill="#4F4F4F"><path d="M64.948 22.585l-1.097 3.101h-.091c-.183-.7-.518-1.763-1.066-3.04l-5.88-14.743h-5.757v23.498h3.808V16.9c0-.912 0-1.945-.03-3.222-.031-.638-.092-1.125-.123-1.49h.092c.182.912.396 1.581.548 2.007L62.42 31.34h2.68l7.007-17.296c.152-.396.305-1.186.457-1.855h.091a219.066 219.066 0 00-.183 4.226V31.31h4.052V7.843H70.98l-6.032 14.742zm15.415-8.116h3.96v16.84h-3.96V14.47zm2.01-7.113c-.67 0-1.218.243-1.675.669-.457.425-.701.973-.701 1.641 0 .639.244 1.186.7 1.611.458.426 1.006.639 1.676.639.67 0 1.25-.243 1.676-.639.457-.425.7-.972.7-1.61 0-.639-.243-1.186-.7-1.642-.396-.426-.975-.669-1.676-.669zm15.994 6.961a11.069 11.069 0 00-2.224-.243c-1.798 0-3.443.395-4.814 1.186-1.37.79-2.467 1.884-3.168 3.252-.73 1.398-1.096 3.01-1.096 4.864 0 1.61.365 3.04 1.066 4.347.7 1.276 1.675 2.31 2.985 3.01 1.25.698 2.712 1.063 4.356 1.063 1.89 0 3.504-.395 4.783-1.125l.031-.03v-3.648l-.153.122c-.578.425-1.249.79-1.919 1.003-.7.243-1.34.365-1.888.365-1.585 0-2.834-.456-3.717-1.46-.914-.972-1.37-2.31-1.37-3.982 0-1.732.456-3.1 1.4-4.103.945-1.003 2.194-1.52 3.717-1.52 1.28 0 2.59.425 3.777 1.277l.153.121v-3.86l-.031-.03c-.518-.214-1.096-.457-1.888-.609zm13.068-.121c-.974 0-1.888.304-2.68.942-.671.547-1.128 1.338-1.524 2.28h-.03v-2.949h-3.96v16.84h3.96v-8.602c0-1.459.305-2.675.975-3.556.67-.912 1.523-1.368 2.559-1.368.365 0 .731.09 1.188.152.426.121.731.243.944.395l.153.121V14.5l-.092-.03c-.274-.183-.822-.274-1.493-.274zm10.785-.091c-2.773 0-4.996.82-6.55 2.431-1.584 1.611-2.346 3.83-2.346 6.627 0 2.614.792 4.742 2.315 6.292 1.524 1.52 3.595 2.31 6.185 2.31 2.711 0 4.874-.82 6.427-2.462 1.584-1.641 2.346-3.83 2.346-6.535 0-2.675-.731-4.803-2.224-6.353-1.432-1.55-3.534-2.31-6.153-2.31zm3.168 12.949c-.731.942-1.889 1.398-3.321 1.398-1.432 0-2.589-.456-3.412-1.459-.822-.942-1.218-2.31-1.218-4.043 0-1.793.426-3.161 1.218-4.134.823-.973 1.95-1.459 3.382-1.459 1.401 0 2.498.456 3.29 1.398.792.943 1.218 2.31 1.218 4.104-.061 1.824-.396 3.253-1.157 4.195zm14.043-5.593c-1.249-.517-2.041-.912-2.406-1.247-.305-.303-.457-.73-.457-1.276 0-.456.183-.912.64-1.216.457-.304.974-.456 1.736-.456.67 0 1.371.121 2.041.304.67.182 1.28.456 1.767.82l.152.122v-3.708l-.091-.03a11.01 11.01 0 00-1.797-.517 12.253 12.253 0 00-1.95-.183c-1.889 0-3.442.456-4.661 1.46-1.219.941-1.797 2.218-1.797 3.708 0 .79.121 1.49.396 2.067.274.577.67 1.124 1.218 1.58.549.426 1.341.912 2.437 1.368.914.395 1.615.7 2.041.943.427.243.701.516.914.73.153.242.244.546.244.942 0 1.124-.853 1.671-2.589 1.671-.671 0-1.371-.121-2.194-.395a8.495 8.495 0 01-2.224-1.125l-.152-.121v3.86l.091.03c.579.274 1.28.457 2.133.67.853.152 1.614.273 2.285.273 2.041 0 3.716-.456 4.904-1.459 1.219-.973 1.859-2.219 1.859-3.83 0-1.125-.305-2.128-.975-2.888-.884-.73-1.98-1.49-3.565-2.097zm14.989-7.356c-2.773 0-4.996.82-6.55 2.431-1.554 1.611-2.346 3.83-2.346 6.627 0 2.614.792 4.742 2.315 6.292 1.524 1.52 3.595 2.31 6.185 2.31 2.711 0 4.874-.82 6.427-2.462 1.584-1.641 2.346-3.83 2.346-6.535 0-2.675-.731-4.803-2.224-6.353-1.432-1.55-3.534-2.31-6.153-2.31zm3.137 12.949c-.731.942-1.888 1.398-3.32 1.398-1.462 0-2.59-.456-3.412-1.459-.823-.942-1.219-2.31-1.219-4.043 0-1.793.427-3.161 1.219-4.134.822-.973 1.95-1.459 3.381-1.459 1.371 0 2.498.456 3.29 1.398.792.943 1.219 2.31 1.219 4.104 0 1.824-.396 3.253-1.158 4.195zm26.412-9.332v-3.253h-3.991V9.484l-.121.03-3.778 1.125-.091.03v3.8h-5.971v-2.128c0-.972.244-1.732.67-2.219.427-.486 1.066-.73 1.858-.73.549 0 1.128.122 1.767.396l.153.091V6.444l-.092-.03c-.548-.183-1.279-.304-2.224-.304a7.148 7.148 0 00-3.168.73 5.281 5.281 0 00-2.163 2.158c-.518.912-.792 1.945-.792 3.13v2.341h-2.772v3.222h2.772V31.31h3.991V17.722h5.971v8.663c0 3.557 1.675 5.35 5.026 5.35.549 0 1.127-.091 1.676-.182.579-.122 1.005-.274 1.249-.395l.03-.03v-3.253l-.152.121a2.576 2.576 0 01-.823.365 2.787 2.787 0 01-.792.122c-.792 0-1.34-.183-1.736-.639-.366-.425-.548-1.124-.548-2.158v-7.964h4.051zM0 0h18.674v18.634H0V0zm20.623 0h18.674v18.634H20.623V0zM0 20.58h18.674v18.633H0V20.58zm20.623 0h18.674v18.633H20.623V20.579z"/></g><defs><clipPath id="clip0_1_2220"><path fill="#fff" d="M0 0h184v39.213H0z"/></clipPath></defs></svg>