<svg width="67" height="40" fill="none" xmlns="http://www.w3.org/2000/svg"><g clip-path="url(#a)"><path d="M14.113 11.188a.293.293 0 01-.229-.473l3.517-4.563a.29.29 0 01.518.145.295.295 0 01-.06.216l-3.532 4.56a.287.287 0 01-.214.115z" fill="#000"/><path d="M25.634 39.35c-.035-1.045-.065-2.091-.1-3.14-.041-1.273-.08-2.546-.045-3.819.03-1.153.122-2.272.145-3.406.03-1.503-.065-3.006-.122-4.506-.142-3.675-.07-7.359.06-11.05a33.982 33.982 0 00-6.068.05 40.275 40.275 0 014.31-4.579l2.201-2.106c2.262-2.18 4.528-4.333 6.9-6.41.57.407 1.1.87 1.58 1.38 3.593 3.65 6.644 7.805 10.05 11.554-2.124 0-4.245.023-6.373.058.076 8.712.278 17.424.465 26.109a57.06 57.06 0 01-13.003-.135z" fill="#fff"/><path d="M36.912 38.212c0 .458-.156.954.023 1.388a.735.735 0 00.171.277 12.53 12.53 0 011.122-.065h.27c.222-.262.169-.562.218-.835.04-.605.04-1.213 0-1.818-.122-2.534-.06-5.071-.118-7.605-.053-1.85-.229-3.695-.202-5.548 0-1.922.13-3.825.126-5.74 0-1.36-.176-2.2-.199-3.264 0-.43 0-.861.03-1.292a.541.541 0 00-.446-.531.56.56 0 00-.567.228.572.572 0 00-.104.303c-.103 1.815-.16 3.63-.221 5.448-.126 1.98-.26 3.956-.27 5.94.007 4.372.3 8.735.167 13.114z" fill="#000" opacity=".13"/><path d="M37.351 39.889c-4.196 0-8.052-.066-11.74-.2a.289.289 0 01-.283-.289c-.091-8.458-.187-17.228-.069-25.76a24.134 24.134 0 00-5.885.258.3.3 0 01-.31-.153.298.298 0 01.054-.342C23.486 9 28.006 4.447 32.71.076a.289.289 0 01.381 0 137.864 137.864 0 0111.79 13.11.286.286 0 01.031.316.288.288 0 01-.27.157c-2.419-.107-4.368-.15-6.268-.134.203 8.458.412 17.2.614 26.063a.293.293 0 01-.08.211.307.307 0 01-.21.089h-1.346zm-11.443-.77c3.902.135 8.01.197 12.492.185-.202-8.843-.412-17.6-.614-26.06a.295.295 0 01.08-.21.296.296 0 01.206-.089c1.835 0 3.692 0 5.958.108A137.816 137.816 0 0032.9.696c-4.402 4.098-8.64 8.358-12.748 12.499 1.8-.239 3.62-.28 5.428-.123a.29.29 0 01.263.296c-.122 8.524-.027 17.274.065 25.748v.004zM17.016 12.58a.284.284 0 01-.29-.263.294.294 0 01.065-.214l7.45-9.081a.293.293 0 01.516.17.297.297 0 01-.07.214l-7.45 9.07a.283.283 0 01-.22.104z" fill="#000"/><path d="M36.912 38.212c0 .458-.156.954.023 1.388a.735.735 0 00.171.277 12.53 12.53 0 011.122-.065h.27c.222-.262.169-.562.218-.835.04-.605.04-1.213 0-1.818-.122-2.534-.06-5.071-.118-7.605-.053-1.85-.229-3.695-.202-5.548 0-1.922.13-3.825.126-5.74 0-1.36-.176-2.2-.199-3.264 0-.43 0-.861.03-1.292a.541.541 0 00-.446-.531.56.56 0 00-.567.228.572.572 0 00-.104.303c-.103 1.815-.16 3.63-.221 5.448-.126 1.98-.26 3.956-.27 5.94.007 4.372.3 8.735.167 13.114z" fill="#000" opacity=".13"/><path d="M37.351 39.889c-4.196 0-8.052-.066-11.74-.2a.289.289 0 01-.283-.289c-.091-8.458-.187-17.228-.069-25.76a24.134 24.134 0 00-5.885.258.3.3 0 01-.31-.153.298.298 0 01.054-.342C23.486 9 28.006 4.447 32.71.076a.289.289 0 01.381 0 137.864 137.864 0 0111.79 13.11.286.286 0 01.031.316.288.288 0 01-.27.157c-2.419-.107-4.368-.15-6.268-.134.203 8.458.412 17.2.614 26.063a.293.293 0 01-.08.211.307.307 0 01-.21.089h-1.346zm-11.443-.77c3.902.135 8.01.197 12.492.185-.202-8.843-.412-17.6-.614-26.06a.295.295 0 01.08-.21.296.296 0 01.206-.089c1.835 0 3.692 0 5.958.108A137.816 137.816 0 0032.9.696c-4.402 4.098-8.64 8.358-12.748 12.499 1.8-.239 3.62-.28 5.428-.123a.29.29 0 01.263.296c-.122 8.524-.027 17.274.065 25.748v.004zM17.016 12.58a.284.284 0 01-.29-.263.294.294 0 01.065-.214l7.45-9.081a.293.293 0 01.516.17.297.297 0 01-.07.214l-7.45 9.07a.283.283 0 01-.22.104zm-2.903-1.392a.293.293 0 01-.229-.473l3.517-4.563a.29.29 0 01.518.145.295.295 0 01-.06.216l-3.532 4.56a.287.287 0 01-.214.115z" fill="#000"/><path d="M48.554 39.4l.26-17.216-4.181-.166 10.47-10.815 9.369 10.785-4.086.096-.488 17.382-11.344-.066z" fill="#fff"/><path d="M60.465 25.963v-.042c0-1.123-.064-2.245-.11-3.368a.329.329 0 01.233-.342v-.266c0-.045.01-.09.03-.13a.574.574 0 00-.053-.093H60.5a.546.546 0 00-.187.031l-.073.02-.091.042c-.084.034-.164.069-.252.096l-.011.004a2.886 2.886 0 00-.405.484c-.202 1.461-.381 3.81-.621 6.152a29.313 29.313 0 00-.267 2.933 42.721 42.721 0 00-.233 5.46c.023.434.023.868 0 1.303a.896.896 0 00-.061.169 1.162 1.162 0 00.472 1.38 1.136 1.136 0 001.34-.1l-.046-.746a309.09 309.09 0 00-.145-1.987.387.387 0 01.317-.385c-.02-.922 0-1.841 0-2.764a31.403 31.403 0 01.034-3.46c.057-.585 0-1.154 0-1.753.08-.846.137-1.742.194-2.638z" fill="#000" opacity=".13"/><path d="M59.887 39.938l-5.722-.111-5.722-.111a.29.29 0 01-.206-.093.29.29 0 01-.08-.211c.199-5.983.294-11.565.294-17.063a33.6 33.6 0 01-3.929-.211.289.289 0 01-.25-.359.3.3 0 01.078-.141c3.472-3.46 7.065-7.055 10.582-10.715a.277.277 0 01.217-.089.3.3 0 01.214.104 203.488 203.488 0 004.074 4.74c1.716 2.008 3.501 4.041 5.347 6.26a.282.282 0 01.038.315.288.288 0 01-.259.165l-1.526-.038c-.953-.02-1.938-.038-2.544-.077-.248 5.598-.301 10.8-.301 17.343a.286.286 0 01-.088.208.287.287 0 01-.217.084zm-11.146-.803l5.428.104 5.428.108c0-6.537.057-11.738.316-17.375a.3.3 0 01.1-.211.29.29 0 01.22-.065c.508.053 1.675.076 2.8.1l.885.019a367.922 367.922 0 00-4.958-5.767 292.314 292.314 0 01-3.876-4.502c-3.303 3.43-6.667 6.793-9.917 10.053a35.91 35.91 0 003.559.143.292.292 0 01.29.292 473.4 473.4 0 01-.267 17.101h-.008zM66.71 20.338a.289.289 0 01-.232-.115l-3.666-4.844a.295.295 0 01.156-.462.287.287 0 01.306.104l3.665 4.852a.288.288 0 01-.228.465z" fill="#000"/><path d="M60.465 25.963v-.042c0-1.123-.064-2.245-.11-3.368a.329.329 0 01.233-.342v-.266c0-.045.01-.09.03-.13a.574.574 0 00-.053-.093H60.5a.546.546 0 00-.187.031l-.073.02-.091.042c-.084.034-.164.069-.252.096l-.011.004a2.886 2.886 0 00-.405.484c-.202 1.461-.381 3.81-.621 6.152a29.313 29.313 0 00-.267 2.933 42.721 42.721 0 00-.233 5.46c.023.434.023.868 0 1.303a.896.896 0 00-.061.169 1.162 1.162 0 00.472 1.38 1.136 1.136 0 001.34-.1l-.046-.746a309.09 309.09 0 00-.145-1.987.387.387 0 01.317-.385c-.02-.922 0-1.841 0-2.764a31.403 31.403 0 01.034-3.46c.057-.585 0-1.154 0-1.753.08-.846.137-1.742.194-2.638z" fill="#000" opacity=".13"/><path d="M59.887 39.938l-5.722-.111-5.722-.111a.29.29 0 01-.206-.093.29.29 0 01-.08-.211c.199-5.983.294-11.565.294-17.063a33.6 33.6 0 01-3.929-.211.289.289 0 01-.25-.359.3.3 0 01.078-.141c3.472-3.46 7.065-7.055 10.582-10.715a.277.277 0 01.217-.089.3.3 0 01.214.104 203.488 203.488 0 004.074 4.74c1.716 2.008 3.501 4.041 5.347 6.26a.282.282 0 01.038.315.288.288 0 01-.259.165l-1.526-.038c-.953-.02-1.938-.038-2.544-.077-.248 5.598-.301 10.8-.301 17.343a.286.286 0 01-.088.208.287.287 0 01-.217.084zm-11.146-.803l5.428.104 5.428.108c0-6.537.057-11.738.316-17.375a.3.3 0 01.1-.211.29.29 0 01.22-.065c.508.053 1.675.076 2.8.1l.885.019a367.922 367.922 0 00-4.958-5.767 292.314 292.314 0 01-3.876-4.502c-3.303 3.43-6.667 6.793-9.917 10.053a35.91 35.91 0 003.559.143.292.292 0 01.29.292 473.4 473.4 0 01-.267 17.101h-.008zM66.71 20.338a.289.289 0 01-.232-.115l-3.666-4.844a.295.295 0 01.156-.462.287.287 0 01.306.104l3.665 4.852a.288.288 0 01-.228.465z" fill="#000"/><path d="M5.923 39.527c.523-3.581.82-7.192.89-10.811a42.142 42.142 0 00-5.288.161 71.815 71.815 0 009.765-9.38c2.67 3.344 5.382 6.743 8.834 9.15-1.697.03-3.39.092-5.054.173a108.57 108.57 0 00.424 10.78c-.935.046-1.87.042-2.8.039h-2.216c-1.503-.016-3.01-.039-4.555-.112z" fill="#ACD4F7"/><path d="M15.609 38.093c-.05-.769-.103-1.538-.13-2.307-.038-1.41-.145-2.822-.175-4.229 0-.557 0-1.115.019-1.668 0-.335.13-.704 0-1.02a.683.683 0 00-.76-.404.678.678 0 00-.545.67c-.217 1.891-.278 2.145-.545 4.206a30.179 30.179 0 00.065 4.394c.122.9.057 1.154.21 1.484a1.033 1.033 0 00.746.611 1.018 1.018 0 00.92-.28c.409-.388.29-.95.195-1.457z" fill="#000" opacity=".13"/><path d="M13.54 39.938h-3.066c-1.484 0-3.014 0-4.578-.103a.276.276 0 01-.21-.108.27.27 0 01-.06-.227c.507-3.473.8-6.974.877-10.484a43.053 43.053 0 00-4.978.154.3.3 0 01-.298-.185.294.294 0 01.092-.338 71.394 71.394 0 009.742-9.343.3.3 0 01.225-.1.278.278 0 01.221.112c2.62 3.287 5.34 6.686 8.773 9.092a.292.292 0 01.11.324.293.293 0 01-.27.207 172 172 0 00-4.776.161c-.03 3.345.111 6.867.428 10.48a.297.297 0 01-.279.316c-.64.035-1.3.042-1.953.042zm-7.285-.688c1.43.073 2.85.081 4.222.089h2.216c.817 0 1.652 0 2.484-.023-.305-3.626-.439-7.16-.382-10.512a.297.297 0 01.279-.288c1.575-.077 2.933-.127 4.196-.154-3.086-2.337-5.573-5.413-7.973-8.42a71.816 71.816 0 01-8.868 8.566 42.928 42.928 0 014.39-.084.29.29 0 01.283.296 85.97 85.97 0 01-.847 10.53zM.29 26.751a.29.29 0 01-.213-.092.301.301 0 010-.415 57.863 57.863 0 004.348-4.495.293.293 0 01.412-.027.293.293 0 01.027.412 59.742 59.742 0 01-4.375 4.54.281.281 0 01-.198.077z" fill="#000"/><path d="M5.923 39.527c.523-3.581.82-7.192.89-10.811a42.142 42.142 0 00-5.288.161 71.815 71.815 0 009.765-9.38c2.67 3.344 5.382 6.743 8.834 9.15-1.697.03-3.39.092-5.054.173a108.57 108.57 0 00.424 10.78c-.935.046-1.87.042-2.8.039h-2.216c-1.503-.016-3.01-.039-4.555-.112z" fill="#fff"/><path d="M15.609 38.093c-.05-.769-.103-1.538-.13-2.307-.038-1.41-.145-2.822-.175-4.229 0-.557 0-1.115.019-1.668 0-.335.13-.704 0-1.02a.683.683 0 00-.76-.404.678.678 0 00-.545.67c-.217 1.891-.278 2.145-.545 4.206a30.179 30.179 0 00.065 4.394c.122.9.057 1.154.21 1.484a1.033 1.033 0 00.746.611 1.018 1.018 0 00.92-.28c.409-.388.29-.95.195-1.457z" fill="#000" opacity=".13"/><path d="M13.54 39.938h-3.066c-1.484 0-3.014 0-4.578-.103a.276.276 0 01-.21-.108.27.27 0 01-.06-.227c.507-3.473.8-6.974.877-10.484a43.053 43.053 0 00-4.978.154.3.3 0 01-.298-.185.294.294 0 01.092-.338 71.394 71.394 0 009.742-9.343.3.3 0 01.225-.1.278.278 0 01.221.112c2.62 3.287 5.34 6.686 8.773 9.092a.292.292 0 01.11.324.293.293 0 01-.27.207 172 172 0 00-4.776.161c-.03 3.345.111 6.867.428 10.48a.297.297 0 01-.279.316c-.64.035-1.3.042-1.953.042zm-7.285-.688c1.43.073 2.85.081 4.222.089h2.216c.817 0 1.652 0 2.484-.023-.305-3.626-.439-7.16-.382-10.512a.297.297 0 01.279-.288c1.575-.077 2.933-.127 4.196-.154-3.086-2.337-5.573-5.413-7.973-8.42a71.816 71.816 0 01-8.868 8.566 42.928 42.928 0 014.39-.084.29.29 0 01.283.296 85.97 85.97 0 01-.847 10.53zM.29 26.751a.29.29 0 01-.213-.092.301.301 0 010-.415 57.863 57.863 0 004.348-4.495.293.293 0 01.412-.027.293.293 0 01.027.412 59.742 59.742 0 01-4.375 4.54.281.281 0 01-.198.077z" fill="#000"/></g><defs><clipPath id="a"><path fill="#fff" d="M0 0h67v40H0z"/></clipPath></defs></svg>