<svg width="80" height="62" fill="none" xmlns="http://www.w3.org/2000/svg"><g clip-path="url(#a)"><path d="M55.465 34.205c.202-2.066-1.164-3.916-2.407-5.571-1.4-1.873-2.75-3.848-3.43-6.097a11.878 11.878 0 01-.016-6.38 11.74 11.74 0 013.283-5.442 11.85 11.85 0 015.669-2.774c2.1-.393 4.265-.206 6.27.542a8.886 8.886 0 013.936 2.797c1.164 1.53 1.687 3.47 2.014 5.377.37 2.038.562 4.196-.141 6.137-.562 1.593-1.749 2.889-2.812 4.224a32.787 32.787 0 00-3.936 6.628 1.716 1.716 0 01-.36.57c-.274.207-.61.314-.95.303a29.079 29.079 0 01-7.12-.314z" fill="#fff"/><path d="M15.515 45.6a12.015 12.015 0 01-1.977-4.803 12.092 12.092 0 01.228-5.199 15.562 15.562 0 015.826-8.437 13.82 13.82 0 015.567-2.614 9.43 9.43 0 016.034.719c2.058 1.039 3.582 2.9 4.966 4.76.75.98 1.434 2.01 2.047 3.083.646 1.142 1.124 2.398 1.687 3.551a5.659 5.659 0 01-.034-4.453 9.335 9.335 0 012.722-3.596 11.736 11.736 0 015.623-2.723 3.61 3.61 0 012.131.154 4.53 4.53 0 011.541 1.456c1.535 2.004 3.127 4.139 3.61 6.616-.45.057-.562.662-.562 1.142l.107 5.274a8.223 8.223 0 00.5 3.209c.237.514.576.972.998 1.345.421.372.915.651 1.449.818a6.192 6.192 0 001.614.228 5.123 5.123 0 003.25-.759 4.2 4.2 0 001.428-2.186c.23-.893.384-1.804.462-2.723a10.309 10.309 0 017.326-.873 10.449 10.449 0 016.069 4.258 7.04 7.04 0 011.063 2.283 9.94 9.94 0 01.151 2.65 14.017 14.017 0 01-.764 4.834c-1.069 2.643-3.543 4.407-6.108 5.846a26.546 26.546 0 01-9.767 1.667s-52.3-.737-52.35-.805a7.138 7.138 0 01-5.134-1.045 10.506 10.506 0 01-3.57-3.996 7.879 7.879 0 01-.597-1.358 6.95 6.95 0 01-.078-3.507 6.882 6.882 0 011.641-3.087 9.196 9.196 0 016.226-2.854 17.54 17.54 0 016.675 1.124z" fill="#fff"/><path d="M55.184 34.434a47.2 47.2 0 009.375-.114c.208 2.671.404 5.405-.276 7.991-.332 1.262-.939 2.552-2.064 3.197-1.333.76-2.991.405-4.498 0a4.156 4.156 0 01-1.626-.702c-.933-.788-1-2.198-.995-3.425.045-2.38.062-4.778.084-6.947z" fill="#fff"/><path d="M71.58 18.125a.56.56 0 00-.707-.074.566.566 0 00-.175.188 1.405 1.405 0 00-.135.616v.177c-.04.183-.152.788-.197.925.073-.177.073-.171 0 0-.26.855-.61 1.68-1.04 2.46a7.846 7.846 0 01-.883 1.542c-.562.839-2.216 2.409-3.144 3.773-.275.382-.877 1.262-.961 1.416-.364.45-.686.933-.962 1.444-.517 1.05-.467 1.027-.793 1.787a4.746 4.746 0 00-.46 1.672.376.376 0 000 .114 1.391 1.391 0 00-.136 1.096c.31 1.017.32 2.204.264 4.082-.056 1.878.057 2.283-.421 4.064a4.354 4.354 0 01-.49 1.142 1.61 1.61 0 00-.247.622c-.026.22.02.442.13.633a.987.987 0 001.648.121 7.741 7.741 0 001.512-3.482c.253-1.599.31-3.003.562-4.767.084-.759.084-1.525 0-2.283a2.672 2.672 0 00-.416-1.416l-.259.04-.455.057a14.78 14.78 0 012.334-5.138c.77-.97 1.63-1.86 2.451-2.791a12.52 12.52 0 001.952-2.74c.287-.714.242-.645.427-1.142 0-.08 0 0-.045.091.105-.25.206-.508.304-.77.144-.4.244-.816.298-1.239.146-.89.444-1.77.045-2.22zm-9.092 14.413l.069-.148v-.057l-.069.205zm15.398 21.87c.208-.269.41-.537.608-.81a20.119 20.119 0 001.422-2.518c0-.674-.039-1.353-.1-2.027a23.736 23.736 0 00-.428-2.854c-.14.394-.253.708-.32.879a22.909 22.909 0 01-1.126 2.118 22.345 22.345 0 01-1.686 2.968 25.85 25.85 0 01-3.498 3.597 27.234 27.234 0 01-3.672 2.249c-1.429.308-2.548.502-2.92.53a17.997 17.997 0 01-3.677.04c-1.687-.09-1.186-.09-2.778-.233a80.087 80.087 0 00-9.363-.217c-3.756 0-7.519.068-11.247 0-2.851 0-5.702-.212-8.553-.2-2.52 0-5.028.2-7.541.29-2.126.08-4.258.001-6.383.03-1.57 0-3.127.194-4.69.313-1.563.12-3.087.149-4.628.269a12.324 12.324 0 01-1.541-.423 17.818 17.818 0 01-2.728-1.518c-.742-.474-1.53-.868-2.249-1.359-.225-.16-.427-.308-.63-.445l.175.217a35.836 35.836 0 002.733 2.854 14.98 14.98 0 002.558 1.873 21.3 21.3 0 012.188.062c1.243.12 2.468.337 3.694.571.85.16 1.688.32 2.548.445l1.89.057-.26-.09a15.151 15.151 0 00-.713-.252c1.366-.034 2.732-.063 4.1 0 2.468.086 4.936-.063 7.405-.131 4.499.091 8.998.354 13.463.645 4.898.314 9.813.268 14.717.114 1.462 0 2.918.069 4.38.154-.601.137-1.203.251-1.805.354.563 0 1.091.046 1.631.051l4.2-.25 1.688-.115a57.057 57.057 0 001.985-.268c.365-.143.73-.28 1.125-.4a22.645 22.645 0 013.565-.896.825.825 0 01.427.04l.18-.091a.59.59 0 01.366-.075 13.86 13.86 0 005.123-3.996 14.68 14.68 0 001.62-2.66l-.563.508-.692.6z" fill="#000" opacity=".13"/><path d="M60.229 46.598a7.81 7.81 0 01-1.125-.08c-.973-.148-3.324-.696-4.105-2.711a6.26 6.26 0 01-.304-2.192l-.112-7.318a.4.4 0 01.14-.326.425.425 0 01.332-.114 76.21 76.21 0 009.476.046.426.426 0 01.32.095.44.44 0 01.158.299 32.44 32.44 0 01-.254 7.992 5.88 5.88 0 01-.955 2.791c-.923 1.25-2.435 1.518-3.571 1.518zm-4.77-11.833l.108 6.85a5.626 5.626 0 00.242 1.884c.618 1.592 2.609 2.043 3.436 2.169 1.72.251 3.177-.154 3.897-1.09a5.034 5.034 0 00.781-2.38c.39-2.44.484-4.92.281-7.382a84.458 84.458 0 01-8.744-.051z" fill="#000"/><path d="M63.961 34.72H63.9a.427.427 0 01-.267-.164.439.439 0 01-.087-.305c.388-2.694 2.12-4.83 3.796-6.902 1.597-1.969 3.104-3.836 3.576-6.153a15.05 15.05 0 00-.764-6.85 8.769 8.769 0 00-2.913-4.208c-2.334-1.712-6.327-2.854-9.448-1.872-2.78.81-5.2 2.57-6.85 4.983a11.09 11.09 0 00-1.551 7.187 13.722 13.722 0 002.969 6.885c.23.285.472.57.714.845a16.512 16.512 0 011.473 1.878 8.268 8.268 0 011.249 4.116.442.442 0 01-.115.314.429.429 0 01-.301.137.429.429 0 01-.308-.119.442.442 0 01-.137-.304 7.34 7.34 0 00-1.124-3.676 14.7 14.7 0 00-1.372-1.776c-.242-.28-.495-.57-.731-.867a14.619 14.619 0 01-3.166-7.318 11.95 11.95 0 011.686-7.815 13.378 13.378 0 017.311-5.344c3.374-1.096 7.699.177 10.207 1.993a9.623 9.623 0 013.216 4.612 15.805 15.805 0 01.799 7.353c-.512 2.523-2.16 4.567-3.757 6.53-1.687 2.067-3.25 3.996-3.61 6.474a.43.43 0 01-.148.267.418.418 0 01-.285.098z" fill="#000"/><path d="M61.404 34.605a.424.424 0 01-.302-.127.437.437 0 01-.126-.307v-.04c0-2.512.074-5.137.237-7.81a15.64 15.64 0 01.416-3.082 3.769 3.769 0 01-1.766-1.256c-.045.086-.09.172-.14.257-.614 1.142-1.305 1.713-2.126 1.793a1.97 1.97 0 01-.41 0c.168.622.303 1.244.415 1.838a41.31 41.31 0 01.731 8.243.439.439 0 01-.264.4.422.422 0 01-.465-.093.436.436 0 01-.125-.307 40 40 0 00-.72-8.066 21.964 21.964 0 00-.563-2.283l-.23-.103a6.728 6.728 0 01-3.026-2.455 1.423 1.423 0 01-.078-1.61c.157-.206.377-.356.625-.427.248-.071.511-.06.752.033.378.152.709.404.956.731a9.749 9.749 0 011.688 3.123c.197.074.408.105.618.091.512-.051 1.001-.508 1.462-1.347a16.2 16.2 0 00.355-.697 7.737 7.737 0 01-.67-2.854 5.26 5.26 0 01.636-3.277.89.89 0 01.402-.392.871.871 0 01.554-.07c.213.07.39.221.495.422.493.952.633 2.052.393 3.1a12.856 12.856 0 01-.855 3.008c.078.132.165.258.26.377.357.449.833.785 1.371.97a6.834 6.834 0 012.306-2.956c.237-.196.538-.296.843-.28a.83.83 0 01.642.451 1.735 1.735 0 01-.068 1.518 3.969 3.969 0 01-2.041 2.124c-.358.14-.742.198-1.125.171a14.353 14.353 0 00-.41 2.986 126.638 126.638 0 00-.237 7.752v.04a.437.437 0 01-.126.286.424.424 0 01-.284.125zM53.789 19.98a.3.3 0 00-.241.091c-.079.114 0 .365.13.628a5.083 5.083 0 002.08 1.815 8.095 8.095 0 00-1.21-2.01 1.553 1.553 0 00-.562-.479.512.512 0 00-.197-.045zm11.146.034a.951.951 0 00-.23.137 5.935 5.935 0 00-1.918 2.352 1.72 1.72 0 00.5-.114 3.178 3.178 0 001.575-1.713.902.902 0 00.073-.645v-.017zm-4.909-4.567a.104.104 0 000 .04 4.25 4.25 0 00-.495 2.729c.033.58.127 1.153.281 1.712.224-.653.392-1.326.5-2.009a3.64 3.64 0 00-.286-2.478v.006z" fill="#000"/><path d="M58.017 61.794c-2.537 0-5.061-.09-7.541-.188-7.125-.268-14.357-.337-21.37-.4-7.383-.068-15.02-.137-22.342-.45h-.107c-2.131-.634-4.026-2.78-5.24-4.47a7.26 7.26 0 01-1.308-3.05 7.31 7.31 0 01.182-3.32 7.99 7.99 0 013.644-4.248 12.458 12.458 0 0110.493-.805c-2.08-4.104-1.714-9.562 1.041-14.003 2.919-4.698 9.25-8.511 15.251-6.28 3.374 1.234 6.13 4.214 8.216 8.872a7.07 7.07 0 01.827-2.284 12.724 12.724 0 014.077-4.081 10.216 10.216 0 013.604-1.713 4.606 4.606 0 012.099-.018c.691.155 1.34.468 1.894.914a.437.437 0 01.028.56.43.43 0 01-.607.046 3.724 3.724 0 00-3.256-.696c-1.19.31-2.309.85-3.295 1.592-1.89 1.284-3.065 2.483-3.819 3.785a5.78 5.78 0 00-.714 3.961c.135.36.264.725.388 1.102a.44.44 0 01-.236.534.422.422 0 01-.546-.192 5.103 5.103 0 01-.427-1.193c-2.075-5.594-4.943-9.093-8.542-10.412-5.37-1.952-11.45 1.473-14.228 5.954-2.84 4.567-2.997 10.275-.399 14.18a.438.438 0 01-.26.672.422.422 0 01-.274-.033c-3.56-1.66-7.84-1.552-10.893.274a7.099 7.099 0 00-3.233 3.768 6.4 6.4 0 00-.148 2.914c.176.97.573 1.883 1.16 2.669 1.125 1.57 2.857 3.55 4.74 4.133 7.311.308 14.909.382 22.264.45 7.001.064 14.239.132 21.37.4 5.06.194 10.307.389 15.413-.24 5.365-.656 8.998-2.317 11.191-5.069a9.829 9.829 0 002.08-6.27 9.816 9.816 0 00-2.35-6.172 9.552 9.552 0 00-5.695-3.22 9.468 9.468 0 00-6.407 1.22.424.424 0 01-.587-.151.44.44 0 01.149-.597 10.318 10.318 0 016.985-1.343 10.409 10.409 0 016.215 3.506 10.698 10.698 0 012.567 6.73 10.71 10.71 0 01-2.27 6.84c-2.318 2.94-6.159 4.704-11.754 5.389a64.87 64.87 0 01-8.03.434z" fill="#000"/><path d="M10.684 40.867a.429.429 0 01-.393-.262 12.15 12.15 0 01.86-11.2.425.425 0 01.593-.134.441.441 0 01.132.602 11.438 11.438 0 00-.804 10.384.434.434 0 01-.388.61zm-3.408.651a.428.428 0 01-.383-.234 15.287 15.287 0 01-1.68-5.891.441.441 0 01.234-.42.423.423 0 01.575.193.44.44 0 01.045.164c.15 1.942.69 3.832 1.586 5.554a.44.44 0 01-.18.571.406.406 0 01-.197.063zm67.889-26.139a.417.417 0 01-.263-.093.429.429 0 01-.148-.238.44.44 0 01.042-.323.428.428 0 01.25-.202l3.121-.914a.594.594 0 01.748.234.484.484 0 01.034.423c-.13.308-.13.308-3.689 1.101l-.096.012zM60.262 4.567a.424.424 0 01-.29-.115.436.436 0 01-.137-.285L59.542.468a.442.442 0 01.233-.422.424.424 0 01.577.19.44.44 0 01.045.164l.293 3.693a.444.444 0 01-.103.316.431.431 0 01-.291.152l-.034.006zM49.487 9.293a.422.422 0 01-.214-.062L46.62 7.672a.644.644 0 01-.377-.57.467.467 0 01.259-.395c.275-.137.382-.188 3.239 1.821a.44.44 0 01.118.571.44.44 0 01-.371.194zm-7.632 11.646a.424.424 0 01-.288-.116.437.437 0 01.221-.746l3.42-.571a.423.423 0 01.317.077.444.444 0 01.098.606.432.432 0 01-.275.179l-3.42.57h-.072zM69.033 7.187a.396.396 0 01-.247-.086.425.425 0 01-.177-.28.432.432 0 01.076-.325l1.98-2.803a.432.432 0 01.278-.176.423.423 0 01.434.2.44.44 0 01-.015.484l-1.98 2.803a.423.423 0 01-.349.183zm6.272 21.384a.44.44 0 01-.281-.103l-2.48-2.209a.442.442 0 01-.04-.616.425.425 0 01.602-.04l2.497 2.209a.436.436 0 01-.11.724.435.435 0 01-.188.035z" fill="#000"/></g><defs><clipPath id="a"><path fill="#fff" d="M0 0h80v62H0z"/></clipPath></defs></svg>