<svg width="80" height="44" fill="none" xmlns="http://www.w3.org/2000/svg"><g clip-path="url(#a)"><path d="M15.661 10.1c-2.951 8.148-5.902 16.315-7.87 24.866 1.52.507 3.101.807 4.702.891l1.816-6.287a.496.496 0 00-.202-.087 6.97 6.97 0 013.207 1.685 19.304 19.304 0 012.533 2.883 2.82 2.82 0 00.513 1.67c.345.49.837.86 1.406 1.057a3.943 3.943 0 003.482-.54 4.08 4.08 0 000 1.582c.042.226.114.446.217.653.249.428.627.77 1.082.974a3.97 3.97 0 002.489.345c-.01.499.14.987.428 1.396.288.408.7.716 1.175.879a4.38 4.38 0 002.972-.185c.122.363.324.695.59.974.332.266.739.425 1.166.452 1.05.083 2.1-.179 2.985-.745a3.748 3.748 0 003.4.054 2.61 2.61 0 00.747-.536c.408-.477.64-1.079.654-1.704a14.985 14.985 0 00-.108-1.866 7.773 7.773 0 001.746 1.608 3.014 3.014 0 002.292.428 2.702 2.702 0 001.535-1.183 4.11 4.11 0 00.585-1.948c.258.419.54.822.846 1.208.275.373.607.702.984.973.381.275.85.404 1.319.366a2.11 2.11 0 00.962-.45 2.08 2.08 0 00.617-.86 6.073 6.073 0 00.373-2.1c.032-.414.042-.83.03-1.246.356.715.778 1.396 1.26 2.036a4.36 4.36 0 001.942 1.431c.187.064.379.112.57.161a1.173 1.173 0 00.935-.034.92.92 0 00.33-.667 1.806 1.806 0 01.162-.77 114.795 114.795 0 008.47-3.555c.263 1.005.591 1.99.984 2.952a25.655 25.655 0 005.903-2.148 26.56 26.56 0 004.688-2.206c-.236-8.07-1.623-16.246-5.347-23.425a5.218 5.218 0 00-.876-1.29 86.367 86.367 0 00-11.884 5.138c.124.191.197.41.212.638-3.965.277-7.87-1.047-11.59-2.357-1.17-.471-2.4-.782-3.654-.926a23.724 23.724 0 00-3.483.23 17.076 17.076 0 00-4.304-1.72 9.928 9.928 0 00-2.76-.453 9.58 9.58 0 00-2.532.448c-4.427 1.286-8.589 3.658-13.198 4.086.035-.307.069-.614.108-.92a.714.714 0 00-.059-.487 17.765 17.765 0 00-4.55-1.369z" fill="#fff"/><path d="M6.245 7.1c3.207 1.067 6.449 2.036 9.543 2.952-.492 2.118-1.81 3.95-2.686 5.946a31.036 31.036 0 00-1.146 3.268 628.353 628.353 0 00-4.58 15.583A50.48 50.48 0 00-.77 32.843C2.054 24.145 4.602 15.793 6.245 7.1z" fill="#ACD4F7"/><path d="M66.826 32.833c-.5.15-.993.325-1.475.526a1.445 1.445 0 00-.325 0 3.616 3.616 0 00-.703.234c-.251.083-.492.165-.738.268a5.045 5.045 0 01-.492.175l-.089.03-.216.067h-.133l-.147-.034a3.477 3.477 0 01-.29-.311c-.124-.156 0 0 .058.078a3.9 3.9 0 00-.255-.307.593.593 0 00-.07-.078c-.083-.117-.157-.239-.235-.356a16.06 16.06 0 01-.871-1.46c-.56-1.082-1.077-2.182-1.677-3.244a20.327 20.327 0 00-1.078-2.143 23.564 23.564 0 00-4.333-5.02 18.455 18.455 0 00-3.99-3.015 7.866 7.866 0 00-3.172-1.154.547.547 0 00-.612.215.535.535 0 00.445.832 5.773 5.773 0 012.41.857.57.57 0 00.133.628c.802.687 1.721 1.213 2.553 1.86-.04-.024.423.36.492.458.068.098.191.19.285.287a.366.366 0 00-.118.278c.054.346.442.745.615 1.067.914 1.378 1.967 2.663 2.769 4.13a19.29 19.29 0 012.12 6.695c.182.848.28 2.392 0 2.83l-.074.078-.059.034-.103.039h-.374c-.31-.078-.143 0-.61-.258a.631.631 0 00-.856.224.614.614 0 00.227.847c1.77 1.266 3.01.813 3.364-.896a8.977 8.977 0 00-.128-3.117c.054.156.108.312.158.487.103.609.187 1.189.27 1.7l-.04.049a.657.657 0 00.232.89.585.585 0 00.625.23.523.523 0 00.364-.331 36.794 36.794 0 005.661-2.625c.242-.17.5-.314.773-.429.193-.064.364-.183.492-.34a.932.932 0 00.236-.225c.334-.696-.473-1.037-1.019-.75zm12.386-1.977c-.1 0-.199.022-.29.063-.453.132-.856.42-1.299.58-.782.375-1.087.443-2.14.945-1.81.95-4.815 1.884-6.428 2.551a.846.846 0 00-.512.394.83.83 0 00.316 1.143c.195.11.427.139.643.08 1.697-.545 3.296-1.33 4.919-2.02.86-.395 2.504-.975 3.861-1.642.635-.326 1.427-.716 1.506-.91a.732.732 0 00-.188-1.068.747.747 0 00-.388-.116zM19.294 13.602c-.688 2.435-1.898 4.276-2.788 6.988-.54 1.582-.966 3.2-1.274 4.84a33.441 33.441 0 00-.492 2.197 5.625 5.625 0 00-.187 1.977 1.116 1.116 0 00.574.691 1.137 1.137 0 00.901.054c.37.385.763.75 1.156 1.11v-.048c-.032-.73-.027-1.462.015-2.191a5.341 5.341 0 01-.246-1.262c.153-.798.344-1.592.443-2.405a42.92 42.92 0 011.967-7.641c.256-.745.453-1.51.782-2.226.232-.648.615-1.31.615-2.006a.771.771 0 00-1.466-.078zm.779 19.952a.36.36 0 01-.364.273.58.58 0 00.433.058.532.532 0 00.388-.54l-.457.209z" fill="#000" opacity=".13"/><path d="M14.563 29.605c0-.098-.03-.195-.04-.293 0 .099.014.197.04.293zm10.065 5.945c-.29.195-.684.132-1.442.122a7.979 7.979 0 01-1.711-.19c-.37-.082-.714-.365-1.102-.316a.681.681 0 00-.407.207.668.668 0 00.318 1.108 10.08 10.08 0 001.555.487c.442.136.91.168 1.367.092a5.87 5.87 0 001.614-.628c.206-.131.491-.234.56-.487a.434.434 0 00-.226-.478.446.446 0 00-.526.084zm7.678.975c-.251.082-.305.219-.699.428a6.058 6.058 0 01-2.18.706 7.247 7.247 0 01-2.026.273 6.664 6.664 0 01-1.033-.044 1.803 1.803 0 00-.678-.078.854.854 0 00-.496.26.839.839 0 00.368 1.377c2.238.642 4.082 0 5.666-.974.49-.274.947-.6 1.363-.974.221-.244.28-.2.33-.54a.483.483 0 00-.206-.36.492.492 0 00-.41-.074zm9.404 4.572c-.492.064-.354.122-.605.195-.298.136-.61.24-.93.312-.491.083-.467.078-.59.093a.528.528 0 00.099-.424.602.602 0 00-.202-.384.613.613 0 00-.408-.152c-.37 0-.65.322-.984.453-.477.23-.97.423-1.476.58a6.051 6.051 0 01-1.672.243c-.32 0-.635-.22-.93-.253a10.47 10.47 0 001.663-.852 8.737 8.737 0 001.662-1.335.521.521 0 00.177-.385.483.483 0 00-.25-.433.495.495 0 00-.62.078c.034 0 .118-.093.069-.058-.251.155-.492.306-.758.452a13.034 13.034 0 01-4.648 1.68 4.223 4.223 0 01-.896.04h-.078a3.27 3.27 0 00-.68-.103.496.496 0 00-.356.12.486.486 0 00.293.854c.474.186.97.31 1.476.37.53.035 1.064.01 1.588-.078.282-.021.56-.07.832-.146a.638.638 0 00-.165.518.635.635 0 00.297.456 4.777 4.777 0 004.167-.083 4.91 4.91 0 00.718-.35.776.776 0 00.225.562.792.792 0 00.562.237c.851-.108 1.766-.151 2.46-.663.216-.16.491-.297.59-.565a.699.699 0 00-.303-.885.72.72 0 00-.327-.094zm6.868-3.111c-.521.263-.393.311-.733.52a2.27 2.27 0 01-1.16.488 2.208 2.208 0 01-.753.087h-.182l-.207-.044c-.438-.068-.895-.39-1.318-.136a.752.752 0 00-.352.733.746.746 0 00.529.621 5.151 5.151 0 001.756.292 4.283 4.283 0 002.017-.701 9.6 9.6 0 00.821-.653.792.792 0 00.374-.608.622.622 0 00-.25-.49.637.637 0 00-.542-.11zm5.908-2.07a.712.712 0 00-.521-.697h-.05a6.903 6.903 0 00-.132-1.743 12.604 12.604 0 00-1.112-2.479 9.045 9.045 0 00-1.476-2.381.44.44 0 00-.703.34c0 .298.295.488.433.756a9.331 9.331 0 011.392 3.258 7.28 7.28 0 01.393 3.501v.054c0 .063-.024.131-.039.194a.885.885 0 01-.04.137 6.202 6.202 0 01-.23.35c-.08.112-.31.366-.429.487l-.078.044a2.312 2.312 0 01-1.018-.185c-.177-.068-.212-.087 0 0a6.437 6.437 0 00-.915-.375.699.699 0 00-.733.458.68.68 0 00.29.808c.226.113.492.224.698.322a.818.818 0 00.409.58l.167.077a.726.726 0 00.566.672c.305.108.633.141.954.098a2.3 2.3 0 00.369-.132c.339-.11.624-.343.797-.652a.628.628 0 00.034-.487.742.742 0 00.207-.458c.315-.434.536-.928.649-1.451.069-.352.108-.709.118-1.067v-.048.019z" fill="#000" opacity=".13"/><path d="M12.242 36.267h-.069c-2.312-.42-4.702-.848-7.058-1.462a28.082 28.082 0 00-2.73-.715 27.852 27.852 0 01-3.134-.862.375.375 0 01-.289-.328.366.366 0 01.226-.374.377.377 0 01.304.005c1.002.328 2.022.6 3.055.813.91.205 1.85.414 2.78.721 2.188.594 4.426 1.008 6.63 1.403.944-3.784 2.228-7.48 3.473-11.06.738-2.123 1.5-4.324 2.198-6.545a.065.065 0 010-.03c.232-.574.492-1.144.729-1.69a20.517 20.517 0 001.598-4.504.216.216 0 00-.054-.044.398.398 0 01-.128 0 62.957 62.957 0 00-6.257-1.904 55.58 55.58 0 01-7.432-2.328.37.37 0 01.007-.69.38.38 0 01.288.004 54.642 54.642 0 007.33 2.298 63.67 63.67 0 016.28 1.885c.194.027.371.12.503.264a.823.823 0 01.216.588 20.837 20.837 0 01-1.648 4.729c-.236.54-.492 1.096-.713 1.656-.699 2.23-1.476 4.426-2.2 6.555-1.337 3.837-2.596 7.46-3.536 11.327a.38.38 0 01-.369.288z" fill="#000"/><path d="M7.494 35.064h-.089a.379.379 0 01-.232-.17.371.371 0 01-.043-.283 172.254 172.254 0 018.318-24.783.382.382 0 01.613-.114.37.37 0 01.076.406A171.484 171.484 0 007.853 34.8a.37.37 0 01-.359.264zm61.429 2.284a.363.363 0 01-.173-.044.344.344 0 01-.186-.224c-1.476-5.075-3.07-10.15-4.737-15.516-.861-2.77-1.752-5.64-2.642-8.542a.362.362 0 01.182-.433 80.03 80.03 0 0111.865-5.172.377.377 0 01.491.229.371.371 0 01-.23.487 79.293 79.293 0 00-11.486 4.977c.855 2.8 1.716 5.571 2.553 8.25 1.628 5.24 3.167 10.192 4.623 15.15a121.657 121.657 0 0010.296-4.193.38.38 0 01.499.178.367.367 0 01-.18.494 137.457 137.457 0 01-10.752 4.334.364.364 0 01-.123.025z" fill="#000"/><path d="M73.429 35.405a.376.376 0 01-.36-.273 380.48 380.48 0 00-7.412-24.306.371.371 0 01.236-.487.378.378 0 01.418.102.37.37 0 01.074.132 378.73 378.73 0 017.427 24.35.372.372 0 01-.265.457l-.118.025zM31.956 24.35a2.609 2.609 0 01-1.333-.306 2.576 2.576 0 01-.989-.936c-.806-1.549.709-3.287 1.21-3.857 2.057-2.362 4.182-4.802 6.828-6.643 2.98-2.074 6.242-3.014 9.174-2.644a19.54 19.54 0 014.294 1.237c.448.16.905.331 1.358.487a29.18 29.18 0 008.972 1.534.374.374 0 01.264.11.364.364 0 01.105.265.358.358 0 01-.234.342.368.368 0 01-.145.023 29.781 29.781 0 01-9.164-1.578c-.462-.155-.925-.326-1.377-.487a19.14 19.14 0 00-4.167-1.183c-2.75-.346-5.824.545-8.652 2.518-2.568 1.787-4.663 4.193-6.69 6.516-1.131 1.3-1.475 2.293-1.107 3.038a1.895 1.895 0 001.78.833 5.974 5.974 0 002.224-.73l1.55-.765c3.148-1.553 6.124-3.02 8.952-4.991a.377.377 0 01.45.123.367.367 0 01-.022.46c-2.867 2.002-5.868 3.483-9.046 5.046l-1.544.765a6.63 6.63 0 01-2.514.823h-.177zm27.709 13.529a.366.366 0 01-.345-.23.361.361 0 01.079-.407.37.37 0 01.123-.08c2.696-1.1 5.41-2.244 8.087-3.408a.377.377 0 01.492.19.371.371 0 01-.192.487 557.357 557.357 0 01-8.102 3.409.35.35 0 01-.142.038z" fill="#000"/><path d="M58.623 39.369h-.217a4.912 4.912 0 01-1.926-.761 4.857 4.857 0 01-1.433-1.484 15.066 15.066 0 01-1.348-2.645c-.118-.282-.236-.565-.364-.842a22.457 22.457 0 00-4.088-6.127.367.367 0 01.066-.476.376.376 0 01.485-.01 23.242 23.242 0 014.22 6.33c.129.283.252.57.374.857.34.878.767 1.72 1.274 2.513a4.132 4.132 0 002.819 1.948.67.67 0 00.32 0c.093-.058.138-.253.128-.58a22.61 22.61 0 00-4.028-12.168 22.946 22.946 0 00-10.026-8.09.377.377 0 01-.23-.345.368.368 0 01.233-.343.379.379 0 01.288.001 23.692 23.692 0 0110.358 8.363 23.344 23.344 0 014.152 12.578 1.321 1.321 0 01-.492 1.227c-.18.07-.375.088-.565.054zm-18.711 4.066a3.105 3.105 0 01-1.924-.614.37.37 0 01-.083-.516.384.384 0 01.526-.083c.515.386 1.16.56 1.8.487h.054a3.027 3.027 0 002.081-.974 1.41 1.41 0 00.37-1.08V40.6c-.01-.74-.08-1.478-.207-2.206a.367.367 0 01.207-.397.377.377 0 01.442.09 8.712 8.712 0 001.869 1.685 2.691 2.691 0 002.218.336c.88-.322 1.786-1.841 1.584-2.664a.368.368 0 01.276-.448.378.378 0 01.452.273c.315 1.295-.91 3.121-2.056 3.535a3.413 3.413 0 01-2.858-.394 6.959 6.959 0 01-1.24-.974c.042.382.064.765.065 1.15a2.105 2.105 0 01-.541 1.63 3.813 3.813 0 01-2.627 1.208h-.054l-.354.01z" fill="#000"/><path d="M52.237 40.42a2.51 2.51 0 01-.89-.19c-1.417-.54-2.165-2.07-2.893-3.55-.492-1.022-1.028-2.079-1.736-2.707a.368.368 0 01.228-.63.376.376 0 01.264.075c.821.725 1.377 1.85 1.913 2.922.694 1.407 1.348 2.741 2.49 3.18.491.19 1.101.423 1.913-.935.201-.402.309-.843.315-1.291a11.24 11.24 0 00-.537-3.501c-.049-.176-.093-.351-.137-.526a.369.369 0 01.27-.453.38.38 0 01.285.04c.086.05.148.132.173.227l.133.526c.388 1.208.576 2.47.555 3.736a3.608 3.608 0 01-.418 1.617c-.654 1.11-1.318 1.46-1.928 1.46zm-24.357-.243h-.104a3.092 3.092 0 01-1.802-.533 3.043 3.043 0 01-1.15-1.473 3.073 3.073 0 01-.068-1.3 3.81 3.81 0 01-2.622.486 3.49 3.49 0 01-1.807-.922 3.433 3.433 0 01-.977-1.766 1.06 1.06 0 01.246-.974.368.368 0 01.406-.08.368.368 0 01.12.08.37.37 0 01.082.406.37.37 0 01-.082.12c-.034.034-.059.146 0 .35.111.523.378 1 .765 1.37.388.371.879.618 1.41.71a2.98 2.98 0 001.532-.161 2.95 2.95 0 001.242-.905.384.384 0 01.438-.122c.132-.068.255-.117.339-.151a16.37 16.37 0 014.673-1.057c1.289-.097 2.15.21 2.548.916.202.377.273.81.202 1.232a3.156 3.156 0 01-.758 1.675 5.21 5.21 0 01-1.392 1.052 6.845 6.845 0 01-3.241 1.047zm-2.234-3.896c-.18.54-.21 1.12-.083 1.675.275.94 1.343 1.461 2.253 1.461a5.942 5.942 0 002.95-.974 4.427 4.427 0 001.191-.852c.318-.36.52-.806.58-1.28a1.312 1.312 0 00-.088-.76c-.31-.54-1.17-.59-1.84-.54a15.774 15.774 0 00-4.461 1.007 1.481 1.481 0 00-.502.263z" fill="#000"/><path d="M31.548 42.68a3.207 3.207 0 01-1.598-.404 2.826 2.826 0 01-1.058-1.124 2.792 2.792 0 01-.305-1.506.37.37 0 01.262-.32.38.38 0 01.4.117.371.371 0 01.086.271c-.03.379.046.758.22 1.096.173.339.438.623.763.823a2.836 2.836 0 002.366.102 8.38 8.38 0 002.253-1.368c1.023-.794 1.968-1.685 2.071-2.805a.539.539 0 000-.22.519.519 0 00-.207-.18 2.839 2.839 0 00-2.06-.228 8.03 8.03 0 00-1.924.784l-.108.058a.378.378 0 01-.547-.3.37.37 0 01.203-.362l.108-.054a8.65 8.65 0 012.1-.847 3.583 3.583 0 012.612.312c.214.121.386.305.492.526.073.18.098.376.074.57-.108 1.407-1.2 2.434-2.356 3.33a9.044 9.044 0 01-2.46 1.461c-.443.169-.912.26-1.387.268z" fill="#000"/><path d="M35.92 43.737a3.555 3.555 0 01-1.549-.355 1.748 1.748 0 01-.775-.61 1.722 1.722 0 01-.317-.93.386.386 0 01.398-.35.377.377 0 01.331.25.368.368 0 01.019.145c0 .355.354.667.679.827a2.758 2.758 0 001.662.244 4.985 4.985 0 002.302-1.276c.719-.614 1.029-1.125.984-1.602a1.265 1.265 0 00-.44-.692 1.287 1.287 0 00-.775-.282c-.64.01-1.253.254-1.721.686a.377.377 0 01-.527-.063.369.369 0 01.064-.521 3.404 3.404 0 012.224-.843c.456.017.894.185 1.242.479.349.293.587.694.676 1.138.123.974-.64 1.758-1.22 2.255a5.737 5.737 0 01-2.666 1.461c-.195.03-.393.044-.59.039zM25.43 35.94a.377.377 0 01-.369-.306c-.133-.76-.984-1.218-1.476-1.422-1.431-.595-2.676-.575-3.699.058a.372.372 0 01-.492-.098 12.835 12.835 0 00-5.307-4.324.374.374 0 01-.257-.349.366.366 0 01.12-.274.375.375 0 01.432-.054 13.42 13.42 0 015.41 4.3c1.176-.604 2.549-.584 4.084.059 1.092.453 1.77 1.154 1.913 1.977a.372.372 0 01-.305.428l-.054.005zm-5.417-22.592a.376.376 0 01-.37-.328.367.367 0 01.286-.402 95.447 95.447 0 0011.137-3.409l.28-.102a16.097 16.097 0 013.783-1.038c3.035-.336 5.834.974 8.303 2.1a.372.372 0 01.182.491.378.378 0 01-.497.18c-2.38-1.1-5.081-2.332-7.91-2.025-1.234.183-2.443.51-3.6.974l-.285.102a96.924 96.924 0 01-11.22 3.409l-.09.048zM27.44 6.92a.381.381 0 01-.355-.27.371.371 0 01.154-.416 19.828 19.828 0 0111.515-2.956.372.372 0 01.33.246.363.363 0 01.02.143.362.362 0 01-.25.332.373.373 0 01-.144.019 18.99 18.99 0 00-11.068 2.844.387.387 0 01-.202.058zm-2.345-3.623a.387.387 0 01-.315-.17.367.367 0 01.109-.487A18.27 18.27 0 0131.579 0a.382.382 0 01.432.302.372.372 0 01-.064.276.38.38 0 01-.24.153 17.57 17.57 0 00-6.395 2.498.352.352 0 01-.217.068zM49.06 44a.376.376 0 01-.262-.105.369.369 0 01-.009-.52.385.385 0 01.26-.12 10.01 10.01 0 005.997-2.23.382.382 0 01.536.043.374.374 0 01-.044.531A10.807 10.807 0 0149.088 44h-.029z" fill="#000"/><path d="M6.245 7.1c3.207 1.067 6.449 2.036 9.543 2.952-.492 2.118-1.81 3.95-2.686 5.946a31.036 31.036 0 00-1.146 3.268 628.353 628.353 0 00-4.58 15.583A50.48 50.48 0 00-.77 32.843C2.054 24.145 4.602 15.793 6.245 7.1z" fill="#FCFCFC"/><path d="M66.826 32.833c-.5.15-.993.325-1.475.526a1.445 1.445 0 00-.325 0 3.616 3.616 0 00-.703.234c-.251.083-.492.165-.738.268a5.045 5.045 0 01-.492.175l-.089.03-.216.067h-.133l-.147-.034a3.477 3.477 0 01-.29-.311c-.124-.156 0 0 .058.078a3.9 3.9 0 00-.255-.307.593.593 0 00-.07-.078c-.083-.117-.157-.239-.235-.356a16.06 16.06 0 01-.871-1.46c-.56-1.082-1.077-2.182-1.677-3.244a20.327 20.327 0 00-1.078-2.143 23.564 23.564 0 00-4.333-5.02 18.455 18.455 0 00-3.99-3.015 7.866 7.866 0 00-3.172-1.154.547.547 0 00-.612.215.535.535 0 00.445.832 5.773 5.773 0 012.41.857.57.57 0 00.133.628c.802.687 1.721 1.213 2.553 1.86-.04-.024.423.36.492.458.068.098.191.19.285.287a.366.366 0 00-.118.278c.054.346.442.745.615 1.067.914 1.378 1.967 2.663 2.769 4.13a19.29 19.29 0 012.12 6.695c.182.848.28 2.392 0 2.83l-.074.078-.059.034-.103.039h-.374c-.31-.078-.143 0-.61-.258a.631.631 0 00-.856.224.614.614 0 00.227.847c1.77 1.266 3.01.813 3.364-.896a8.977 8.977 0 00-.128-3.117c.054.156.108.312.158.487.103.609.187 1.189.27 1.7l-.04.049a.657.657 0 00.232.89.585.585 0 00.625.23.523.523 0 00.364-.331 36.794 36.794 0 005.661-2.625c.242-.17.5-.314.773-.429.193-.064.364-.183.492-.34a.932.932 0 00.236-.225c.334-.696-.473-1.037-1.019-.75zm12.386-1.977c-.1 0-.199.022-.29.063-.453.132-.856.42-1.299.58-.782.375-1.087.443-2.14.945-1.81.95-4.815 1.884-6.428 2.551a.846.846 0 00-.512.394.83.83 0 00.316 1.143c.195.11.427.139.643.08 1.697-.545 3.296-1.33 4.919-2.02.86-.395 2.504-.975 3.861-1.642.635-.326 1.427-.716 1.506-.91a.732.732 0 00-.188-1.068.747.747 0 00-.388-.116zM19.294 13.602c-.688 2.435-1.898 4.276-2.788 6.988-.54 1.582-.966 3.2-1.274 4.84a33.441 33.441 0 00-.492 2.197 5.625 5.625 0 00-.187 1.977 1.116 1.116 0 00.574.691 1.137 1.137 0 00.901.054c.37.385.763.75 1.156 1.11v-.048c-.032-.73-.027-1.462.015-2.191a5.341 5.341 0 01-.246-1.262c.153-.798.344-1.592.443-2.405a42.92 42.92 0 011.967-7.641c.256-.745.453-1.51.782-2.226.232-.648.615-1.31.615-2.006a.771.771 0 00-1.466-.078zm.779 19.952a.36.36 0 01-.364.273.58.58 0 00.433.058.532.532 0 00.388-.54l-.457.209z" fill="#000" opacity=".13"/><path d="M14.563 29.605c0-.098-.03-.195-.04-.293 0 .099.014.197.04.293zm10.065 5.945c-.29.195-.684.132-1.442.122a7.979 7.979 0 01-1.711-.19c-.37-.082-.714-.365-1.102-.316a.681.681 0 00-.407.207.668.668 0 00.318 1.108 10.08 10.08 0 001.555.487c.442.136.91.168 1.367.092a5.87 5.87 0 001.614-.628c.206-.131.491-.234.56-.487a.434.434 0 00-.226-.478.446.446 0 00-.526.084zm7.678.975c-.251.082-.305.219-.699.428a6.058 6.058 0 01-2.18.706 7.247 7.247 0 01-2.026.273 6.664 6.664 0 01-1.033-.044 1.803 1.803 0 00-.678-.078.854.854 0 00-.496.26.839.839 0 00.368 1.377c2.238.642 4.082 0 5.666-.974.49-.274.947-.6 1.363-.974.221-.244.28-.2.33-.54a.483.483 0 00-.206-.36.492.492 0 00-.41-.074zm9.404 4.572c-.492.064-.354.122-.605.195-.298.136-.61.24-.93.312-.491.083-.467.078-.59.093a.528.528 0 00.099-.424.602.602 0 00-.202-.384.613.613 0 00-.408-.152c-.37 0-.65.322-.984.453-.477.23-.97.423-1.476.58a6.051 6.051 0 01-1.672.243c-.32 0-.635-.22-.93-.253a10.47 10.47 0 001.663-.852 8.737 8.737 0 001.662-1.335.521.521 0 00.177-.385.483.483 0 00-.25-.433.495.495 0 00-.62.078c.034 0 .118-.093.069-.058-.251.155-.492.306-.758.452a13.034 13.034 0 01-4.648 1.68 4.223 4.223 0 01-.896.04h-.078a3.27 3.27 0 00-.68-.103.496.496 0 00-.356.12.486.486 0 00.293.854c.474.186.97.31 1.476.37.53.035 1.064.01 1.588-.078.282-.021.56-.07.832-.146a.638.638 0 00-.165.518.635.635 0 00.297.456 4.777 4.777 0 004.167-.083 4.91 4.91 0 00.718-.35.776.776 0 00.225.562.792.792 0 00.562.237c.851-.108 1.766-.151 2.46-.663.216-.16.491-.297.59-.565a.699.699 0 00-.303-.885.72.72 0 00-.327-.094zm6.868-3.111c-.521.263-.393.311-.733.52a2.27 2.27 0 01-1.16.488 2.208 2.208 0 01-.753.087h-.182l-.207-.044c-.438-.068-.895-.39-1.318-.136a.752.752 0 00-.352.733.746.746 0 00.529.621 5.151 5.151 0 001.756.292 4.283 4.283 0 002.017-.701 9.6 9.6 0 00.821-.653.792.792 0 00.374-.608.622.622 0 00-.25-.49.637.637 0 00-.542-.11zm5.908-2.07a.712.712 0 00-.521-.697h-.05a6.903 6.903 0 00-.132-1.743 12.604 12.604 0 00-1.112-2.479 9.045 9.045 0 00-1.476-2.381.44.44 0 00-.703.34c0 .298.295.488.433.756a9.331 9.331 0 011.392 3.258 7.28 7.28 0 01.393 3.501v.054c0 .063-.024.131-.039.194a.885.885 0 01-.04.137 6.202 6.202 0 01-.23.35c-.08.112-.31.366-.429.487l-.078.044a2.312 2.312 0 01-1.018-.185c-.177-.068-.212-.087 0 0a6.437 6.437 0 00-.915-.375.699.699 0 00-.733.458.68.68 0 00.29.808c.226.113.492.224.698.322a.818.818 0 00.409.58l.167.077a.726.726 0 00.566.672c.305.108.633.141.954.098a2.3 2.3 0 00.369-.132c.339-.11.624-.343.797-.652a.628.628 0 00.034-.487.742.742 0 00.207-.458c.315-.434.536-.928.649-1.451.069-.352.108-.709.118-1.067v-.048.019z" fill="#000" opacity=".13"/><path d="M12.242 36.267h-.069c-2.312-.42-4.702-.848-7.058-1.462a28.082 28.082 0 00-2.73-.715 27.852 27.852 0 01-3.134-.862.375.375 0 01-.289-.328.366.366 0 01.226-.374.377.377 0 01.304.005c1.002.328 2.022.6 3.055.813.91.205 1.85.414 2.78.721 2.188.594 4.426 1.008 6.63 1.403.944-3.784 2.228-7.48 3.473-11.06.738-2.123 1.5-4.324 2.198-6.545a.065.065 0 010-.03c.232-.574.492-1.144.729-1.69a20.517 20.517 0 001.598-4.504.216.216 0 00-.054-.044.398.398 0 01-.128 0 62.957 62.957 0 00-6.257-1.904 55.58 55.58 0 01-7.432-2.328.37.37 0 01.007-.69.38.38 0 01.288.004 54.642 54.642 0 007.33 2.298 63.67 63.67 0 016.28 1.885c.194.027.371.12.503.264a.823.823 0 01.216.588 20.837 20.837 0 01-1.648 4.729c-.236.54-.492 1.096-.713 1.656-.699 2.23-1.476 4.426-2.2 6.555-1.337 3.837-2.596 7.46-3.536 11.327a.38.38 0 01-.369.288z" fill="#000"/><path d="M7.494 35.064h-.089a.379.379 0 01-.232-.17.371.371 0 01-.043-.283 172.254 172.254 0 018.318-24.783.382.382 0 01.613-.114.37.37 0 01.076.406A171.484 171.484 0 007.853 34.8a.37.37 0 01-.359.264zm61.429 2.284a.363.363 0 01-.173-.044.344.344 0 01-.186-.224c-1.476-5.075-3.07-10.15-4.737-15.516-.861-2.77-1.752-5.64-2.642-8.542a.362.362 0 01.182-.433 80.03 80.03 0 0111.865-5.172.377.377 0 01.491.229.371.371 0 01-.23.487 79.293 79.293 0 00-11.486 4.977c.855 2.8 1.716 5.571 2.553 8.25 1.628 5.24 3.167 10.192 4.623 15.15a121.657 121.657 0 0010.296-4.193.38.38 0 01.499.178.367.367 0 01-.18.494 137.457 137.457 0 01-10.752 4.334.364.364 0 01-.123.025z" fill="#000"/><path d="M73.429 35.405a.376.376 0 01-.36-.273 380.48 380.48 0 00-7.412-24.306.371.371 0 01.236-.487.378.378 0 01.418.102.37.37 0 01.074.132 378.73 378.73 0 017.427 24.35.372.372 0 01-.265.457l-.118.025zM31.956 24.35a2.609 2.609 0 01-1.333-.306 2.576 2.576 0 01-.989-.936c-.806-1.549.709-3.287 1.21-3.857 2.057-2.362 4.182-4.802 6.828-6.643 2.98-2.074 6.242-3.014 9.174-2.644a19.54 19.54 0 014.294 1.237c.448.16.905.331 1.358.487a29.18 29.18 0 008.972 1.534.374.374 0 01.264.11.364.364 0 01.105.265.358.358 0 01-.234.342.368.368 0 01-.145.023 29.781 29.781 0 01-9.164-1.578c-.462-.155-.925-.326-1.377-.487a19.14 19.14 0 00-4.167-1.183c-2.75-.346-5.824.545-8.652 2.518-2.568 1.787-4.663 4.193-6.69 6.516-1.131 1.3-1.475 2.293-1.107 3.038a1.895 1.895 0 001.78.833 5.974 5.974 0 002.224-.73l1.55-.765c3.148-1.553 6.124-3.02 8.952-4.991a.377.377 0 01.45.123.367.367 0 01-.022.46c-2.867 2.002-5.868 3.483-9.046 5.046l-1.544.765a6.63 6.63 0 01-2.514.823h-.177zm27.709 13.529a.366.366 0 01-.345-.23.361.361 0 01.079-.407.37.37 0 01.123-.08c2.696-1.1 5.41-2.244 8.087-3.408a.377.377 0 01.492.19.371.371 0 01-.192.487 557.357 557.357 0 01-8.102 3.409.35.35 0 01-.142.038z" fill="#000"/><path d="M58.623 39.369h-.217a4.912 4.912 0 01-1.926-.761 4.857 4.857 0 01-1.433-1.484 15.066 15.066 0 01-1.348-2.645c-.118-.282-.236-.565-.364-.842a22.457 22.457 0 00-4.088-6.127.367.367 0 01.066-.476.376.376 0 01.485-.01 23.242 23.242 0 014.22 6.33c.129.283.252.57.374.857.34.878.767 1.72 1.274 2.513a4.132 4.132 0 002.819 1.948.67.67 0 00.32 0c.093-.058.138-.253.128-.58a22.61 22.61 0 00-4.028-12.168 22.946 22.946 0 00-10.026-8.09.377.377 0 01-.23-.345.368.368 0 01.233-.343.379.379 0 01.288.001 23.692 23.692 0 0110.358 8.363 23.344 23.344 0 014.152 12.578 1.321 1.321 0 01-.492 1.227c-.18.07-.375.088-.565.054zm-18.711 4.066a3.105 3.105 0 01-1.924-.614.37.37 0 01-.083-.516.384.384 0 01.526-.083c.515.386 1.16.56 1.8.487h.054a3.027 3.027 0 002.081-.974 1.41 1.41 0 00.37-1.08V40.6c-.01-.74-.08-1.478-.207-2.206a.367.367 0 01.207-.397.377.377 0 01.442.09 8.712 8.712 0 001.869 1.685 2.691 2.691 0 002.218.336c.88-.322 1.786-1.841 1.584-2.664a.368.368 0 01.276-.448.378.378 0 01.452.273c.315 1.295-.91 3.121-2.056 3.535a3.413 3.413 0 01-2.858-.394 6.959 6.959 0 01-1.24-.974c.042.382.064.765.065 1.15a2.105 2.105 0 01-.541 1.63 3.813 3.813 0 01-2.627 1.208h-.054l-.354.01z" fill="#000"/><path d="M52.237 40.42a2.51 2.51 0 01-.89-.19c-1.417-.54-2.165-2.07-2.893-3.55-.492-1.022-1.028-2.079-1.736-2.707a.368.368 0 01.228-.63.376.376 0 01.264.075c.821.725 1.377 1.85 1.913 2.922.694 1.407 1.348 2.741 2.49 3.18.491.19 1.101.423 1.913-.935.201-.402.309-.843.315-1.291a11.24 11.24 0 00-.537-3.501c-.049-.176-.093-.351-.137-.526a.369.369 0 01.27-.453.38.38 0 01.285.04c.086.05.148.132.173.227l.133.526c.388 1.208.576 2.47.555 3.736a3.608 3.608 0 01-.418 1.617c-.654 1.11-1.318 1.46-1.928 1.46zm-24.357-.243h-.104a3.092 3.092 0 01-1.802-.533 3.043 3.043 0 01-1.15-1.473 3.073 3.073 0 01-.068-1.3 3.81 3.81 0 01-2.622.486 3.49 3.49 0 01-1.807-.922 3.433 3.433 0 01-.977-1.766 1.06 1.06 0 01.246-.974.368.368 0 01.406-.08.368.368 0 01.12.08.37.37 0 01.082.406.37.37 0 01-.082.12c-.034.034-.059.146 0 .35.111.523.378 1 .765 1.37.388.371.879.618 1.41.71a2.98 2.98 0 001.532-.161 2.95 2.95 0 001.242-.905.384.384 0 01.438-.122c.132-.068.255-.117.339-.151a16.37 16.37 0 014.673-1.057c1.289-.097 2.15.21 2.548.916.202.377.273.81.202 1.232a3.156 3.156 0 01-.758 1.675 5.21 5.21 0 01-1.392 1.052 6.845 6.845 0 01-3.241 1.047zm-2.234-3.896c-.18.54-.21 1.12-.083 1.675.275.94 1.343 1.461 2.253 1.461a5.942 5.942 0 002.95-.974 4.427 4.427 0 001.191-.852c.318-.36.52-.806.58-1.28a1.312 1.312 0 00-.088-.76c-.31-.54-1.17-.59-1.84-.54a15.774 15.774 0 00-4.461 1.007 1.481 1.481 0 00-.502.263z" fill="#000"/><path d="M31.548 42.68a3.207 3.207 0 01-1.598-.404 2.826 2.826 0 01-1.058-1.124 2.792 2.792 0 01-.305-1.506.37.37 0 01.262-.32.38.38 0 01.4.117.371.371 0 01.086.271c-.03.379.046.758.22 1.096.173.339.438.623.763.823a2.836 2.836 0 002.366.102 8.38 8.38 0 002.253-1.368c1.023-.794 1.968-1.685 2.071-2.805a.539.539 0 000-.22.519.519 0 00-.207-.18 2.839 2.839 0 00-2.06-.228 8.03 8.03 0 00-1.924.784l-.108.058a.378.378 0 01-.547-.3.37.37 0 01.203-.362l.108-.054a8.65 8.65 0 012.1-.847 3.583 3.583 0 012.612.312c.214.121.386.305.492.526.073.18.098.376.074.57-.108 1.407-1.2 2.434-2.356 3.33a9.044 9.044 0 01-2.46 1.461c-.443.169-.912.26-1.387.268z" fill="#000"/><path d="M35.92 43.737a3.555 3.555 0 01-1.549-.355 1.748 1.748 0 01-.775-.61 1.722 1.722 0 01-.317-.93.386.386 0 01.398-.35.377.377 0 01.331.25.368.368 0 01.019.145c0 .355.354.667.679.827a2.758 2.758 0 001.662.244 4.985 4.985 0 002.302-1.276c.719-.614 1.029-1.125.984-1.602a1.265 1.265 0 00-.44-.692 1.287 1.287 0 00-.775-.282c-.64.01-1.253.254-1.721.686a.377.377 0 01-.527-.063.369.369 0 01.064-.521 3.404 3.404 0 012.224-.843c.456.017.894.185 1.242.479.349.293.587.694.676 1.138.123.974-.64 1.758-1.22 2.255a5.737 5.737 0 01-2.666 1.461c-.195.03-.393.044-.59.039zM25.43 35.94a.377.377 0 01-.369-.306c-.133-.76-.984-1.218-1.476-1.422-1.431-.595-2.676-.575-3.699.058a.372.372 0 01-.492-.098 12.835 12.835 0 00-5.307-4.324.374.374 0 01-.257-.349.366.366 0 01.12-.274.375.375 0 01.432-.054 13.42 13.42 0 015.41 4.3c1.176-.604 2.549-.584 4.084.059 1.092.453 1.77 1.154 1.913 1.977a.372.372 0 01-.305.428l-.054.005zm-5.417-22.592a.376.376 0 01-.37-.328.367.367 0 01.286-.402 95.447 95.447 0 0011.137-3.409l.28-.102a16.097 16.097 0 013.783-1.038c3.035-.336 5.834.974 8.303 2.1a.372.372 0 01.182.491.378.378 0 01-.497.18c-2.38-1.1-5.081-2.332-7.91-2.025-1.234.183-2.443.51-3.6.974l-.285.102a96.924 96.924 0 01-11.22 3.409l-.09.048zM27.44 6.92a.381.381 0 01-.355-.27.371.371 0 01.154-.416 19.828 19.828 0 0111.515-2.956.372.372 0 01.33.246.363.363 0 01.02.143.362.362 0 01-.25.332.373.373 0 01-.144.019 18.99 18.99 0 00-11.068 2.844.387.387 0 01-.202.058zm-2.345-3.623a.387.387 0 01-.315-.17.367.367 0 01.109-.487A18.27 18.27 0 0131.579 0a.382.382 0 01.432.302.372.372 0 01-.064.276.38.38 0 01-.24.153 17.57 17.57 0 00-6.395 2.498.352.352 0 01-.217.068zM49.06 44a.376.376 0 01-.262-.105.369.369 0 01-.009-.52.385.385 0 01.26-.12 10.01 10.01 0 005.997-2.23.382.382 0 01.536.043.374.374 0 01-.044.531A10.807 10.807 0 0149.088 44h-.029z" fill="#000"/></g><defs><clipPath id="a"><path fill="#fff" transform="translate(-1)" d="M0 0h81v44H0z"/></clipPath></defs></svg>