<svg width="18" height="14" viewBox="0 0 18 14" fill="none" xmlns="http://www.w3.org/2000/svg">
<path d="M10.6667 0.333313H7.33335C4.19066 0.333313 2.61931 0.333313 1.643 1.30962C0.940047 2.01257 0.743226 3.024 0.688117 4.70831H17.3119C17.2568 3.024 17.06 2.01257 16.357 1.30962C15.3807 0.333313 13.8094 0.333313 10.6667 0.333313Z" fill="#5565EC"/>
<path d="M7.33335 13.6666H10.6667C13.8094 13.6666 15.3807 13.6666 16.357 12.6903C17.3334 11.714 17.3334 10.1427 17.3334 6.99998C17.3334 6.6317 17.3334 6.285 17.3318 5.95831H0.668258C0.666687 6.285 0.666687 6.6317 0.666687 6.99998C0.666687 10.1427 0.666687 11.714 1.643 12.6903C2.61931 13.6666 4.19066 13.6666 7.33335 13.6666Z" fill="#5565EC"/>
<path fill-rule="evenodd" clip-rule="evenodd" d="M3.37502 10.3333C3.37502 9.98813 3.65484 9.70831 4.00002 9.70831H7.33335C7.67853 9.70831 7.95835 9.98813 7.95835 10.3333C7.95835 10.6785 7.67853 10.9583 7.33335 10.9583H4.00002C3.65484 10.9583 3.37502 10.6785 3.37502 10.3333Z" fill="white"/>
<path fill-rule="evenodd" clip-rule="evenodd" d="M8.79169 10.3333C8.79169 9.98813 9.07151 9.70831 9.41669 9.70831H10.6667C11.0119 9.70831 11.2917 9.98813 11.2917 10.3333C11.2917 10.6785 11.0119 10.9583 10.6667 10.9583H9.41669C9.07151 10.9583 8.79169 10.6785 8.79169 10.3333Z" fill="white"/>
</svg>
