<svg width="18" height="18" viewBox="0 0 18 18" fill="none" xmlns="http://www.w3.org/2000/svg">
<path fill-rule="evenodd" clip-rule="evenodd" d="M17.3334 8.99999C17.3334 12.9284 17.3334 14.8925 16.113 16.1129C14.8926 17.3333 12.9284 17.3333 9.00002 17.3333C5.07165 17.3333 3.10746 17.3333 1.88708 16.1129C0.666687 14.8925 0.666687 12.9284 0.666687 8.99999C0.666687 5.07162 0.666687 3.10743 1.88708 1.88705C3.10746 0.666656 5.07165 0.666656 9.00002 0.666656C12.9284 0.666656 14.8926 0.666656 16.113 1.88704C17.3334 3.10743 17.3334 5.07162 17.3334 8.99999ZM13.5455 4.75284C13.82 4.96204 13.873 5.3542 13.6638 5.62877L7.94955 13.1288C7.83576 13.2781 7.66087 13.3684 7.47322 13.3746C7.28557 13.3809 7.10505 13.3025 6.98158 13.161L4.36253 10.161C4.13552 9.901 4.16229 9.50618 4.42232 9.27917C4.68235 9.05216 5.07717 9.07893 5.30418 9.33895L7.41947 11.7619L12.6695 4.87121C12.8787 4.59665 13.2709 4.54365 13.5455 4.75284Z" fill="#5565EC"/>
</svg>
