<svg width="29" height="29" viewBox="0 0 29 29" fill="none" xmlns="http://www.w3.org/2000/svg">
<path fill-rule="evenodd" clip-rule="evenodd" d="M14.3333 0C14.8856 0 15.3333 0.447715 15.3333 1V3.66667C15.3333 4.21895 14.8856 4.66667 14.3333 4.66667C13.781 4.66667 13.3333 4.21895 13.3333 3.66667V1C13.3333 0.447715 13.781 0 14.3333 0ZM23.0406 5.62607C23.4311 6.0166 23.4311 6.64976 23.0406 7.04028L22.5829 7.49797C22.1924 7.88849 21.5592 7.88849 21.1687 7.49797C20.7782 7.10744 20.7782 6.47428 21.1687 6.08375L21.6264 5.62607C22.0169 5.23555 22.6501 5.23555 23.0406 5.62607ZM5.62623 5.62623C6.01675 5.2357 6.64992 5.2357 7.04044 5.62623L7.49812 6.08391C7.88865 6.47443 7.88865 7.1076 7.49812 7.49812C7.1076 7.88865 6.47443 7.88865 6.08391 7.49812L5.62623 7.04044C5.2357 6.64992 5.2357 6.01675 5.62623 5.62623ZM0 14.3333C0 13.781 0.447715 13.3333 1 13.3333H3.66667C4.21895 13.3333 4.66667 13.781 4.66667 14.3333C4.66667 14.8856 4.21895 15.3333 3.66667 15.3333H1C0.447715 15.3333 0 14.8856 0 14.3333ZM24 14.3333C24 13.781 24.4477 13.3333 25 13.3333H27.6667C28.2189 13.3333 28.6667 13.781 28.6667 14.3333C28.6667 14.8856 28.2189 15.3333 27.6667 15.3333H25C24.4477 15.3333 24 14.8856 24 14.3333ZM7.49797 21.1687C7.88849 21.5592 7.88849 22.1924 7.49797 22.5829L7.04057 23.0403C6.65005 23.4308 6.01688 23.4308 5.62636 23.0403C5.23583 22.6498 5.23583 22.0166 5.62636 21.6261L6.08375 21.1687C6.47428 20.7782 7.10744 20.7782 7.49797 21.1687ZM21.1687 21.169C21.5592 20.7785 22.1924 20.7785 22.5829 21.169L23.0403 21.6264C23.4308 22.0169 23.4308 22.6501 23.0403 23.0406C22.6498 23.4311 22.0166 23.4311 21.6261 23.0406L21.1687 22.5832C20.7781 22.1927 20.7781 21.5595 21.1687 21.169ZM14.3333 24C14.8856 24 15.3333 24.4477 15.3333 25V27.6667C15.3333 28.2189 14.8856 28.6667 14.3333 28.6667C13.781 28.6667 13.3333 28.2189 13.3333 27.6667V25C13.3333 24.4477 13.781 24 14.3333 24Z" fill="#5565EC"/>
<path d="M12.4355 9.93888C13.28 8.42404 13.7022 7.66663 14.3334 7.66663C14.9647 7.66663 15.3869 8.42404 16.2313 9.93888L16.4498 10.3308C16.6897 10.7612 16.8097 10.9765 16.9968 11.1185C17.1839 11.2605 17.4168 11.3132 17.8828 11.4187L18.3071 11.5146C19.9468 11.8857 20.7667 12.0712 20.9618 12.6984C21.1569 13.3257 20.5979 13.9793 19.48 15.2866L19.1908 15.6248C18.8731 15.9962 18.7143 16.182 18.6428 16.4118C18.5714 16.6416 18.5954 16.8894 18.6434 17.385L18.6871 17.8362C18.8562 19.5804 18.9407 20.4524 18.43 20.8401C17.9193 21.2278 17.1516 20.8743 15.6163 20.1674L15.2191 19.9845C14.7828 19.7836 14.5647 19.6832 14.3334 19.6832C14.1022 19.6832 13.884 19.7836 13.4477 19.9845L13.0505 20.1674C11.5152 20.8743 10.7475 21.2278 10.2368 20.8401C9.72616 20.4524 9.81067 19.5804 9.97968 17.8362L10.0234 17.385C10.0714 16.8894 10.0954 16.6416 10.024 16.4118C9.95253 16.182 9.7937 15.9962 9.47603 15.6248L9.18681 15.2866C8.06891 13.9793 7.50996 13.3257 7.70503 12.6984C7.90009 12.0712 8.71999 11.8857 10.3598 11.5146L10.784 11.4187C11.25 11.3132 11.483 11.2605 11.67 11.1185C11.8571 10.9765 11.9771 10.7612 12.2171 10.3308L12.4355 9.93888Z" fill="#5565EC"/>
</svg>
