<svg width="14" height="18" viewBox="0 0 14 18" fill="none" xmlns="http://www.w3.org/2000/svg">
<path fill-rule="evenodd" clip-rule="evenodd" d="M6.99998 0.666687C3.31808 0.666687 0.333313 4.00217 0.333313 7.75002C0.333313 11.4685 2.46108 15.5104 5.78087 17.0621C6.55477 17.4238 7.44519 17.4238 8.21909 17.0621C11.5389 15.5104 13.6666 11.4685 13.6666 7.75002C13.6666 4.00217 10.6819 0.666687 6.99998 0.666687ZM6.99998 9.00002C7.92045 9.00002 8.66665 8.25383 8.66665 7.33335C8.66665 6.41288 7.92045 5.66669 6.99998 5.66669C6.0795 5.66669 5.33331 6.41288 5.33331 7.33335C5.33331 8.25383 6.0795 9.00002 6.99998 9.00002Z" fill="#5565EC"/>
</svg>
