<svg width="27" height="28" viewBox="0 0 27 28" fill="none" xmlns="http://www.w3.org/2000/svg">
<path fill-rule="evenodd" clip-rule="evenodd" d="M0 13.3333V8C0 4.22876 0 2.34315 1.17157 1.17157C2.34315 0 4.22876 0 8 0H18.6667C22.4379 0 24.3235 0 25.4951 1.17157C26.6667 2.34315 26.6667 4.22876 26.6667 8V13.3333C26.6667 17.1046 26.6667 18.9902 25.4951 20.1618C24.6333 21.0236 23.385 21.2515 21.284 21.3117C21.2791 20.3306 20.9383 19.3509 20.2615 18.5567C20.2232 18.5118 20.2001 18.456 20.1954 18.3972C20.0282 16.3018 18.3643 14.638 16.269 14.4708C16.2102 14.4661 16.1544 14.443 16.1094 14.4047C14.5096 13.0413 12.1566 13.0413 10.5567 14.4047C10.5118 14.443 10.456 14.4661 10.3972 14.4708C8.30184 14.638 6.638 16.3018 6.47079 18.3972C6.4661 18.456 6.44297 18.5118 6.40469 18.5567C5.72793 19.3509 5.38711 20.3306 5.38222 21.3117C3.28147 21.2514 2.03335 21.0235 1.17157 20.1618C0 18.9902 0 17.1046 0 13.3333ZM8.33333 5.33333C8.33333 4.78105 8.78105 4.33333 9.33333 4.33333H17.3333C17.8856 4.33333 18.3333 4.78105 18.3333 5.33333C18.3333 5.88562 17.8856 6.33333 17.3333 6.33333H9.33333C8.78105 6.33333 8.33333 5.88562 8.33333 5.33333ZM6.66667 9C6.11438 9 5.66667 9.44772 5.66667 10C5.66667 10.5523 6.11438 11 6.66667 11H20C20.5523 11 21 10.5523 21 10C21 9.44772 20.5523 9 20 9H6.66667Z" fill="#5565EC"/>
<path fill-rule="evenodd" clip-rule="evenodd" d="M14.8122 15.9269C13.9599 15.2006 12.7063 15.2006 11.854 15.9269C11.4887 16.2382 11.0346 16.4263 10.5562 16.4645C9.43996 16.5535 8.55353 17.44 8.46445 18.5562C8.42628 19.0346 8.23818 19.4887 7.92692 19.854C7.20057 20.7063 7.20057 21.9599 7.92692 22.8122C8.23818 23.1775 8.42628 23.6316 8.46445 24.1099C8.55353 25.2262 9.43996 26.1126 10.5562 26.2017C11.0346 26.2399 11.4887 26.428 11.854 26.7393C12.7063 27.4656 13.9599 27.4656 14.8122 26.7393C15.1775 26.428 15.6316 26.2399 16.1099 26.2017C17.2262 26.1126 18.1126 25.2262 18.2017 24.1099C18.2399 23.6316 18.428 23.1775 18.7393 22.8122C19.4656 21.9599 19.4656 20.7063 18.7393 19.854C18.428 19.4887 18.2399 19.0346 18.2017 18.5562C18.1126 17.44 17.2262 16.5535 16.1099 16.4645C15.6316 16.4263 15.1775 16.2382 14.8122 15.9269ZM16.0157 20.7311C16.4194 20.3542 16.4412 19.7214 16.0644 19.3177C15.6876 18.9139 15.0548 18.8921 14.651 19.2689L12.4762 21.2988L12.0157 20.8689C11.6119 20.4921 10.9791 20.5139 10.6023 20.9177C10.2254 21.3214 10.2473 21.9542 10.651 22.3311L11.7939 23.3977C12.1781 23.7563 12.7743 23.7563 13.1585 23.3977L16.0157 20.7311Z" fill="#5565EC"/>
</svg>
