<svg width="237" height="289" viewBox="0 0 237 289" fill="none" xmlns="http://www.w3.org/2000/svg">
<g clip-path="url(#clip0_1_1720)">
<path d="M88.6555 37.8906L88.6545 37.8877C88.0458 36.1548 86.7787 34.7316 85.1279 33.9264C83.4771 33.1213 81.5755 32.9991 79.8352 33.5863L79.9951 34.06L79.8323 33.5873C78.5342 34.0342 77.3978 34.8561 76.5668 35.9489C75.7358 37.0418 75.2475 38.3565 75.1637 39.7268C75.0799 41.0971 75.4043 42.4615 76.096 43.6475C76.7876 44.8334 77.8154 45.7876 79.0493 46.3895C80.2832 46.9913 81.6679 47.2137 83.0283 47.0286C84.3886 46.8434 85.6635 46.2591 86.6918 45.3494C87.72 44.4397 88.4554 43.2455 88.8049 41.9178C89.1545 40.5902 89.1025 39.1887 88.6555 37.8906ZM85.3556 49.6281C83.4917 50.27 81.4793 50.3446 79.5729 49.8427C77.6665 49.3408 75.9517 48.2849 74.6455 46.8084C73.3392 45.3319 72.5001 43.5013 72.2343 41.5479C71.9684 39.5946 72.2878 37.6063 73.152 35.8344C74.0162 34.0626 75.3864 32.5868 77.0893 31.5937C78.7922 30.6006 80.7514 30.1347 82.7191 30.2551C84.6867 30.3754 86.5746 31.0766 88.1438 32.2698C89.713 33.4631 90.8931 35.0948 91.5349 36.9588C92.3955 39.4583 92.228 42.1973 91.0692 44.5732C89.9103 46.9492 87.8551 48.7675 85.3556 49.6281Z" fill="white" stroke="#252222"/>
<path d="M157.137 21.0464L11.3529 71.2438C8.6788 72.1646 7.25743 75.0788 8.1782 77.753L78.9642 283.33C79.885 286.004 82.7992 287.426 85.4733 286.505L231.257 236.308C233.931 235.387 235.353 232.473 234.432 229.799L163.646 24.2211C162.725 21.547 159.811 20.1256 157.137 21.0464Z" fill="#252222"/>
<g opacity="0.3">
<path d="M157.137 21.0464L11.3529 71.2438C8.6788 72.1646 7.25743 75.0788 8.1782 77.753L78.9642 283.33C79.885 286.004 82.7992 287.426 85.4733 286.505L231.257 236.308C233.931 235.387 235.353 232.473 234.432 229.799L163.646 24.2211C162.725 21.547 159.811 20.1256 157.137 21.0464Z" fill="#252222"/>
</g>
<path d="M155.035 34.6542L21.3867 80.6731L88.9484 276.886L222.597 230.867L155.035 34.6542Z" fill="#F5F6FE"/>
<path d="M152.651 33.7127L19.002 79.7316L85.2739 272.199L218.922 226.18L152.651 33.7127Z" fill="white"/>
<path d="M171.516 242.504C171.516 242.504 201.355 217.599 206.644 191.534C203.64 195.65 199.834 199.115 195.455 201.72C191.076 204.326 186.215 206.018 181.164 206.694C181.164 206.694 180.429 234.087 171.516 242.504Z" fill="#F5F6FE"/>
<path d="M171.516 242.504L171.977 241.987C172.439 241.48 172.865 240.94 173.252 240.373C174.684 238.234 175.818 235.91 176.621 233.465C178.808 227.202 180.503 217.83 180.976 206.691L180.98 206.528L181.132 206.475C185.509 205.89 189.746 204.523 193.641 202.441C194.685 201.936 195.659 201.277 196.669 200.674C197.679 200.071 198.634 199.333 199.563 198.57C201.479 197.048 203.246 195.348 204.84 193.492C205.414 192.817 205.954 192.114 206.457 191.385L207.09 190.478L206.868 191.542C205.962 195.715 204.588 199.773 202.773 203.639C201.083 207.219 199.143 210.676 196.968 213.983C193.301 219.552 189.194 224.819 184.687 229.734C180.863 233.937 177.564 237.117 175.237 239.264C174.072 240.33 173.15 241.141 172.516 241.674L171.789 242.282C171.63 242.414 171.516 242.478 171.531 242.473C171.546 242.468 171.596 242.391 171.761 242.249L172.462 241.616C173.116 241.042 173.989 240.239 175.129 239.148C177.42 236.971 180.683 233.761 184.469 229.545C188.932 224.613 193.005 219.342 196.65 213.778C198.799 210.477 200.721 207.033 202.4 203.47C204.193 199.631 205.551 195.605 206.45 191.464L206.833 191.613C206.322 192.36 205.771 193.079 205.182 193.766C203.571 195.641 201.783 197.358 199.844 198.891C198.91 199.664 197.905 200.334 196.924 201.021C195.943 201.708 194.917 202.291 193.861 202.808C189.916 204.899 185.629 206.268 181.202 206.851L181.368 206.666C180.86 217.852 179.086 227.243 176.848 233.506C176.018 235.961 174.847 238.288 173.37 240.418C172.824 241.175 172.203 241.873 171.516 242.504V242.504Z" fill="#263238"/>
<path d="M70.4755 132.478L59.3451 136.31C57.9071 136.805 57.1428 138.372 57.6379 139.81L61.4704 150.941C61.9656 152.379 63.5327 153.143 64.9706 152.648L76.101 148.816C77.539 148.32 78.3033 146.753 77.8082 145.315L73.9757 134.185C73.4806 132.747 71.9135 131.983 70.4755 132.478Z" fill="#252222"/>
<path d="M67.9761 145.871C67.9238 145.889 67.868 145.896 67.8128 145.89C67.7577 145.884 67.7046 145.865 67.6575 145.836L64.4534 143.95C64.3614 143.896 64.2946 143.807 64.2678 143.704C64.241 143.601 64.2564 143.491 64.3105 143.399C64.3646 143.307 64.4531 143.24 64.5565 143.213C64.6598 143.187 64.7696 143.202 64.8616 143.256L67.6891 144.914L71.1519 137.658C71.1744 137.611 71.2062 137.568 71.2453 137.533C71.2844 137.498 71.3302 137.472 71.3798 137.455C71.4294 137.437 71.482 137.43 71.5343 137.434C71.5867 137.437 71.6379 137.451 71.6848 137.475C71.7327 137.498 71.7755 137.53 71.8108 137.57C71.8461 137.61 71.8732 137.656 71.8905 137.706C71.9078 137.757 71.9149 137.81 71.9116 137.863C71.9082 137.916 71.8944 137.968 71.8709 138.015L68.2439 145.659C68.219 145.713 68.1817 145.76 68.1352 145.797C68.0887 145.834 68.0342 145.859 67.9761 145.871V145.871Z" fill="white"/>
<path d="M159.868 103.92C159.907 104.034 142.547 110.105 121.109 117.487C99.6701 124.869 82.2529 130.773 82.2136 130.659C82.1743 130.544 99.5338 124.473 120.972 117.091C142.411 109.71 159.831 103.814 159.868 103.92Z" fill="#263238"/>
<path d="M119.065 131.339C118.658 131.543 118.237 131.716 117.805 131.858L114.316 133.128C111.355 134.147 107.288 135.616 102.773 137.17C98.2583 138.725 94.1625 140.135 91.18 141.094L87.6494 142.242C87.2214 142.396 86.7826 142.519 86.3365 142.608C86.7411 142.4 87.1627 142.226 87.5969 142.089L91.083 140.812C94.0445 139.793 98.1144 138.332 102.637 136.774C107.159 135.217 111.239 133.812 114.219 132.846L117.753 131.706C118.179 131.547 118.618 131.424 119.065 131.339V131.339Z" fill="#263238"/>
<path d="M161.692 109.219C161.729 109.325 144.372 115.404 122.933 122.786C101.495 130.168 84.0747 136.064 84.038 135.957C84.0013 135.851 101.358 129.772 122.797 122.39C144.235 115.008 161.653 109.105 161.692 109.219Z" fill="#263238"/>
<path d="M80.3493 161.156L69.2189 164.989C67.7809 165.484 67.0166 167.051 67.5118 168.489L71.3443 179.62C71.8394 181.058 73.4065 181.822 74.8445 181.327L85.9749 177.494C87.4128 176.999 88.1772 175.432 87.682 173.994L83.8495 162.864C83.3544 161.426 81.7873 160.661 80.3493 161.156Z" fill="#252222"/>
<path d="M77.3892 173.945C77.3366 173.962 77.2811 173.967 77.2262 173.961C77.1713 173.955 77.1183 173.938 77.0706 173.91L73.8665 172.024C73.7745 171.97 73.7077 171.882 73.6809 171.778C73.6541 171.675 73.6694 171.565 73.7236 171.473C73.7777 171.381 73.8662 171.314 73.9695 171.288C74.0729 171.261 74.1827 171.276 74.2747 171.33L77.1022 172.988L80.565 165.732C80.5875 165.685 80.6193 165.643 80.6584 165.608C80.6975 165.573 80.7432 165.546 80.7929 165.529C80.8425 165.512 80.895 165.505 80.9474 165.508C80.9998 165.512 81.0509 165.525 81.0979 165.549C81.1457 165.572 81.1886 165.604 81.2239 165.644C81.2592 165.684 81.2862 165.73 81.3035 165.78C81.3208 165.831 81.328 165.884 81.3247 165.937C81.3213 165.99 81.3075 166.042 81.284 166.09L77.657 173.734C77.6321 173.787 77.5948 173.835 77.5483 173.871C77.5018 173.908 77.4473 173.933 77.3892 173.945V173.945Z" fill="white"/>
<path d="M169.744 132.599C169.78 132.705 152.423 138.784 130.985 146.166C109.546 153.548 92.1263 159.444 92.0896 159.337C92.0529 159.231 109.41 153.152 130.848 145.77C152.287 138.388 169.707 132.492 169.744 132.599Z" fill="#263238"/>
<path d="M128.938 160.01C128.533 160.219 128.113 160.395 127.68 160.537L124.191 161.806C121.23 162.826 117.16 164.287 112.645 165.842C108.131 167.396 104.035 168.806 101.055 169.773L97.5242 170.92C97.0963 171.076 96.6563 171.196 96.2088 171.28C96.6155 171.076 97.0368 170.902 97.4692 170.761L100.958 169.491C103.906 168.433 107.987 167.003 112.509 165.446C117.031 163.889 121.112 162.484 124.094 161.525L127.625 160.377C128.053 160.223 128.492 160.1 128.938 160.01V160.01Z" fill="#263238"/>
<path d="M171.556 137.867C171.595 137.981 154.238 144.06 132.8 151.442C111.361 158.824 93.9413 164.72 93.902 164.606C93.8626 164.491 111.222 158.42 132.661 151.038C154.099 143.657 171.527 137.783 171.556 137.867Z" fill="#263238"/>
<path d="M90.2224 189.828L79.092 193.66C77.654 194.155 76.8897 195.722 77.3848 197.16L81.2173 208.291C81.7124 209.729 83.2795 210.493 84.7175 209.998L95.8479 206.165C97.2859 205.67 98.0502 204.103 97.5551 202.665L93.7226 191.535C93.2274 190.097 91.6603 189.332 90.2224 189.828Z" fill="#252222"/>
<path d="M87.2733 202.654C87.2197 202.67 87.1635 202.674 87.1082 202.667C87.0529 202.659 86.9997 202.641 86.952 202.612L83.7506 200.734C83.6592 200.678 83.5933 200.588 83.5671 200.484C83.5409 200.38 83.5563 200.27 83.6101 200.177C83.6366 200.132 83.6719 200.092 83.714 200.06C83.7561 200.028 83.8042 200.005 83.8554 199.993C83.9065 199.98 83.9597 199.977 84.0118 199.985C84.0639 199.993 84.1139 200.012 84.1588 200.039L86.9863 201.697L90.449 194.442C90.4707 194.394 90.5019 194.35 90.5409 194.315C90.5799 194.279 90.6258 194.252 90.6758 194.235C90.7257 194.217 90.7786 194.211 90.8313 194.215C90.884 194.219 90.9352 194.234 90.9819 194.258C91.0294 194.281 91.0718 194.312 91.1068 194.352C91.1418 194.391 91.1686 194.436 91.1857 194.486C91.2028 194.536 91.2098 194.588 91.2063 194.641C91.2028 194.693 91.1889 194.744 91.1654 194.791L87.5411 202.443C87.5161 202.497 87.4789 202.544 87.4324 202.581C87.3858 202.617 87.3314 202.643 87.2733 202.654V202.654Z" fill="white"/>
<path d="M179.619 161.277C179.655 161.384 162.298 167.463 140.86 174.845C119.421 182.226 102.001 188.122 101.965 188.016C101.928 187.909 119.285 181.831 140.723 174.449C162.162 167.067 179.579 161.163 179.619 161.277Z" fill="#263238"/>
<path d="M138.814 188.689C138.409 188.897 137.987 189.071 137.553 189.208L134.067 190.485C131.106 191.504 127.036 192.965 122.521 194.52C118.007 196.074 113.911 197.485 110.931 198.451L107.398 199.591C106.971 199.751 106.532 199.873 106.085 199.958C106.491 199.754 106.913 199.58 107.345 199.439L110.834 198.169C113.795 197.15 117.863 195.681 122.385 194.124C126.907 192.567 130.988 191.162 133.97 190.203L137.501 189.055C137.929 188.901 138.368 188.779 138.814 188.689V188.689Z" fill="#263238"/>
<path d="M181.44 166.569C181.479 166.683 164.12 172.754 142.681 180.136C121.242 187.518 103.825 193.421 103.786 193.307C103.747 193.193 121.106 187.122 142.545 179.74C163.983 172.358 181.403 166.462 181.44 166.569Z" fill="#263238"/>
<path d="M100.098 218.506L88.968 222.339C87.53 222.834 86.7657 224.401 87.2608 225.839L91.0933 236.969C91.5885 238.407 93.1556 239.171 94.5936 238.676L105.724 234.844C107.162 234.349 107.926 232.782 107.431 231.344L103.599 220.213C103.103 218.775 101.536 218.011 100.098 218.506Z" fill="#252222"/>
<path d="M97.1371 231.303C97.0835 231.318 97.0273 231.322 96.9719 231.315C96.9166 231.308 96.8635 231.289 96.8158 231.26L93.6117 229.374C93.5661 229.348 93.5263 229.312 93.4945 229.27C93.4628 229.228 93.4398 229.18 93.427 229.129C93.4141 229.078 93.4116 229.025 93.4197 228.973C93.4278 228.92 93.4462 228.87 93.4739 228.826C93.5211 228.731 93.6033 228.659 93.7029 228.625C93.8026 228.591 93.9117 228.597 94.0068 228.642L96.837 230.307L100.297 223.044C100.32 222.997 100.351 222.955 100.391 222.92C100.43 222.885 100.475 222.858 100.525 222.841C100.575 222.824 100.627 222.817 100.68 222.82C100.732 222.823 100.783 222.837 100.83 222.861C100.878 222.884 100.921 222.916 100.956 222.956C100.991 222.996 101.018 223.042 101.036 223.092C101.053 223.143 101.06 223.196 101.057 223.249C101.053 223.302 101.04 223.354 101.016 223.401L97.3918 231.053C97.3708 231.111 97.337 231.164 97.2929 231.207C97.2488 231.25 97.1955 231.283 97.1371 231.303V231.303Z" fill="white"/>
<path d="M189.489 189.948C189.528 190.063 172.168 196.134 150.73 203.515C129.291 210.897 111.874 216.801 111.835 216.687C111.795 216.573 129.155 210.501 150.594 203.12C172.032 195.738 189.452 189.842 189.489 189.948Z" fill="#263238"/>
<path d="M148.689 217.367C148.282 217.571 147.86 217.744 147.428 217.886L143.94 219.156C140.991 220.214 136.911 221.644 132.396 223.199C127.882 224.753 123.786 226.163 120.803 227.122L117.273 228.27C116.845 228.424 116.406 228.547 115.96 228.637C116.364 228.428 116.786 228.254 117.22 228.118L120.706 226.841C123.668 225.821 127.738 224.36 132.26 222.803C136.782 221.246 140.863 219.84 143.843 218.874L147.376 217.734C147.802 217.575 148.241 217.452 148.689 217.367V217.367Z" fill="#263238"/>
<path d="M191.315 195.247C191.352 195.354 173.995 201.432 152.556 208.814C131.117 216.196 113.698 222.092 113.661 221.986C113.624 221.879 130.981 215.8 152.42 208.418C173.858 201.037 191.278 195.141 191.315 195.247Z" fill="#263238"/>
<path d="M132.3 38.5913L132.3 38.5916C132.758 39.9195 132.951 41.3246 132.866 42.7268C132.781 44.129 132.42 45.5007 131.805 46.7635C131.189 48.0262 130.331 49.1554 129.279 50.0864C128.227 51.0174 127.002 51.732 125.674 52.1893L51.7506 77.6432C49.0674 78.5671 46.127 78.3873 43.5764 77.1433C41.0258 75.8993 39.0738 73.693 38.1499 71.0097L34.8446 61.4104L129 29.007L132.3 38.5913Z" fill="white" stroke="#252222"/>
<g clip-path="url(#clip1_1_1720)">
<rect x="74.8271" y="79.156" width="40" height="40" rx="20" transform="rotate(-19 74.8271 79.156)" fill="#D9DBE9"/>
<path d="M98.0299 109.498L97.9335 109.53L90.4063 87.6693L97.8327 81.1487L97.8329 81.1485L97.8363 81.1458L97.8515 81.1338C97.8651 81.1232 97.8856 81.1074 97.9126 81.0874C97.9666 81.0473 98.0467 80.99 98.1501 80.922C98.3571 80.7861 98.6566 80.6079 99.0261 80.4397C99.7661 80.1029 100.78 79.8089 101.891 79.9671C102.494 80.0531 103.024 80.1595 103.537 80.4021C104.05 80.6442 104.552 81.0247 105.092 81.6668C106.175 82.9556 107.402 85.2869 109.16 89.6309C110.918 93.9736 112.166 97.2546 113.01 99.5333C113.412 100.619 113.723 101.479 113.954 102.119C114.196 102.788 114.351 103.215 114.43 103.405C114.415 103.424 114.385 103.452 114.334 103.488C114.233 103.561 114.071 103.653 113.854 103.76C113.422 103.976 112.787 104.248 112.013 104.557C110.467 105.175 108.377 105.937 106.276 106.678C104.176 107.42 102.067 108.14 100.483 108.676C99.6907 108.943 99.0299 109.165 98.5671 109.319C98.3358 109.396 98.1539 109.457 98.0299 109.498ZM114.438 103.393C114.438 103.393 114.438 103.393 114.438 103.395C114.438 103.394 114.438 103.393 114.438 103.393Z" fill="white" stroke="black" stroke-width="0.2"/>
<path d="M97.632 109.484C97.7303 109.422 97.8101 109.376 97.8671 109.345L101.186 118.984L101.186 118.985L111.554 147.994C110.307 149.716 108.16 150.789 106.304 151.431C105.371 151.755 104.515 151.968 103.893 152.1C103.582 152.166 103.33 152.212 103.156 152.241C103.068 152.256 103.001 152.267 102.955 152.273L102.948 152.274C99.876 147.483 99.2068 145.07 98.653 142.025C98.5817 141.633 98.5124 141.23 98.4401 140.811C97.9466 137.947 97.3176 134.296 95.0174 127.843C92.3902 120.473 93.1438 115.834 94.5375 113.043C95.235 111.646 96.095 110.707 96.7794 110.118C97.1216 109.824 97.4199 109.617 97.632 109.484Z" fill="#FCFCFC" stroke="black" stroke-width="0.2"/>
<path d="M98.4595 109.52C98.4703 109.511 98.4787 109.504 98.4844 109.5L114.117 103.191L117.919 102.58L126.791 128.346C127.056 129.117 127.008 129.962 126.656 130.697C126.304 131.432 125.676 131.998 124.91 132.272L124.91 132.272L107.461 138.524C106.633 138.646 105.927 138.574 105.319 138.343C104.707 138.111 104.188 137.716 103.737 137.186C102.834 136.123 102.213 134.523 101.695 132.624C101.337 131.312 101.031 129.866 100.713 128.367C100.571 127.698 100.427 127.019 100.276 126.336C99.7843 124.126 99.2119 121.883 98.3711 119.87C96.7027 115.875 96.7473 113.274 97.1973 111.68C97.4224 110.882 97.7498 110.334 98.0189 109.986C98.1535 109.811 98.2736 109.687 98.3593 109.607C98.4022 109.567 98.4364 109.538 98.4595 109.52Z" fill="#FCFCFC" stroke="black" stroke-width="0.2"/>
<path d="M105.957 97.7275L108.011 102.703L101.93 105.005L100.326 99.6664L105.957 97.7275Z" fill="white" stroke="black" stroke-width="0.2"/>
<path d="M110.385 102.153L111.594 104.239L100.823 108.422L100.32 105.672L100.32 105.672L100.32 105.669C100.265 105.413 100.305 105.146 100.431 104.917C100.557 104.689 100.761 104.513 101.005 104.423L109.101 101.635C109.341 101.559 109.6 101.568 109.834 101.662C110.068 101.756 110.263 101.929 110.384 102.151L110.384 102.151L110.385 102.153Z" fill="#FCFCFC" stroke="black" stroke-width="0.2"/>
<path d="M105.367 101.754L105.367 101.754C104.627 102.106 103.721 101.987 102.847 101.678C101.975 101.37 101.154 100.881 100.597 100.519C100.54 100.481 100.488 100.444 100.441 100.408C100.592 100.429 100.744 100.441 100.896 100.444C101.611 100.465 102.66 100.377 103.942 99.9344C104.69 99.6891 105.37 99.2726 105.928 98.718L106.306 98.5813L106.708 99.5516C106.607 100.42 106.218 101.351 105.367 101.754Z" fill="white" stroke="black" stroke-width="0.2"/>
<path d="M106.554 90.2476C107.371 92.3995 107.443 94.5976 106.901 96.4104C106.36 98.2231 105.21 99.6451 103.585 100.262C101.96 100.879 100.156 100.58 98.5481 99.5837C96.9402 98.5874 95.5344 96.8965 94.7175 94.745C93.9006 92.5935 93.8293 90.3955 94.3702 88.5826C94.9111 86.7698 96.0617 85.3476 97.6868 84.7303C99.312 84.113 101.116 84.4125 102.724 85.4088C104.332 86.4052 105.737 88.0962 106.554 90.2476Z" fill="white" stroke="black" stroke-width="0.2"/>
<path d="M108.104 90.2511C108.251 90.6786 108.212 91.1681 108.055 91.5792C107.897 91.9937 107.63 92.3052 107.345 92.4033C107.059 92.5018 106.736 92.432 106.439 92.2212C106.143 92.0105 105.882 91.6632 105.732 91.2272C105.587 90.8043 105.655 90.3472 105.84 89.9659C106.027 89.5825 106.324 89.2922 106.616 89.1918C106.908 89.0912 107.2 89.1375 107.46 89.3151C107.721 89.4942 107.952 89.8101 108.104 90.2511Z" fill="white" stroke="black" stroke-width="0.2"/>
<path d="M103.441 88.5509L103.441 88.5509C101.955 88.5683 101.209 89.2733 101.167 89.313L101.167 89.313L101.167 89.313L101.165 89.3147C101.09 89.3895 100.988 89.4312 100.881 89.4306C100.775 89.43 100.674 89.3872 100.599 89.3116C100.524 89.2359 100.482 89.1336 100.483 89.0271C100.483 88.9207 100.526 88.8189 100.601 88.7441L100.601 88.7441L100.602 88.7435C100.632 88.7131 101.586 87.776 103.428 87.7489L103.428 87.7489C103.523 87.7474 103.616 87.7799 103.689 87.8408C103.763 87.9016 103.812 87.9866 103.829 88.0807C103.845 88.1747 103.828 88.2715 103.78 88.3537C103.731 88.4358 103.655 88.4979 103.565 88.5289L103.598 88.6235L103.565 88.5292C103.525 88.5431 103.483 88.5505 103.441 88.5509Z" fill="black" stroke="black" stroke-width="0.2"/>
<path d="M94.7561 92.4026L94.7558 92.4027C94.675 92.4314 94.5872 92.4333 94.5051 92.4082C94.4231 92.383 94.3512 92.3322 94.3001 92.263C94.2491 92.1939 94.2215 92.1102 94.2215 92.0242C94.2215 91.9382 94.2491 91.8546 94.3002 91.7857L94.3002 91.7857L94.3005 91.7853C94.326 91.7505 95.1264 90.6775 96.943 90.3717L96.9453 90.3713C96.9976 90.3612 97.0514 90.3617 97.1036 90.3728C97.1557 90.3838 97.2052 90.4052 97.249 90.4357C97.2928 90.4662 97.3302 90.5051 97.3588 90.5502C97.3874 90.5954 97.4068 90.6457 97.4157 90.6984C97.4246 90.7511 97.423 90.8051 97.4108 90.857C97.3986 90.909 97.3762 90.958 97.3449 91.0012C97.3135 91.0443 97.2739 91.0808 97.2283 91.1083C97.1827 91.1359 97.132 91.154 97.0793 91.1617L97.077 91.1621C95.6145 91.4104 94.9803 92.2168 94.9455 92.2621L94.9454 92.262L94.9443 92.2636C94.8968 92.3278 94.8313 92.3762 94.7561 92.4026Z" fill="black" stroke="black" stroke-width="0.2"/>
<mask id="path-40-inside-1_1_1720" fill="white">
<path d="M101.279 94.445L100.805 94.6081C100.784 94.6153 100.761 94.6139 100.742 94.6042C100.722 94.5945 100.707 94.5774 100.699 94.5565L100.087 92.7784C100.083 92.7581 100.085 92.7369 100.096 92.7187C100.106 92.7005 100.122 92.6867 100.142 92.68C100.161 92.6732 100.183 92.674 100.202 92.6821C100.221 92.6903 100.236 92.7052 100.245 92.724L100.83 94.4226L101.224 94.2868C101.244 94.2822 101.266 94.2852 101.284 94.2952C101.302 94.3053 101.316 94.3218 101.323 94.3414C101.329 94.3611 101.329 94.3826 101.321 94.4017C101.312 94.4208 101.298 94.4362 101.279 94.445V94.445Z"/>
</mask>
<path d="M101.279 94.445L100.805 94.6081C100.784 94.6153 100.761 94.6139 100.742 94.6042C100.722 94.5945 100.707 94.5774 100.699 94.5565L100.087 92.7784C100.083 92.7581 100.085 92.7369 100.096 92.7187C100.106 92.7005 100.122 92.6867 100.142 92.68C100.161 92.6732 100.183 92.674 100.202 92.6821C100.221 92.6903 100.236 92.7052 100.245 92.724L100.83 94.4226L101.224 94.2868C101.244 94.2822 101.266 94.2852 101.284 94.2952C101.302 94.3053 101.316 94.3218 101.323 94.3414C101.329 94.3611 101.329 94.3826 101.321 94.4017C101.312 94.4208 101.298 94.4362 101.279 94.445V94.445Z" fill="black"/>
<path d="M100.805 94.6081L100.87 94.7972L100.805 94.6081ZM100.087 92.7784L99.8924 92.8235L99.8947 92.8337L99.8981 92.8435L100.087 92.7784ZM100.142 92.68L100.077 92.4909L100.142 92.68ZM100.245 92.724L100.434 92.6589L100.431 92.6491L100.426 92.6396L100.245 92.724ZM100.83 94.4226L100.641 94.4877L100.706 94.6768L100.895 94.6117L100.83 94.4226ZM101.224 94.2868L101.179 94.092L101.169 94.0943L101.159 94.0977L101.224 94.2868ZM101.323 94.3414L101.512 94.2763L101.323 94.3414ZM101.214 94.2559L100.74 94.419L100.87 94.7972L101.344 94.6341L101.214 94.2559ZM100.74 94.419C100.769 94.4089 100.802 94.4109 100.829 94.4245L100.654 94.7839C100.721 94.8169 100.799 94.8217 100.87 94.7972L100.74 94.419ZM100.829 94.4245C100.857 94.4381 100.879 94.4622 100.889 94.4914L100.51 94.6216C100.535 94.6925 100.586 94.7509 100.654 94.7839L100.829 94.4245ZM100.889 94.4914L100.276 92.7133L99.8981 92.8435L100.51 94.6216L100.889 94.4914ZM100.282 92.7333C100.289 92.7611 100.284 92.7904 100.271 92.8155L99.9205 92.6219C99.8866 92.6834 99.8765 92.7552 99.8924 92.8235L100.282 92.7333ZM100.271 92.8155C100.257 92.8406 100.234 92.8597 100.207 92.8691L100.077 92.4909C100.01 92.5138 99.9545 92.5605 99.9205 92.6219L100.271 92.8155ZM100.207 92.8691C100.18 92.8785 100.15 92.8774 100.123 92.8661L100.28 92.4981C100.216 92.4706 100.143 92.468 100.077 92.4909L100.207 92.8691ZM100.123 92.8661C100.097 92.8549 100.076 92.8343 100.064 92.8084L100.426 92.6396C100.397 92.576 100.345 92.5256 100.28 92.4981L100.123 92.8661ZM100.056 92.7891L100.641 94.4877L101.019 94.3575L100.434 92.6589L100.056 92.7891ZM100.895 94.6117L101.289 94.4759L101.159 94.0977L100.765 94.2335L100.895 94.6117ZM101.269 94.4817C101.241 94.4882 101.212 94.484 101.187 94.4701L101.381 94.1204C101.32 94.0863 101.248 94.0761 101.179 94.092L101.269 94.4817ZM101.187 94.4701C101.162 94.4562 101.143 94.4335 101.133 94.4066L101.512 94.2763C101.489 94.21 101.442 94.1545 101.381 94.1204L101.187 94.4701ZM101.133 94.4066C101.124 94.3796 101.125 94.35 101.136 94.3237L101.505 94.4797C101.532 94.4151 101.535 94.3426 101.512 94.2763L101.133 94.4066ZM101.136 94.3237C101.148 94.2973 101.168 94.2759 101.194 94.2637L101.363 94.6263C101.427 94.5966 101.477 94.5444 101.505 94.4797L101.136 94.3237Z" fill="black" mask="url(#path-40-inside-1_1_1720)"/>
<path d="M97.4157 93.2679C97.5308 93.602 97.3993 93.9075 97.18 93.983C96.9607 94.0585 96.669 93.8987 96.554 93.5646C96.4389 93.2304 96.5702 92.9242 96.7894 92.8487C97.0087 92.7732 97.3004 92.9329 97.4157 93.2679Z" fill="black" stroke="black" stroke-width="0.2"/>
<path d="M103.302 90.5006C103.417 90.8356 103.285 91.1414 103.067 91.2166C102.848 91.2919 102.555 91.1324 102.439 90.7977C102.324 90.463 102.456 90.1579 102.676 90.0823C102.895 90.0067 103.187 90.1658 103.302 90.5006Z" fill="black" stroke="black" stroke-width="0.2"/>
<path d="M102.703 97.6403C101.774 98.1166 100.76 97.9512 100.301 97.339L103.917 95.8364C103.949 96.4971 103.496 97.2337 102.703 97.6403Z" fill="#FCFCFC" stroke="black" stroke-width="0.2"/>
<path d="M97.4765 81.0264L97.4765 81.0264C98.1604 81.6992 98.4472 82.3523 98.4892 82.9861C98.5315 83.6229 98.3277 84.254 98.004 84.8827C97.717 85.4404 97.3403 85.988 96.9671 86.5306C96.919 86.6005 96.871 86.6702 96.8233 86.74C96.4073 87.3473 96.0098 87.9505 95.7815 88.5414L95.7814 88.5416C95.2886 89.8229 95.0937 91.5356 95.143 93.2433C95.1923 94.9516 95.4862 96.6661 95.9795 97.9529C96.6312 99.6535 97.3815 101.227 98.1063 102.747L98.1591 102.857C98.9009 104.413 99.6125 105.914 100.166 107.447C101.225 110.385 101.703 113.44 100.682 117.206C100.225 113.807 98.3955 111.534 96.4166 109.075C96.0819 108.659 95.7429 108.238 95.4055 107.805C92.7368 104.38 91.3862 100.389 90.4543 96.1828L90.4543 96.1827C90.3521 95.7236 90.232 95.2286 90.1057 94.708C89.7934 93.4208 89.4433 91.9776 89.2321 90.5364C88.9353 88.5116 88.9179 86.5181 89.6537 84.9986L89.6538 84.9985C89.8602 84.5718 90.3439 84.0007 90.9912 83.4078C91.6362 82.8171 92.4351 82.2126 93.2621 81.7178C94.0901 81.2225 94.9407 80.8405 95.6898 80.6896C96.441 80.5382 97.0668 80.623 97.4765 81.0264Z" fill="white" stroke="black" stroke-width="0.2"/>
<path d="M106.59 88.7345L105.968 89.417C105.963 89.4077 105.958 89.3979 105.952 89.3876C105.897 89.2886 105.816 89.1471 105.71 88.9765C105.498 88.6354 105.187 88.1769 104.789 87.7078C103.997 86.7732 102.848 85.7793 101.444 85.6115C100.495 85.4967 99.7286 85.1828 99.1996 84.8975C98.9352 84.7549 98.7304 84.6197 98.5922 84.5205C98.5596 84.4971 98.5307 84.4758 98.5057 84.4568L102.457 82.5727L106.59 88.7345Z" fill="white" stroke="black" stroke-width="0.2"/>
<path d="M116.067 102.992L116.008 102.844C116.04 102.833 116.079 102.82 116.125 102.805C116.264 102.762 116.468 102.706 116.727 102.659C117.244 102.565 117.978 102.506 118.842 102.646C120.566 102.926 122.823 104 124.914 107.212C128.859 113.27 129.74 116.028 131.037 120.095C131.122 120.36 131.209 120.632 131.298 120.91C131.668 122.06 132.468 123.365 133.408 124.783C133.644 125.139 133.889 125.502 134.139 125.872C134.886 126.98 135.675 128.15 136.39 129.37C138.286 132.605 139.641 136.16 138.31 139.777C138.276 139.773 138.231 139.767 138.177 139.761C138.039 139.745 137.839 139.723 137.585 139.698C137.079 139.647 136.362 139.586 135.52 139.54C133.848 139.45 131.68 139.424 129.685 139.68C129.684 139.679 129.683 139.678 129.682 139.677C129.658 139.654 129.619 139.61 129.562 139.531C129.448 139.374 129.271 139.083 129.023 138.552C128.528 137.491 127.758 135.483 126.665 131.701C125.57 127.913 122.895 120.673 120.496 114.385C119.297 111.239 118.165 108.331 117.334 106.208C116.918 105.147 116.577 104.282 116.34 103.683C116.222 103.383 116.129 103.15 116.067 102.992Z" fill="#FCFCFC" stroke="black" stroke-width="0.2"/>
</g>
</g>
<defs>
<clipPath id="clip0_1_1720">
<rect width="164.426" height="247.674" fill="white" transform="translate(0 54) rotate(-19)"/>
</clipPath>
<clipPath id="clip1_1_1720">
<rect x="74.8271" y="79.156" width="40" height="40" rx="20" transform="rotate(-19 74.8271 79.156)" fill="white"/>
</clipPath>
</defs>
</svg>
