<svg width="306" height="330" viewBox="0 0 306 330" fill="none" xmlns="http://www.w3.org/2000/svg">
<g clip-path="url(#clip0_1_2095)">
<path d="M80.7445 9.8464C80.7445 9.8464 25.7909 31.1836 8.77111 88.5669C-8.24869 145.95 16.9942 208.292 36.048 259.212C55.1018 310.133 101.998 337.933 149.276 327.93C196.554 317.926 192.408 275.365 233.888 236.857C275.368 198.349 292.91 194.305 304.366 139.696C315.823 85.0876 265.633 23.6943 195.815 6.79326C125.997 -10.1077 80.7445 9.8464 80.7445 9.8464Z" fill="white"/>
<path opacity="0.75" d="M80.936 10.3084L80.9463 10.3039L80.8911 10.1789C80.9463 10.3039 80.9463 10.3039 80.9464 10.3038L80.9475 10.3033L80.953 10.301L80.9762 10.2909C80.9844 10.2873 80.9943 10.2831 81.0059 10.2781C81.0238 10.2704 81.0458 10.261 81.0718 10.2499C81.1574 10.2136 81.2865 10.1595 81.4585 10.0895C81.8025 9.94926 82.3181 9.74497 83.0002 9.49045C84.3643 8.9814 86.3946 8.27144 89.0504 7.47139C94.3622 5.87127 102.176 3.91095 112.169 2.47688C132.155 -0.391146 160.858 -1.15455 195.697 7.27922C230.502 15.7044 260.409 35.2192 280.181 59.4207C299.957 83.6255 309.566 112.476 303.877 139.593C298.16 166.842 290.939 181.418 280.009 193.986C274.533 200.283 268.117 206.085 260.461 212.732C258.886 214.099 257.259 215.502 255.577 216.952C249.089 222.546 241.79 228.84 233.548 236.491C216.628 252.198 207.263 268.595 198.961 283.13C197.054 286.47 195.202 289.712 193.328 292.825C188.307 301.163 183.129 308.57 176.281 314.517C169.441 320.457 160.914 324.956 149.172 327.44C102.17 337.385 55.4961 309.76 36.5163 259.037C35.6621 256.754 34.7956 254.449 33.9212 252.122C25.0387 228.489 15.3379 202.679 9.3697 176.203C2.81492 147.125 0.773995 117.288 9.25047 88.7091C17.7223 60.1458 35.6371 40.5458 51.4498 28.0806C59.3553 21.8486 66.7306 17.4038 72.1279 14.5179C74.8262 13.075 77.0294 12.0222 78.5563 11.3308C79.3197 10.9851 79.9139 10.7298 80.3164 10.5612C80.5176 10.477 80.6708 10.4144 80.7733 10.3731C80.8245 10.3524 80.8631 10.3371 80.8886 10.327L80.917 10.3158L80.9237 10.3132L80.9252 10.3126C80.9255 10.3125 80.9255 10.3125 80.7445 9.8464L80.9255 10.3125L80.936 10.3084Z" fill="white" stroke="black"/>
<path d="M36.3437 282.533C33.0787 282.541 29.8199 282.25 26.6081 281.663C16.3858 279.767 8.00629 274.348 3.60792 266.815C-3.59811 254.446 1.00019 238.728 8.6843 228.629C18.472 215.834 33.2231 208.396 46.366 202.812C71.5741 192.113 98.2773 185.241 124.129 178.596C131.517 176.699 139.158 174.734 146.651 172.707C150.388 171.698 154.204 170.706 158.064 169.706C185.419 162.599 216.425 154.545 236.93 134.321C251.777 119.681 262.79 102.667 268.753 85.114C271.35 77.7992 272.798 70.1262 273.048 62.3677C273.336 54.0351 272.736 45.6954 271.257 37.4902L270.692 37.064C258.166 27.6002 244.154 21.807 232.323 21.2068C213.478 20.25 176.057 26.9391 155.952 48.9895L155.082 49.9551C146.512 60.6271 139.004 72.1113 132.665 84.2442C132.564 84.4509 132.424 84.6358 132.252 84.7884C132.08 84.9409 131.88 85.0581 131.663 85.1332C131.446 85.2084 131.216 85.2399 130.987 85.2262C130.757 85.2124 130.533 85.1536 130.326 85.0531C130.12 84.9526 129.935 84.8123 129.782 84.6403C129.63 84.4683 129.513 84.268 129.438 84.0507C129.363 83.8334 129.331 83.6035 129.345 83.374C129.359 83.1445 129.417 82.92 129.518 82.7132C132.932 76.0604 136.731 69.6126 140.896 63.4028C140.771 63.1225 140.721 62.8139 140.753 62.5083C140.785 62.2027 140.898 61.9111 141.079 61.6631C144.365 57.1386 147.878 52.7838 151.605 48.6155C152.527 47.5195 153.431 46.3916 154.317 45.2318C168.825 27.6872 192.147 6.08902 220.841 2.60966C239.243 0.408963 252.672 3.38382 261.886 11.7256C267.971 17.2404 272.109 25.0167 274.395 35.5244C288.303 46.7453 293.744 60.9411 290.537 77.7378C285.712 102.963 272.465 121.752 256.923 141.941C215.573 195.714 170.59 234.779 123.199 258.108C101.26 268.909 77.8941 276.524 53.8068 280.724C48.0487 281.829 42.2059 282.434 36.3437 282.533V282.533ZM275.386 41.0305C276.347 48.129 276.727 55.2942 276.524 62.4547C276.275 70.5696 274.774 78.5973 272.074 86.2535C265.928 104.311 254.628 121.804 239.399 136.817C218.224 157.693 186.74 165.879 158.968 173.09C155.117 174.09 151.31 175.082 147.59 176.082C140.071 178.117 132.421 180.083 124.989 181.988C99.2682 188.599 72.6694 195.436 47.7221 206.039C35.005 211.441 20.7755 218.608 11.4485 230.76C4.4337 239.937 0.217867 254.107 6.6155 265.075C10.501 271.738 18.02 276.548 27.2427 278.262C35.9351 279.871 44.8449 278.749 53.207 277.288C76.9807 273.154 100.043 265.644 121.695 254.985C167.912 232.247 213.739 192.409 254.168 139.853C269.431 120.021 282.444 101.58 287.121 77.1202C289.815 63.0375 285.869 50.9206 275.386 41.0305V41.0305ZM231.88 5.42794C228.329 5.43675 224.782 5.65751 221.258 6.08902C201.552 8.46368 184.28 19.8151 170.372 33.1671C191.234 20.9111 217.546 16.9707 232.523 17.7362C247.779 18.5103 261.713 26.4346 270.014 32.2625C267.789 24.5296 264.338 18.6408 259.583 14.3438C252.951 8.3767 243.85 5.42794 231.88 5.42794Z" fill="black"/>
<path d="M79.9704 123.352L103.831 291.345C103.999 292.52 104.626 293.58 105.575 294.293C106.523 295.005 107.716 295.312 108.89 295.146L210.487 280.689C211.068 280.607 211.628 280.411 212.133 280.113C212.638 279.814 213.08 279.419 213.433 278.95C213.786 278.48 214.043 277.946 214.189 277.377C214.335 276.809 214.368 276.217 214.286 275.635L190.364 107.634C190.282 107.053 190.087 106.493 189.788 105.988C189.49 105.482 189.095 105.04 188.626 104.687C188.157 104.334 187.623 104.077 187.055 103.93C186.487 103.784 185.895 103.751 185.314 103.833L83.743 118.299C82.5742 118.471 81.5212 119.099 80.8142 120.046C80.1072 120.993 79.8039 122.182 79.9704 123.352V123.352ZM146.424 120.438L125.78 123.379C124.903 123.476 124.024 123.228 123.327 122.687C122.63 122.146 122.172 121.355 122.049 120.481C121.925 119.608 122.147 118.72 122.667 118.007C123.186 117.295 123.963 116.813 124.832 116.663L145.468 113.723C146.347 113.618 147.233 113.862 147.935 114.402C148.638 114.942 149.101 115.736 149.226 116.613C149.351 117.491 149.127 118.382 148.604 119.097C148.08 119.812 147.298 120.293 146.424 120.438V120.438Z" fill="white"/>
<path d="M108.24 295.624C107.06 295.621 105.92 295.194 105.029 294.419C104.138 293.644 103.556 292.575 103.389 291.405L79.5198 123.413C79.4289 122.775 79.4645 122.126 79.6246 121.501C79.7846 120.877 80.066 120.291 80.4527 119.775C80.8393 119.26 81.3237 118.826 81.878 118.498C82.4324 118.17 83.0459 117.954 83.6835 117.864L185.289 103.407C186.577 103.226 187.883 103.562 188.923 104.343C189.962 105.124 190.65 106.286 190.835 107.573L214.705 275.566C214.797 276.204 214.762 276.855 214.603 277.48C214.443 278.105 214.162 278.693 213.775 279.209C213.388 279.726 212.904 280.16 212.349 280.489C211.794 280.818 211.179 281.033 210.541 281.124L108.935 295.572C108.705 295.606 108.472 295.624 108.24 295.624V295.624ZM185.976 104.259C185.787 104.261 185.598 104.276 185.411 104.303L83.8052 118.725C82.7474 118.876 81.7927 119.44 81.1506 120.295C80.5085 121.149 80.2315 122.224 80.3803 123.283L104.25 291.284C104.403 292.343 104.969 293.298 105.824 293.941C106.679 294.583 107.754 294.86 108.813 294.711L210.411 280.263C211.461 280.112 212.41 279.552 213.051 278.705C213.693 277.858 213.974 276.793 213.835 275.74L189.975 107.695C189.836 106.74 189.362 105.866 188.637 105.23C187.912 104.594 186.984 104.237 186.02 104.225L185.976 104.259ZM125.285 123.883C124.314 123.887 123.378 123.521 122.667 122.86C121.955 122.198 121.522 121.291 121.454 120.322C121.387 119.352 121.69 118.393 122.303 117.64C122.916 116.886 123.793 116.394 124.755 116.263L145.391 113.332C145.888 113.258 146.395 113.284 146.882 113.41C147.369 113.535 147.825 113.757 148.225 114.062C148.627 114.362 148.967 114.739 149.223 115.171C149.479 115.603 149.648 116.081 149.719 116.578C149.79 117.075 149.762 117.581 149.637 118.068C149.512 118.554 149.292 119.011 148.99 119.412C148.38 120.224 147.474 120.762 146.469 120.908L125.824 123.839C125.645 123.855 125.465 123.858 125.285 123.848V123.883ZM145.939 114.158C145.797 114.15 145.655 114.15 145.513 114.158L124.877 117.089C124.101 117.205 123.403 117.624 122.936 118.254C122.469 118.885 122.271 119.675 122.387 120.451C122.502 121.228 122.921 121.926 123.551 122.394C124.181 122.861 124.97 123.059 125.746 122.944L146.347 120.038C146.732 119.983 147.102 119.853 147.436 119.654C147.77 119.456 148.062 119.193 148.294 118.881C148.763 118.253 148.966 117.466 148.859 116.689C148.754 115.988 148.402 115.346 147.867 114.881C147.331 114.415 146.648 114.156 145.939 114.149V114.158Z" fill="black"/>
<path d="M187.016 123.098L87.4883 137.255L109.015 288.806L208.543 274.649L187.016 123.098Z" fill="white"/>
<path d="M109.022 289.231C108.918 289.23 108.818 289.191 108.739 289.123C108.661 289.054 108.61 288.96 108.596 288.857L87.0646 137.313C87.0567 137.256 87.0604 137.199 87.0753 137.143C87.0902 137.088 87.1162 137.036 87.1515 136.991C87.1847 136.944 87.2273 136.904 87.2767 136.874C87.3261 136.844 87.3811 136.825 87.4384 136.817L186.967 122.648C187.081 122.637 187.195 122.668 187.288 122.735C187.335 122.767 187.374 122.81 187.403 122.86C187.431 122.909 187.449 122.965 187.454 123.022L208.985 274.574C209 274.687 208.97 274.801 208.902 274.892C208.833 274.983 208.732 275.044 208.62 275.061L109.083 289.231H109.022ZM87.986 137.617L109.395 288.309L208.063 274.269L186.654 123.578L87.986 137.617Z" fill="black"/>
<path d="M120.426 78.3727L126.041 118.09C126.069 118.29 126.136 118.483 126.238 118.657C126.341 118.831 126.477 118.983 126.638 119.105C126.8 119.226 126.984 119.314 127.18 119.364C127.376 119.413 127.58 119.424 127.779 119.394L143.313 117.185C143.513 117.157 143.706 117.09 143.88 116.988C144.054 116.885 144.206 116.749 144.327 116.587C144.448 116.425 144.536 116.241 144.586 116.045C144.636 115.849 144.646 115.645 144.617 115.445L138.975 75.7284L120.426 78.3727ZM131.17 87.2973C130.523 87.3887 129.864 87.2863 129.275 87.003C128.687 86.7196 128.195 86.268 127.863 85.7053C127.531 85.1426 127.373 84.494 127.409 83.8414C127.445 83.1889 127.674 82.5617 128.066 82.0392C128.458 81.5167 128.997 81.1222 129.613 80.9057C130.229 80.6892 130.896 80.6603 131.528 80.8227C132.161 80.9852 132.731 81.3316 133.167 81.8183C133.603 82.3049 133.885 82.91 133.977 83.557C134.099 84.4253 133.872 85.3064 133.345 86.0074C132.819 86.7085 132.037 87.1723 131.17 87.2973V87.2973Z" fill="white"/>
<path d="M127.589 119.847C127.115 119.845 126.657 119.673 126.299 119.361C125.942 119.05 125.708 118.62 125.642 118.151L119.957 78.4337C119.942 78.3195 119.973 78.2041 120.043 78.1128C120.113 78.0215 120.216 77.9617 120.331 77.9465L138.906 75.337C138.962 75.3274 139.02 75.3294 139.075 75.3429C139.13 75.3563 139.182 75.381 139.228 75.4153C139.274 75.4492 139.314 75.4921 139.344 75.5414C139.373 75.5907 139.393 75.6454 139.402 75.7024L145.043 115.419C145.08 115.676 145.066 115.938 145.001 116.19C144.937 116.441 144.824 116.678 144.668 116.885C144.512 117.093 144.317 117.268 144.093 117.4C143.87 117.532 143.622 117.618 143.365 117.655L127.832 119.864L127.589 119.847ZM120.913 78.7468L126.502 118.029C126.543 118.318 126.697 118.579 126.93 118.755C127.163 118.931 127.456 119.008 127.745 118.968L143.279 116.759C143.57 116.715 143.832 116.559 144.009 116.324C144.096 116.208 144.159 116.076 144.195 115.936C144.231 115.796 144.238 115.65 144.217 115.506L138.637 76.2243L120.913 78.7468ZM130.701 87.767C129.721 87.7782 128.775 87.4083 128.062 86.7354C127.35 86.0625 126.926 85.1391 126.88 84.1597C126.835 83.1803 127.171 82.2214 127.818 81.485C128.465 80.7487 129.372 80.2924 130.349 80.2123C131.325 80.1322 132.295 80.4346 133.053 81.0556C133.811 81.6767 134.299 82.5681 134.413 83.5418C134.527 84.5156 134.259 85.4958 133.666 86.2758C133.072 87.0559 132.199 87.5749 131.231 87.7235V87.7235C131.055 87.751 130.878 87.7655 130.701 87.767V87.767ZM130.709 81.1563H130.301C129.549 81.2661 128.872 81.6689 128.416 82.2767C127.96 82.8845 127.763 83.648 127.867 84.4008C127.917 84.7736 128.042 85.1327 128.233 85.4568C128.424 85.7809 128.678 86.0636 128.979 86.2883C129.589 86.7459 130.355 86.943 131.109 86.8363V86.8363C131.819 86.7252 132.461 86.3515 132.909 85.7892C133.357 85.2269 133.578 84.5168 133.527 83.7995C133.477 83.0822 133.16 82.4099 132.638 81.9156C132.116 81.4213 131.428 81.141 130.709 81.1302V81.1563Z" fill="black"/>
<path d="M122.846 95.3906L141.426 92.7478L144.638 115.362C144.701 115.801 144.586 116.246 144.32 116.6C144.055 116.955 143.659 117.189 143.221 117.251L127.945 119.424C127.507 119.486 127.062 119.372 126.708 119.106C126.354 118.84 126.12 118.444 126.058 118.005L122.846 95.3906V95.3906Z" fill="white"/>
<path d="M127.702 119.829C127.195 119.826 126.707 119.642 126.324 119.311C125.941 118.979 125.69 118.521 125.615 118.02L122.408 95.404C122.399 95.3479 122.401 95.2905 122.414 95.2352C122.428 95.1799 122.452 95.1279 122.486 95.0822C122.52 95.0356 122.563 94.9963 122.612 94.9664C122.661 94.9365 122.716 94.9168 122.773 94.9082L141.357 92.2987C141.47 92.2837 141.584 92.3136 141.675 92.3819C141.766 92.4502 141.827 92.5515 141.844 92.664L145.06 115.28C145.101 115.554 145.086 115.834 145.018 116.103C144.95 116.371 144.829 116.624 144.662 116.846C144.496 117.067 144.287 117.254 144.048 117.394C143.809 117.534 143.544 117.626 143.27 117.663L127.997 119.838L127.702 119.829ZM123.355 95.7085L126.502 117.898C126.549 118.223 126.723 118.516 126.985 118.713C127.247 118.91 127.577 118.995 127.901 118.951L143.174 116.776C143.335 116.754 143.49 116.7 143.631 116.617C143.771 116.534 143.893 116.425 143.991 116.295C144.089 116.165 144.16 116.016 144.2 115.859C144.24 115.701 144.249 115.537 144.226 115.376L141.07 93.1946L123.355 95.7085Z" fill="black"/>
<path d="M136.471 100.51C136.377 99.8461 136.087 99.2247 135.64 98.7248C135.193 98.225 134.607 97.8691 133.958 97.7023C133.308 97.5354 132.624 97.565 131.991 97.7874C131.358 98.0098 130.806 98.415 130.403 98.9517C130.001 99.4883 129.766 100.132 129.73 100.802C129.693 101.472 129.856 102.138 130.197 102.716C130.539 103.293 131.044 103.756 131.648 104.047C132.253 104.337 132.93 104.441 133.594 104.346C134.482 104.217 135.284 103.741 135.823 103.022C136.362 102.304 136.595 101.4 136.471 100.51V100.51Z" fill="white"/>
<path d="M133.107 104.816C132.282 104.818 131.479 104.549 130.821 104.051C130.214 103.599 129.755 102.977 129.502 102.264C129.248 101.551 129.213 100.778 129.399 100.045C129.585 99.3113 129.985 98.6497 130.548 98.144C131.111 97.6384 131.811 97.3115 132.56 97.2049C133.552 97.086 134.552 97.3606 135.345 97.9701C136.137 98.5795 136.66 99.4753 136.801 100.466C136.942 101.456 136.69 102.462 136.099 103.269C135.507 104.075 134.624 104.618 133.638 104.781C133.462 104.805 133.285 104.817 133.107 104.816V104.816ZM133.107 98.0312C132.966 98.0223 132.823 98.0223 132.682 98.0312C132.102 98.1109 131.559 98.3617 131.122 98.7514C130.685 99.1412 130.374 99.6524 130.228 100.22C130.083 100.787 130.109 101.385 130.305 101.937C130.5 102.489 130.856 102.971 131.325 103.32C131.634 103.556 131.987 103.728 132.363 103.825C132.74 103.922 133.132 103.943 133.516 103.885C134.292 103.773 134.993 103.357 135.463 102.728C135.695 102.419 135.864 102.067 135.959 101.692C136.055 101.318 136.075 100.928 136.019 100.545V100.545C135.919 99.8417 135.571 99.1976 135.036 98.7298C134.502 98.2621 133.817 98.0019 133.107 97.9965V98.0312Z" fill="black"/>
<path d="M134.36 100.815C134.324 100.568 134.217 100.337 134.05 100.151C133.884 99.965 133.666 99.8328 133.425 99.7708C133.183 99.7089 132.929 99.72 132.694 99.8028C132.458 99.8855 132.253 100.036 132.104 100.236C131.954 100.435 131.867 100.675 131.853 100.924C131.84 101.173 131.9 101.421 132.027 101.635C132.154 101.85 132.342 102.022 132.567 102.13C132.792 102.238 133.044 102.276 133.29 102.241C133.621 102.194 133.92 102.017 134.12 101.749C134.321 101.482 134.407 101.146 134.36 100.815Z" fill="white"/>
<path d="M133.117 102.685C132.779 102.695 132.446 102.606 132.158 102.429C131.87 102.252 131.639 101.996 131.495 101.69C131.35 101.385 131.298 101.043 131.344 100.709C131.39 100.374 131.533 100.06 131.754 99.8045C131.976 99.5494 132.267 99.3644 132.592 99.2722C132.917 99.18 133.262 99.1845 133.584 99.2852C133.907 99.3859 134.193 99.5784 134.408 99.8392C134.623 100.1 134.757 100.418 134.794 100.754C134.852 101.197 134.737 101.646 134.473 102.006C134.339 102.186 134.171 102.337 133.979 102.45C133.786 102.564 133.573 102.638 133.351 102.667C133.274 102.682 133.195 102.688 133.117 102.685V102.685ZM133.117 100.162H132.995C132.783 100.204 132.595 100.324 132.466 100.498C132.337 100.671 132.278 100.887 132.299 101.102C132.314 101.209 132.35 101.312 132.405 101.405C132.46 101.498 132.533 101.579 132.62 101.644C132.706 101.708 132.804 101.755 132.909 101.782C133.014 101.808 133.123 101.814 133.23 101.798C133.338 101.784 133.443 101.749 133.537 101.693C133.631 101.638 133.713 101.564 133.777 101.476C133.855 101.35 133.899 101.206 133.905 101.058C133.912 100.91 133.881 100.763 133.814 100.631C133.748 100.498 133.649 100.385 133.527 100.302C133.405 100.218 133.264 100.167 133.117 100.154V100.162Z" fill="black"/>
<path d="M130.074 79.5903C129.197 79.7145 128.376 80.0963 127.716 80.6872C127.056 81.2781 126.586 82.0517 126.366 82.91C126.145 83.7684 126.184 84.6729 126.477 85.5092C126.77 86.3454 127.305 87.0759 128.013 87.608C128.722 88.1402 129.572 88.4501 130.456 88.4987C131.34 88.5472 132.219 88.3322 132.981 87.8808C133.743 87.4294 134.355 86.7619 134.738 85.9628C135.121 85.1637 135.258 84.2688 135.133 83.3915C135.051 82.8092 134.855 82.2488 134.556 81.7425C134.257 81.2361 133.861 80.7937 133.391 80.4406C132.921 80.0875 132.386 79.8306 131.817 79.6847C131.248 79.5388 130.655 79.5067 130.074 79.5903V79.5903ZM131.169 87.2971C130.522 87.3885 129.863 87.2861 129.275 87.0028C128.686 86.7194 128.195 86.2678 127.863 85.7051C127.53 85.1424 127.372 84.4938 127.409 83.8412C127.445 83.1887 127.673 82.5615 128.066 82.039C128.458 81.5165 128.996 81.122 129.612 80.9055C130.229 80.689 130.895 80.6601 131.528 80.8225C132.16 80.985 132.731 81.3314 133.166 81.8181C133.602 82.3047 133.884 82.9098 133.977 83.5568C134.098 84.4251 133.871 85.3062 133.345 86.0073C132.819 86.7083 132.036 87.1721 131.169 87.2971V87.2971Z" fill="white"/>
<path d="M130.701 88.9415C129.452 88.9506 128.246 88.4831 127.329 87.634C126.413 86.785 125.853 85.6183 125.766 84.3713C125.678 83.1244 126.069 81.8909 126.858 80.922C127.648 79.9531 128.776 79.3215 130.014 79.1558V79.1558C131.304 78.9724 132.614 79.3093 133.656 80.0923C134.697 80.8753 135.385 82.0403 135.569 83.3311C135.752 84.6218 135.415 85.9326 134.633 86.9749C133.85 88.0173 132.686 88.7059 131.396 88.8894C131.166 88.924 130.934 88.9415 130.701 88.9415V88.9415ZM130.136 80.0257C129.208 80.1564 128.354 80.6051 127.719 81.2955C127.085 81.9858 126.709 82.8749 126.656 83.8114C126.603 84.7478 126.877 85.6736 127.43 86.4309C127.983 87.1883 128.781 87.7303 129.689 87.9645C130.596 88.1988 131.557 88.1109 132.407 87.7158C133.257 87.3206 133.944 86.6427 134.35 85.7976C134.757 84.9525 134.858 83.9924 134.636 83.0811C134.415 82.1697 133.884 81.3635 133.135 80.7998C132.277 80.1545 131.199 79.876 130.136 80.0257V80.0257ZM130.701 87.776C129.721 87.7871 128.775 87.4173 128.063 86.7444C127.35 86.0714 126.926 85.148 126.881 84.1686C126.835 83.1892 127.171 82.2303 127.818 81.494C128.465 80.7576 129.372 80.3013 130.349 80.2212C131.326 80.1411 132.295 80.4435 133.053 81.0646C133.811 81.6857 134.299 82.577 134.413 83.5507C134.528 84.5245 134.26 85.5047 133.666 86.2847C133.073 87.0648 132.2 87.5838 131.231 87.7325V87.7325C131.055 87.757 130.878 87.7686 130.701 87.7673V87.776ZM130.71 81.1652C130.574 81.1565 130.437 81.1565 130.301 81.1652C129.55 81.2751 128.872 81.6778 128.416 82.2856C127.96 82.8934 127.763 83.6569 127.867 84.4097C127.918 84.7826 128.042 85.1416 128.233 85.4657C128.424 85.7898 128.678 86.0725 128.98 86.2972C129.342 86.5722 129.765 86.7569 130.213 86.8362C130.661 86.9154 131.121 86.887 131.556 86.7531C131.991 86.6192 132.387 86.3838 132.713 86.0663C133.039 85.7488 133.285 85.3582 133.43 84.9269C133.576 84.4956 133.617 84.0358 133.549 83.5856C133.482 83.1354 133.309 82.7077 133.044 82.3377C132.779 81.9676 132.43 81.666 132.026 81.4576C131.621 81.2492 131.173 81.14 130.718 81.1391L130.71 81.1652Z" fill="black"/>
<path d="M171.787 131.74L104.531 141.306L118.539 239.92L185.794 230.354L171.787 131.74Z" fill="white"/>
<path d="M118.548 240.363C118.45 240.362 118.355 240.328 118.279 240.267C118.234 240.234 118.196 240.193 118.168 240.145C118.14 240.097 118.121 240.044 118.113 239.989L104.101 141.367C104.086 141.252 104.117 141.137 104.188 141.046C104.258 140.954 104.361 140.895 104.475 140.879L171.728 131.311C171.842 131.296 171.957 131.326 172.05 131.394C172.142 131.462 172.205 131.563 172.224 131.677L186.236 230.29C186.248 230.407 186.217 230.525 186.149 230.621C186.077 230.71 185.975 230.769 185.862 230.786L118.609 240.354L118.548 240.363ZM105.023 141.68L118.931 239.432L185.332 229.986L171.424 132.216L105.023 141.68Z" fill="black"/>
<path d="M118.547 239.928C131.377 238.188 171.875 232.099 185.801 230.36C184.653 222.305 183.141 211.832 182.958 206.822C181.142 205.508 177.969 204.386 173.397 201.968C166.225 198.184 154.586 190.243 154.586 190.243L149.857 190.738V190.46L146.068 191.139L142.234 191.547L142.278 191.817L137.592 192.687C137.592 192.687 128.63 203.569 122.815 209.214C118.973 212.928 116.574 214.624 115.244 216.434C115.27 216.729 117.243 230.621 118.547 239.928Z" fill="white"/>
<path d="M118.54 240.25C118.462 240.249 118.387 240.22 118.328 240.169C118.269 240.118 118.23 240.048 118.218 239.972C116.905 230.577 114.958 216.825 114.88 216.486C114.87 216.441 114.871 216.394 114.881 216.349C114.892 216.303 114.912 216.261 114.941 216.225C116.015 214.913 117.221 213.715 118.54 212.65C119.626 211.684 120.982 210.484 122.547 208.97C128.301 203.412 137.228 192.591 137.324 192.443C137.376 192.385 137.447 192.345 137.524 192.33L141.87 191.548C141.866 191.51 141.871 191.472 141.883 191.436C141.895 191.4 141.914 191.367 141.94 191.339C141.965 191.303 141.998 191.274 142.035 191.251C142.072 191.229 142.114 191.214 142.157 191.208L145.99 190.808L149.754 190.13C149.843 190.119 149.932 190.141 150.006 190.191C150.069 190.234 150.112 190.299 150.128 190.373L154.544 189.904C154.621 189.901 154.697 189.922 154.761 189.964C154.883 190.043 166.47 197.941 173.537 201.672C175.527 202.725 177.222 203.517 178.752 204.212C180.287 204.863 181.764 205.643 183.168 206.544C183.21 206.571 183.244 206.609 183.268 206.653C183.292 206.697 183.306 206.746 183.307 206.796C183.472 211.554 184.863 221.296 185.976 229.125L186.141 230.308C186.148 230.35 186.147 230.394 186.137 230.436C186.126 230.478 186.107 230.517 186.08 230.551C186.054 230.586 186.022 230.616 185.985 230.639C185.947 230.661 185.906 230.676 185.863 230.682C177.083 231.76 158.151 234.518 141.444 236.953C131.735 238.371 123.355 239.563 118.609 240.25H118.54ZM115.541 216.468C115.793 218.06 117.67 231.334 118.818 239.554C123.616 238.893 131.856 237.693 141.331 236.31C157.847 233.9 176.51 231.177 185.437 230.073L185.315 229.203C184.211 221.444 182.838 211.806 182.646 206.97C181.305 206.141 179.904 205.411 178.457 204.786C176.962 204.091 175.258 203.29 173.241 202.238C166.496 198.672 155.656 191.33 154.5 190.547L149.893 191.034C149.82 191.04 149.746 191.021 149.684 190.982C149.621 190.943 149.573 190.885 149.546 190.817L146.069 191.434L142.592 191.808C142.59 191.883 142.562 191.955 142.513 192.01C142.464 192.066 142.396 192.103 142.322 192.113L137.759 192.983C136.889 194.053 128.51 204.125 122.981 209.423C121.408 210.954 120.043 212.163 118.948 213.128C117.718 214.141 116.578 215.258 115.541 216.468V216.468Z" fill="black"/>
<path d="M148.275 208.509L150.796 224.619L154.829 224.045L150.935 207.892C150.935 207.892 148.64 207.553 148.275 208.509Z" fill="white"/>
<path d="M150.797 224.95C150.72 224.949 150.645 224.92 150.586 224.869C150.527 224.818 150.488 224.748 150.476 224.671L147.955 208.562C147.942 208.511 147.942 208.457 147.955 208.405C148.346 207.222 150.702 207.536 150.971 207.536C151.035 207.546 151.094 207.576 151.141 207.621C151.187 207.666 151.219 207.724 151.232 207.788L155.126 223.923C155.145 223.964 155.155 224.009 155.155 224.054C155.155 224.099 155.145 224.143 155.126 224.184C155.102 224.223 155.068 224.256 155.029 224.28C154.99 224.304 154.946 224.319 154.9 224.324L150.867 224.898L150.797 224.95ZM148.642 208.553L151.093 224.254L154.457 223.775L150.702 208.197C149.885 208.118 148.842 208.171 148.642 208.553Z" fill="black"/>
<path d="M150.997 212.902C150.978 212.776 150.923 212.659 150.838 212.564C150.753 212.47 150.642 212.403 150.519 212.371C150.396 212.34 150.266 212.346 150.146 212.388C150.026 212.43 149.922 212.507 149.845 212.609C149.769 212.711 149.725 212.833 149.718 212.96C149.711 213.087 149.741 213.213 149.806 213.322C149.871 213.432 149.966 213.52 150.08 213.575C150.195 213.63 150.323 213.65 150.449 213.633C150.533 213.621 150.614 213.593 150.687 213.55C150.76 213.507 150.824 213.449 150.875 213.381C150.926 213.314 150.963 213.236 150.983 213.154C151.004 213.072 151.009 212.986 150.997 212.902V212.902Z" fill="white"/>
<path d="M150.38 213.981C150.169 213.981 149.964 213.91 149.797 213.781C149.694 213.705 149.608 213.61 149.542 213.5C149.477 213.391 149.434 213.269 149.416 213.143C149.398 213.016 149.406 212.887 149.438 212.764C149.471 212.641 149.528 212.525 149.606 212.424C149.72 212.267 149.879 212.148 150.061 212.082C150.244 212.017 150.442 212.008 150.63 212.057C150.817 212.106 150.986 212.21 151.113 212.356C151.241 212.502 151.322 212.683 151.345 212.876C151.365 213.001 151.359 213.129 151.328 213.252C151.296 213.374 151.24 213.489 151.162 213.589C151.008 213.794 150.781 213.931 150.528 213.972L150.38 213.981ZM150.38 212.693C150.338 212.697 150.298 212.71 150.262 212.731C150.226 212.752 150.195 212.781 150.171 212.815C150.145 212.848 150.126 212.886 150.116 212.926C150.105 212.967 150.103 213.009 150.11 213.05C150.114 213.092 150.126 213.132 150.147 213.168C150.168 213.205 150.197 213.235 150.232 213.259C150.3 213.308 150.384 213.33 150.467 213.32C150.508 213.316 150.548 213.303 150.584 213.282C150.621 213.261 150.652 213.232 150.675 213.198C150.725 213.131 150.747 213.046 150.736 212.963C150.732 212.921 150.719 212.88 150.699 212.842C150.679 212.805 150.651 212.772 150.618 212.745C150.585 212.718 150.547 212.699 150.506 212.687C150.465 212.675 150.422 212.671 150.38 212.676V212.693Z" fill="black"/>
<path d="M152.735 220.566C152.716 220.44 152.661 220.322 152.576 220.228C152.491 220.133 152.38 220.066 152.257 220.035C152.134 220.004 152.004 220.01 151.884 220.052C151.765 220.094 151.66 220.171 151.584 220.273C151.508 220.374 151.463 220.496 151.456 220.623C151.449 220.75 151.48 220.876 151.544 220.986C151.609 221.095 151.704 221.183 151.819 221.239C151.933 221.294 152.061 221.314 152.187 221.296C152.271 221.285 152.352 221.256 152.425 221.213C152.498 221.17 152.562 221.113 152.613 221.045C152.664 220.977 152.701 220.9 152.722 220.818C152.743 220.735 152.747 220.65 152.735 220.566Z" fill="white"/>
<path d="M152.119 221.627C151.886 221.629 151.661 221.546 151.485 221.394C151.309 221.242 151.195 221.031 151.163 220.8C151.142 220.674 151.147 220.545 151.179 220.42C151.21 220.296 151.267 220.18 151.345 220.078C151.499 219.874 151.727 219.736 151.98 219.696C152.171 219.665 152.368 219.693 152.543 219.775C152.719 219.858 152.865 219.991 152.964 220.159C153.062 220.326 153.108 220.519 153.096 220.712C153.083 220.906 153.012 221.091 152.893 221.244C152.817 221.346 152.722 221.431 152.613 221.495C152.504 221.56 152.383 221.601 152.258 221.618L152.119 221.627ZM152.119 220.339C152.078 220.345 152.038 220.358 152.002 220.379C151.966 220.4 151.935 220.428 151.909 220.461C151.884 220.494 151.866 220.532 151.856 220.573C151.846 220.613 151.843 220.655 151.85 220.696C151.862 220.778 151.907 220.853 151.973 220.903C152.04 220.953 152.123 220.976 152.206 220.966C152.247 220.962 152.288 220.949 152.324 220.928C152.36 220.907 152.391 220.878 152.415 220.844C152.441 220.811 152.46 220.774 152.47 220.733C152.481 220.693 152.482 220.65 152.475 220.609V220.609C152.462 220.527 152.418 220.453 152.352 220.402C152.285 220.352 152.202 220.329 152.119 220.339V220.339Z" fill="black"/>
<path d="M138.211 187.755C138.211 187.755 135.603 188.808 134.882 193.261C134.16 197.715 134.803 208.823 134.482 211.38C134.16 213.937 134.899 214.294 136.594 213.372C138.289 212.45 139.862 209.023 142.548 208.631C144.914 208.441 147.293 208.488 149.65 208.771C149.65 208.771 153.562 205.7 156.248 205.291C158.934 204.882 162.993 209.362 164.114 209.197C165.236 209.032 162.524 199.629 160.064 193.54C157.604 187.451 153.379 185.111 148.676 185.781C143.974 186.45 138.211 187.755 138.211 187.755Z" fill="white"/>
<path d="M135.289 214.163C135.073 214.169 134.861 214.108 134.681 213.989C134.159 213.633 134.011 212.815 134.194 211.38C134.316 210.371 134.29 207.988 134.255 205.213C134.203 201.081 134.142 195.94 134.594 193.244C135.35 188.66 138.01 187.529 138.123 187.485H138.175C138.236 187.485 143.999 186.198 148.667 185.537C153.839 184.798 158.011 187.625 160.402 193.496C162.34 198.271 165.408 207.901 164.591 209.318C164.552 209.392 164.496 209.456 164.428 209.506C164.36 209.556 164.283 209.59 164.2 209.605C163.653 209.684 162.914 209.162 161.54 208.17C159.976 207.031 157.82 205.474 156.325 205.691C153.717 206.056 149.927 209.049 149.884 209.075C149.817 209.127 149.733 209.152 149.649 209.144C147.318 208.868 144.965 208.825 142.626 209.014C141.078 209.231 139.879 210.597 138.818 211.806C138.247 212.546 137.56 213.19 136.784 213.711C136.328 213.976 135.816 214.131 135.289 214.163V214.163ZM138.349 188.068C138.106 188.181 135.898 189.329 135.237 193.287C134.794 195.897 134.863 201.037 134.907 205.143C134.907 207.935 134.976 210.362 134.837 211.397C134.655 212.911 134.889 213.32 135.046 213.424C135.202 213.528 135.576 213.546 136.471 213.059C137.176 212.577 137.804 211.99 138.332 211.319C139.462 210.032 140.748 208.57 142.539 208.309C144.887 208.11 147.249 208.151 149.588 208.431C150.249 207.927 153.708 205.352 156.238 204.952C157.976 204.7 160.176 206.274 161.923 207.561C162.562 208.1 163.277 208.543 164.044 208.875C164.47 207.909 162.392 200.046 159.793 193.661C157.533 188.094 153.622 185.415 148.754 186.102C144.295 186.763 138.818 187.964 138.349 188.068Z" fill="black"/>
<path d="M119.86 219.2C118.009 215.947 116.383 216.39 115.357 217.46C115.853 220.887 117.435 232.056 118.539 239.945H118.791L126.797 238.806L126.944 238.736C124.902 232.012 121.903 222.792 119.86 219.2Z" fill="white"/>
<path d="M118.54 240.233C118.462 240.232 118.387 240.203 118.329 240.152C118.27 240.101 118.231 240.031 118.219 239.954C117.175 232.491 115.559 221.044 115.037 217.469C115.029 217.419 115.033 217.368 115.048 217.32C115.063 217.272 115.089 217.227 115.124 217.191C115.381 216.889 115.705 216.653 116.071 216.502C116.437 216.35 116.833 216.288 117.228 216.321C118.227 216.46 119.209 217.365 120.14 219.009C122.174 222.601 125.138 231.63 127.259 238.571C127.284 238.651 127.277 238.737 127.24 238.812C127.202 238.887 127.137 238.944 127.059 238.972L126.928 239.041H126.85L118.836 240.181H118.566L118.54 240.233ZM115.706 217.547C116.237 221.244 117.793 232.204 118.818 239.554C120.818 239.285 123.46 238.902 126.537 238.458C124.434 231.595 121.548 222.801 119.583 219.322C118.757 217.869 117.94 217.069 117.149 216.965C116.88 216.943 116.61 216.984 116.359 217.085C116.109 217.187 115.885 217.345 115.706 217.547V217.547Z" fill="black"/>
<path d="M178.196 231.299C180.706 230.785 183.242 230.405 185.793 230.16C184.794 223.106 183.516 214.285 183.099 208.866C177.527 211.206 177.501 223.14 178.196 231.299Z" fill="white"/>
<path d="M178.196 231.621C178.127 231.622 178.06 231.601 178.005 231.56C177.968 231.532 177.938 231.497 177.915 231.456C177.893 231.416 177.879 231.371 177.874 231.325C177.118 222.236 177.388 210.91 182.977 208.562C183.022 208.537 183.073 208.523 183.125 208.523C183.176 208.523 183.227 208.537 183.272 208.562C183.316 208.589 183.353 208.626 183.381 208.669C183.408 208.713 183.424 208.763 183.429 208.814C183.82 213.955 185.011 222.323 185.967 229.038L186.115 230.09C186.121 230.134 186.118 230.178 186.106 230.219C186.094 230.261 186.073 230.3 186.045 230.334C186.02 230.368 185.987 230.397 185.95 230.418C185.912 230.439 185.871 230.452 185.828 230.456C183.289 230.701 180.765 231.079 178.266 231.586L178.196 231.621ZM182.812 209.362C177.822 212.076 177.927 223.784 178.465 230.899C180.63 230.464 182.907 230.125 185.419 229.873L185.324 229.16C184.376 222.627 183.229 214.555 182.794 209.362H182.812Z" fill="black"/>
<path d="M155.83 165.026C155.83 165.026 156.178 157.772 159.629 162.774C163.08 167.775 157.021 175.508 156.152 174.255C155.283 173.003 155.83 165.026 155.83 165.026Z" fill="white"/>
<path d="M156.387 174.716C156.282 174.72 156.178 174.697 156.083 174.65C155.989 174.602 155.909 174.533 155.848 174.447C154.979 173.142 155.448 165.861 155.509 165.009C155.509 164.6 155.735 161.155 157.248 160.729C158.03 160.512 158.908 161.112 159.925 162.591C161.924 165.487 160.794 168.941 159.925 170.741C158.925 172.864 157.378 174.647 156.448 174.716H156.387ZM157.543 161.338H157.404C156.587 161.573 156.213 163.948 156.161 165.026C155.935 168.071 155.805 173.203 156.387 174.047C156.535 174.047 157.334 173.603 158.317 172.176C160.055 169.697 161.333 165.792 159.36 162.93C158.638 161.904 157.995 161.338 157.543 161.338V161.338Z" fill="black"/>
<path d="M156.246 169.21H156.185C156.143 169.203 156.102 169.187 156.066 169.164C156.029 169.14 155.998 169.11 155.974 169.074C155.95 169.038 155.933 168.998 155.924 168.956C155.916 168.913 155.916 168.87 155.925 168.827C156.064 168.079 156.837 164.313 157.846 163.704C157.981 163.609 158.137 163.548 158.3 163.527C158.464 163.506 158.63 163.525 158.785 163.582C159.001 163.705 159.19 163.871 159.339 164.07C159.489 164.269 159.596 164.497 159.654 164.739C159.672 164.823 159.657 164.911 159.612 164.984C159.566 165.057 159.494 165.11 159.41 165.13C159.369 165.142 159.326 165.145 159.284 165.14C159.241 165.134 159.201 165.12 159.164 165.098C159.127 165.076 159.096 165.046 159.071 165.012C159.046 164.977 159.028 164.937 159.019 164.896C158.967 164.704 158.802 164.287 158.567 164.191C158.567 164.191 158.428 164.13 158.22 164.261C157.663 164.6 156.933 167.209 156.603 168.949C156.584 169.028 156.538 169.098 156.473 169.145C156.407 169.193 156.327 169.216 156.246 169.21V169.21Z" fill="black"/>
<path d="M158.421 169.193C158.352 169.191 158.285 169.168 158.229 169.126C158.174 169.084 158.134 169.025 158.113 168.959C158.093 168.892 158.094 168.821 158.117 168.756C158.139 168.69 158.182 168.633 158.238 168.593C158.413 168.46 158.543 168.278 158.611 168.07C158.68 167.861 158.683 167.637 158.621 167.427C158.611 167.388 158.592 167.352 158.567 167.32C158.541 167.289 158.509 167.263 158.473 167.245C157.923 167.165 157.362 167.256 156.865 167.505C156.826 167.523 156.784 167.532 156.742 167.533C156.7 167.534 156.657 167.527 156.618 167.512C156.578 167.496 156.542 167.473 156.511 167.444C156.481 167.414 156.456 167.379 156.439 167.34C156.421 167.302 156.41 167.26 156.408 167.217C156.407 167.174 156.414 167.131 156.429 167.091C156.445 167.051 156.468 167.015 156.498 166.984C156.529 166.954 156.565 166.93 156.604 166.914C157.267 166.587 158.021 166.495 158.743 166.653C158.865 166.709 158.973 166.791 159.06 166.893C159.147 166.995 159.211 167.115 159.247 167.245C159.347 167.586 159.34 167.951 159.226 168.288C159.113 168.626 158.898 168.92 158.612 169.132C158.555 169.169 158.489 169.19 158.421 169.193Z" fill="black"/>
<path d="M129.091 168.836C129.091 168.836 126.736 161.956 124.815 167.723C122.894 173.49 130.899 179.222 131.386 177.778C131.873 176.334 129.091 168.836 129.091 168.836Z" fill="white"/>
<path d="M131.004 178.317C130.805 178.314 130.608 178.279 130.421 178.213C128.3 177.5 122.833 172.62 124.502 167.609C125.067 165.913 125.745 165.087 126.553 165.087C128.1 165.087 129.256 168.323 129.387 168.714C129.682 169.514 132.194 176.369 131.69 177.874C131.642 178.014 131.548 178.134 131.424 178.214C131.299 178.295 131.151 178.331 131.004 178.317ZM126.562 165.739C126.075 165.739 125.571 166.479 125.119 167.818C124.023 171.115 126.362 174.507 128.7 176.412C130.039 177.508 130.943 177.743 131.09 177.656C131.403 176.691 129.839 171.793 128.778 168.958C128.326 167.609 127.335 165.748 126.562 165.748V165.739Z" fill="black"/>
<path d="M129.771 172.976C129.71 172.976 129.65 172.958 129.598 172.926C129.546 172.894 129.504 172.848 129.475 172.794C128.667 171.219 127.241 168.914 126.607 168.74C126.372 168.679 126.285 168.74 126.259 168.74C126.059 168.888 126.016 169.349 126.024 169.541C126.027 169.627 125.995 169.711 125.937 169.774C125.878 169.837 125.798 169.875 125.711 169.88C125.669 169.882 125.626 169.876 125.585 169.861C125.545 169.847 125.507 169.824 125.476 169.795C125.444 169.766 125.419 169.731 125.401 169.691C125.383 169.652 125.374 169.61 125.372 169.567C125.353 169.322 125.386 169.077 125.468 168.846C125.551 168.615 125.681 168.404 125.851 168.227C125.982 168.129 126.136 168.065 126.297 168.039C126.459 168.013 126.625 168.027 126.781 168.079C127.919 168.384 129.71 171.785 130.058 172.428C130.095 172.506 130.102 172.595 130.076 172.678C130.05 172.76 129.994 172.83 129.919 172.872C129.876 172.915 129.826 172.951 129.771 172.976V172.976Z" fill="black"/>
<path d="M127.667 173.568H127.563C127.228 173.445 126.94 173.222 126.736 172.93C126.532 172.637 126.423 172.289 126.424 171.933C126.423 171.799 126.451 171.666 126.506 171.544C126.562 171.423 126.644 171.315 126.745 171.228C127.394 170.871 128.145 170.745 128.875 170.871C128.955 170.89 129.026 170.938 129.072 171.005C129.119 171.073 129.139 171.156 129.128 171.237C129.117 171.319 129.077 171.393 129.014 171.446C128.951 171.499 128.87 171.527 128.788 171.524C128.243 171.413 127.676 171.48 127.171 171.715C127.141 171.742 127.117 171.776 127.1 171.813C127.084 171.851 127.075 171.892 127.076 171.933C127.078 172.152 127.145 172.366 127.268 172.548C127.392 172.729 127.567 172.869 127.771 172.95C127.812 172.963 127.85 172.984 127.882 173.011C127.915 173.039 127.942 173.073 127.961 173.111C127.981 173.149 127.992 173.191 127.995 173.233C127.999 173.276 127.993 173.319 127.98 173.359C127.955 173.422 127.912 173.475 127.856 173.512C127.8 173.55 127.734 173.569 127.667 173.568V173.568Z" fill="black"/>
<path d="M136.236 183.241C136.236 183.241 140 196.41 140.73 198.837C141.6 201.69 146.676 208.51 149.275 207.457C151.874 206.405 152.352 198.559 152.7 196.219C153.048 193.879 152.361 180.944 152.361 180.944L136.236 183.241Z" fill="white"/>
<path d="M148.686 207.892C148.228 207.878 147.78 207.762 147.373 207.553C144.618 206.239 141.149 201.325 140.419 198.933C139.689 196.541 135.96 183.458 135.916 183.328C135.882 183.241 135.882 183.145 135.916 183.058C135.941 183.019 135.974 182.987 136.013 182.962C136.053 182.938 136.097 182.923 136.142 182.919L152.276 180.622C152.32 180.614 152.366 180.616 152.41 180.628C152.453 180.64 152.494 180.662 152.528 180.692C152.563 180.72 152.591 180.756 152.611 180.797C152.63 180.837 152.64 180.882 152.641 180.927C152.641 181.458 153.336 193.922 152.98 196.262C152.928 196.619 152.875 197.132 152.806 197.654C152.284 202.073 151.545 206.866 149.329 207.753C149.125 207.838 148.907 207.886 148.686 207.892V207.892ZM136.647 183.536C137.264 185.668 140.393 196.584 141.045 198.767C141.697 200.951 145.087 205.726 147.651 206.987C147.873 207.123 148.121 207.21 148.378 207.243C148.636 207.276 148.898 207.254 149.146 207.179C151.172 206.309 151.867 200.446 152.206 197.61C152.276 197.045 152.328 196.558 152.38 196.201C152.693 194.14 152.163 183.449 152.058 181.353L136.647 183.536Z" fill="black"/>
<path d="M127.137 152.979C127.137 152.979 127.893 165.574 130.527 174.464C133.161 183.354 141.036 190.495 145.165 190.243C149.294 189.991 156.987 179.292 156.517 173.525C156.048 167.757 157.056 153.188 154.222 147.76C151.389 142.332 147.46 141.166 139.341 141.975C131.222 142.784 125.65 147.351 127.137 152.979Z" fill="white"/>
<path d="M144.921 188.321C140.47 188.321 132.752 183.188 130.222 174.56C127.692 165.931 126.858 153.744 126.815 153.031C126.538 152.029 126.49 150.977 126.674 149.953C126.857 148.93 127.268 147.96 127.875 147.116C129.926 144.167 134.073 142.176 139.262 141.654C147.868 140.784 151.701 142.297 154.474 147.603C156.534 151.561 156.586 160.059 156.63 166.879C156.63 169.558 156.63 171.863 156.795 173.498C157.108 177.256 154.065 182.91 150.901 186.546C149.511 187.451 147.338 188.321 145.165 188.321H144.921ZM143.426 142.071C142.067 142.079 140.709 142.158 139.358 142.306C134.438 142.793 130.352 144.733 128.449 147.525C127.894 148.296 127.519 149.181 127.352 150.116C127.185 151.051 127.23 152.012 127.484 152.927C127.487 152.947 127.487 152.967 127.484 152.988C127.484 153.118 128.275 165.653 130.865 174.403C133.473 183.293 141.256 187.451 144.921 187.694C146.268 187.616 148.207 187.451 150.432 186.163C153.509 182.623 156.464 177.16 156.169 173.585C156.03 171.933 156.021 169.61 156.004 166.922C155.96 160.164 155.908 151.761 153.918 147.943C151.718 143.741 148.946 142.071 143.426 142.071Z" fill="black"/>
<path d="M128.327 167.879C128.327 167.879 129.709 167.392 129.388 165.105C129.066 162.817 128.579 161.443 129.388 160.895C130.196 160.347 131.422 159.877 131.369 157.415C131.317 154.954 128.188 153.501 128.849 150.935C129.283 149.584 130.167 148.423 131.354 147.646C132.54 146.869 133.957 146.522 135.368 146.664C138.315 146.968 139.106 151.509 143.808 153.901C148.511 156.293 154.048 155.354 154.048 155.354C153.794 155.753 153.679 156.225 153.72 156.697C153.761 157.168 153.956 157.613 154.274 157.963C154.87 158.662 155.245 159.521 155.352 160.434C155.352 160.434 155.752 165.322 156.612 165.2C157.473 165.078 157.047 153.936 156.804 152.222C156.56 150.509 156.873 143.48 151.588 141.175C146.303 138.87 138.697 139.514 134.116 141.045C129.535 142.576 127.162 145.09 126.128 149.308C125.094 153.527 128.327 167.879 128.327 167.879Z" fill="black"/>
<path d="M128.327 168.227C128.276 168.239 128.222 168.239 128.171 168.227C128.13 168.204 128.095 168.172 128.066 168.135C128.038 168.098 128.017 168.055 128.005 168.01C127.875 167.418 124.798 153.501 125.806 149.256C126.815 145.011 129.361 142.297 134.003 140.758C138.906 139.122 146.564 138.653 151.71 140.906C156.447 142.976 156.838 148.578 157.029 151.265C157.029 151.657 157.029 151.979 157.108 152.205C157.238 153.075 157.395 156.337 157.429 159.329C157.481 165.418 156.995 165.505 156.638 165.548C156.559 165.561 156.479 165.555 156.402 165.533C156.325 165.51 156.255 165.471 156.195 165.418C155.421 164.809 155.091 161.486 155.013 160.486C154.896 159.64 154.543 158.844 153.996 158.189C153.727 157.861 153.541 157.474 153.452 157.06C153.363 156.645 153.373 156.215 153.483 155.806C150.122 156.197 146.718 155.655 143.643 154.24C141.641 153.139 139.921 151.587 138.619 149.708C137.515 148.291 136.637 147.177 135.316 147.038C133.983 146.908 132.645 147.236 131.523 147.968C130.402 148.7 129.562 149.792 129.144 151.065C128.822 152.327 129.535 153.309 130.283 154.353C131.057 155.219 131.542 156.304 131.674 157.459C131.734 159.825 130.639 160.529 129.839 161.034L129.553 161.216C129.127 161.521 129.24 162.286 129.492 163.748C129.561 164.165 129.64 164.617 129.709 165.122C130.066 167.644 128.501 168.227 128.44 168.245C128.402 168.247 128.363 168.241 128.327 168.227ZM143.174 139.984C140.134 139.97 137.111 140.428 134.212 141.341C129.744 142.828 127.423 145.229 126.441 149.378C125.572 153.057 128.014 164.896 128.544 167.375C128.807 167.082 128.993 166.728 129.084 166.345C129.175 165.962 129.169 165.563 129.066 165.183C128.996 164.687 128.918 164.235 128.849 163.826C128.57 162.243 128.397 161.216 129.188 160.651L129.483 160.451C130.231 159.981 131.074 159.442 131.022 157.441C130.888 156.42 130.445 155.464 129.753 154.701C128.953 153.579 128.118 152.422 128.51 150.874C129.214 148.108 132.36 146.038 135.377 146.351C136.976 146.516 137.984 147.795 139.132 149.265C140.375 151.068 142.021 152.557 143.939 153.614C148.493 155.928 153.926 155.049 153.978 155.04C154.042 155.027 154.108 155.033 154.168 155.06C154.227 155.087 154.277 155.132 154.309 155.188C154.347 155.242 154.367 155.305 154.367 155.371C154.367 155.437 154.347 155.5 154.309 155.554C154.103 155.896 154.015 156.295 154.055 156.692C154.096 157.089 154.264 157.461 154.535 157.754C155.175 158.506 155.572 159.434 155.673 160.416C155.735 161.902 156.028 163.37 156.543 164.765C157.029 163.278 156.751 154.066 156.499 152.248C156.499 152.013 156.438 151.674 156.412 151.265C156.23 148.708 155.865 143.376 151.484 141.454C148.841 140.409 146.014 139.909 143.174 139.984V139.984Z" fill="black"/>
<path d="M135.751 173.098C134.737 173.099 133.736 172.859 132.833 172.397C131.93 171.935 131.149 171.264 130.556 170.441C129.963 169.618 129.574 168.665 129.421 167.661C129.268 166.658 129.356 165.632 129.677 164.669C129.998 163.706 130.544 162.834 131.268 162.123C131.993 161.413 132.876 160.885 133.845 160.583C134.813 160.282 135.84 160.215 136.839 160.389C137.839 160.562 138.783 160.971 139.593 161.582C140.268 162.084 140.836 162.716 141.264 163.44C141.693 164.164 141.973 164.967 142.088 165.801C142.219 166.709 142.153 167.634 141.894 168.515C141.636 169.395 141.191 170.209 140.589 170.902C139.988 171.594 139.245 172.149 138.41 172.528C137.575 172.907 136.668 173.102 135.751 173.098V173.098ZM135.751 160.921C135.475 160.919 135.199 160.94 134.925 160.982C133.607 161.168 132.394 161.806 131.493 162.788C130.592 163.769 130.059 165.033 129.985 166.363C129.911 167.694 130.3 169.008 131.087 170.084C131.873 171.159 133.008 171.928 134.298 172.26C135.587 172.592 136.952 172.466 138.159 171.904C139.366 171.341 140.341 170.377 140.918 169.176C141.494 167.975 141.637 166.611 141.321 165.317C141.005 164.022 140.25 162.877 139.185 162.078C138.195 161.349 136.997 160.962 135.768 160.973L135.751 160.921Z" fill="black"/>
<path d="M149.58 171.159C148.353 171.158 147.153 170.804 146.121 170.14C145.09 169.476 144.271 168.529 143.762 167.412C143.253 166.295 143.076 165.056 143.251 163.841C143.427 162.626 143.947 161.487 144.751 160.56C145.555 159.633 146.609 158.957 147.786 158.612C148.963 158.267 150.215 158.269 151.391 158.615C152.568 158.962 153.62 159.64 154.422 160.569C155.225 161.497 155.743 162.637 155.917 163.852C156.049 164.761 155.984 165.687 155.726 166.569C155.468 167.45 155.023 168.265 154.422 168.959C153.82 169.652 153.076 170.208 152.241 170.588C151.405 170.967 150.498 171.162 149.58 171.159V171.159ZM149.58 158.981C149.307 158.981 149.034 158.998 148.763 159.033C147.276 159.234 145.926 160.005 144.996 161.183C144.067 162.361 143.63 163.854 143.778 165.347C143.927 166.841 144.649 168.218 145.792 169.19C146.936 170.161 148.411 170.651 149.908 170.555C151.405 170.46 152.806 169.786 153.817 168.677C154.827 167.568 155.369 166.11 155.326 164.61C155.283 163.109 154.661 161.684 153.589 160.634C152.517 159.584 151.08 158.991 149.58 158.981V158.981Z" fill="black"/>
<path d="M137.194 166.861C137.333 167.844 137.037 168.706 136.524 168.775C136.012 168.845 135.481 168.114 135.342 167.122C135.203 166.131 135.507 165.287 136.02 165.209C136.533 165.13 137.055 165.879 137.194 166.861Z" fill="black"/>
<path d="M148.885 165.2C149.024 166.183 148.729 167.044 148.216 167.114C147.703 167.183 147.173 166.444 147.034 165.461C146.895 164.478 147.199 163.617 147.703 163.548C148.207 163.478 148.746 164.217 148.885 165.2Z" fill="black"/>
<path d="M143.034 161.886C143.032 164.925 143.221 167.961 143.599 170.976C144.12 173.664 144.651 175.325 142.938 175.578C141.226 175.83 141.252 172.907 141.252 172.907" fill="white"/>
<path d="M137.992 177.587C137.992 177.587 142.956 180.814 149.11 176.012Z" fill="white"/>
<path d="M142.182 178.961C140.663 178.982 139.164 178.604 137.836 177.865C137.8 177.842 137.768 177.812 137.743 177.777C137.719 177.741 137.701 177.701 137.693 177.659C137.684 177.617 137.683 177.573 137.691 177.531C137.7 177.489 137.716 177.449 137.74 177.413C137.787 177.341 137.859 177.291 137.942 177.273C138.025 177.256 138.112 177.271 138.184 177.317C138.384 177.439 143.043 180.344 148.928 175.751C148.961 175.725 149 175.706 149.041 175.694C149.082 175.683 149.125 175.68 149.167 175.685C149.21 175.69 149.251 175.704 149.288 175.725C149.325 175.746 149.358 175.774 149.384 175.808C149.41 175.842 149.43 175.88 149.441 175.921C149.452 175.963 149.455 176.006 149.45 176.048C149.445 176.09 149.431 176.131 149.41 176.169C149.389 176.206 149.361 176.238 149.327 176.265C147.325 177.957 144.802 178.909 142.182 178.961Z" fill="black"/>
<path d="M141.914 165.574C141.836 165.562 141.766 165.522 141.715 165.462C141.665 165.402 141.637 165.327 141.637 165.248C141.637 165.17 141.665 165.094 141.715 165.034C141.766 164.974 141.836 164.935 141.914 164.922L143.652 164.678C143.695 164.671 143.739 164.673 143.781 164.683C143.824 164.693 143.864 164.711 143.899 164.737C143.934 164.763 143.963 164.796 143.985 164.834C144.007 164.872 144.021 164.914 144.026 164.957C144.036 165.042 144.012 165.128 143.961 165.196C143.909 165.264 143.832 165.309 143.748 165.322L142.009 165.566L141.914 165.574Z" fill="black"/>
<path d="M128.1 167.679C128.023 167.678 127.948 167.65 127.889 167.599C127.83 167.548 127.791 167.478 127.779 167.401C127.773 167.359 127.775 167.316 127.786 167.274C127.796 167.233 127.815 167.194 127.841 167.16C127.867 167.126 127.899 167.097 127.937 167.076C127.974 167.055 128.014 167.041 128.057 167.036L129.343 166.853C129.385 166.846 129.428 166.847 129.469 166.856C129.511 166.866 129.55 166.884 129.584 166.909C129.618 166.935 129.647 166.966 129.668 167.003C129.689 167.04 129.703 167.08 129.708 167.123C129.721 167.209 129.699 167.297 129.646 167.367C129.594 167.437 129.517 167.484 129.43 167.497L128.152 167.679H128.1Z" fill="black"/>
<path d="M155.596 163.765C155.511 163.771 155.427 163.742 155.362 163.686C155.298 163.63 155.258 163.55 155.253 163.465C155.247 163.379 155.275 163.295 155.332 163.231C155.388 163.166 155.467 163.127 155.553 163.121L156.839 162.938C156.881 162.931 156.924 162.932 156.965 162.942C157.006 162.952 157.045 162.97 157.079 162.995C157.114 163.02 157.142 163.052 157.164 163.089C157.185 163.125 157.199 163.166 157.204 163.208C157.217 163.295 157.194 163.382 157.142 163.452C157.09 163.523 157.012 163.569 156.926 163.582L155.648 163.765H155.596Z" fill="black"/>
<path d="M131.586 162.051C131.441 162.05 131.298 162.014 131.169 161.947C131.069 161.891 130.981 161.817 130.91 161.728C130.839 161.638 130.786 161.536 130.754 161.426C130.723 161.316 130.713 161.201 130.726 161.087C130.739 160.974 130.774 160.864 130.83 160.764C131.699 159.198 134.376 156.771 138.427 158.755C138.635 158.856 138.793 159.036 138.868 159.254C138.943 159.473 138.928 159.712 138.827 159.92C138.725 160.128 138.546 160.287 138.327 160.362C138.109 160.437 137.87 160.422 137.662 160.32C134.072 158.581 132.447 161.477 132.351 161.599C132.276 161.736 132.165 161.851 132.031 161.93C131.896 162.01 131.742 162.052 131.586 162.051Z" fill="black"/>
<path d="M145.278 160.103C145.127 160.103 144.978 160.064 144.847 159.99C144.715 159.915 144.606 159.808 144.528 159.678C144.451 159.548 144.409 159.4 144.406 159.249C144.404 159.098 144.44 158.948 144.513 158.816C145.382 157.259 148.068 154.823 152.11 156.806C152.311 156.911 152.464 157.089 152.535 157.304C152.606 157.519 152.591 157.753 152.493 157.957C152.394 158.161 152.22 158.319 152.008 158.396C151.795 158.474 151.56 158.465 151.354 158.372C147.764 156.632 146.138 159.529 146.034 159.651C145.96 159.787 145.85 159.9 145.717 159.98C145.585 160.059 145.433 160.102 145.278 160.103Z" fill="black"/>
<path d="M203.701 240.508L104.174 254.665L109.023 288.802L208.551 274.646L203.701 240.508Z" fill="black"/>
<path d="M169.337 250.596L139.381 254.835L139.624 256.557L169.58 252.318L169.337 250.596Z" fill="white"/>
<path d="M194.761 265.962L119.561 276.645L119.805 278.367L195.005 267.684L194.761 265.962Z" fill="white"/>
<path d="M174.423 254.505L135.902 259.978L136.147 261.7L174.668 256.228L174.423 254.505Z" fill="white"/>
<path d="M134.142 263.23L133.746 263.286L134.711 270.114L135.107 270.058L134.142 263.23Z" fill="black"/>
<path d="M172.984 257.739L172.588 257.795L173.553 264.624L173.949 264.568L172.984 257.739Z" fill="black"/>
<path d="M183.294 256.181L182.502 256.293L183.472 263.123L184.264 263.01L183.294 256.181Z" fill="black"/>
<path d="M130.708 85.7664C130.546 85.7646 130.386 85.7412 130.23 85.6968C129.788 85.5711 129.414 85.2755 129.189 84.8745C128.964 84.4736 128.907 83.9999 129.03 83.557C129.126 83.209 131.49 75.0325 141.104 61.6805C141.235 61.489 141.402 61.3255 141.597 61.1997C141.792 61.0739 142.009 60.9883 142.238 60.948C142.466 60.9076 142.7 60.9133 142.926 60.9647C143.152 61.016 143.365 61.1121 143.553 61.2472C143.741 61.3823 143.901 61.5537 144.022 61.7513C144.143 61.9489 144.224 62.1688 144.259 62.398C144.294 62.6272 144.283 62.861 144.226 63.0859C144.17 63.3107 144.069 63.522 143.929 63.7072C134.724 76.4939 132.403 84.4181 132.377 84.4964C132.275 84.861 132.057 85.1823 131.755 85.4115C131.454 85.6407 131.086 85.7653 130.708 85.7664Z" fill="black"/>
<path d="M141.879 175.299L142 175.234L141.779 175.354L141.865 175.511L141.87 175.52L141.873 175.525L141.874 175.528L141.876 175.53L141.961 175.687L141.876 175.524L141.875 175.523L141.874 175.521L141.873 175.52L141.869 175.513L141.785 175.351C141.785 175.35 141.785 175.35 141.785 175.35L141.875 175.301L141.879 175.299ZM141.969 175.683L141.967 175.684L141.877 175.519L141.877 175.519L141.876 175.517L141.875 175.515L141.874 175.513L141.785 175.35L141.874 175.511L141.876 175.514L141.877 175.516L141.878 175.518L141.878 175.518L141.969 175.683Z" fill="#1A1A1A" stroke="black"/>
</g>
<defs>
<clipPath id="clip0_1_2095">
<rect width="306" height="330" fill="white"/>
</clipPath>
</defs>
</svg>
