<svg width="18" height="14" fill="none" xmlns="http://www.w3.org/2000/svg"><path d="M10.667.333H7.333c-3.142 0-4.714 0-5.69.977-.703.703-.9 1.714-.955 3.398h16.624c-.055-1.684-.252-2.695-.955-3.398-.976-.977-2.548-.977-5.69-.977zM7.333 13.667h3.334c3.142 0 4.714 0 5.69-.977.976-.976.976-2.547.976-5.69l-.001-1.042H.668L.667 7c0 3.143 0 4.714.976 5.69.976.977 2.548.977 5.69.977z" fill="#5565EC"/><path fill-rule="evenodd" clip-rule="evenodd" d="M3.375 10.333c0-.345.28-.625.625-.625h3.333a.625.625 0 110 1.25H4a.625.625 0 01-.625-.625zm5.417 0c0-.345.28-.625.625-.625h1.25a.625.625 0 110 1.25h-1.25a.625.625 0 01-.625-.625z" fill="#fff"/></svg>