<svg width="18" height="18" fill="none" xmlns="http://www.w3.org/2000/svg"><path fill-rule="evenodd" clip-rule="evenodd" d="M17.333 9c0 3.928 0 5.893-1.22 7.113-1.22 1.22-3.185 1.22-7.113 1.22-3.928 0-5.893 0-7.113-1.22C.667 14.893.667 12.928.667 9c0-3.928 0-5.893 1.22-7.113C3.107.667 5.072.667 9 .667c3.928 0 5.893 0 7.113 1.22 1.22 1.22 1.22 3.185 1.22 7.113zm-3.787-4.247a.626.626 0 01.118.876l-5.714 7.5a.625.625 0 01-.968.032l-2.62-3a.625.625 0 11.942-.822l2.115 2.423 5.25-6.89a.625.625 0 01.877-.12z" fill="#5565EC"/></svg>