<svg width="26" height="26" fill="none" xmlns="http://www.w3.org/2000/svg"><path stroke="#fff" stroke-width="1.5" d="M2.197 1.136l22 22"/><path d="M8.583 15.778a2.722 2.722 0 002.723 2.722h2.527a2.917 2.917 0 100-5.833H11.5a2.917 2.917 0 010-5.834h2.528a2.722 2.722 0 012.722 2.723m-4.083-4.473v1.75m0 11.667v1.75m11.666-7.583c0 6.443-5.223 11.666-11.666 11.666C6.223 24.333 1 19.11 1 12.667 1 6.223 6.223 1 12.667 1c6.443 0 11.666 5.223 11.666 11.667z" stroke="#fff" stroke-width="1.5" stroke-linecap="round" stroke-linejoin="round"/></svg>