<svg width="34" height="32" fill="none" xmlns="http://www.w3.org/2000/svg"><path d="M15.625 6.708v7.542c0 .389.132.715.396.979s.59.396.979.396.715-.132.979-.396a1.33 1.33 0 00.396-.979V6.708a1.33 1.33 0 00-.396-.979A1.33 1.33 0 0017 5.333a1.33 1.33 0 00-.979.396 1.33 1.33 0 00-.396.979zM17 21.792c.417 0 .764-.139 1.042-.417.277-.278.416-.625.416-1.042 0-.417-.139-.764-.416-1.041A1.414 1.414 0 0017 18.875c-.417 0-.764.139-1.042.417a1.412 1.412 0 00-.416 1.041c0 .417.139.764.416 1.042.278.278.625.417 1.042.417zM.333 30.333V3.125c0-.75.278-1.403.834-1.958C1.722.611 2.375.333 3.125.333h27.75c.75 0 1.403.278 1.958.834.556.555.834 1.208.834 1.958v21.083c0 .75-.278 1.403-.834 1.959-.555.555-1.208.833-1.958.833H7l-4.292 4.292c-.444.444-.95.548-1.52.312-.57-.236-.855-.66-.855-1.271zm2.792-3.375l2.708-2.75h25.042V3.125H3.125v23.833z" fill="#D63329"/></svg>