<svg width="29" height="29" fill="none" xmlns="http://www.w3.org/2000/svg"><path fill-rule="evenodd" clip-rule="evenodd" d="M14.333 0a1 1 0 011 1v2.667a1 1 0 11-2 0V1a1 1 0 011-1zm8.708 5.626a1 1 0 010 1.414l-.458.458a1 1 0 11-1.414-1.414l.457-.458a1 1 0 011.415 0zm-17.415 0a1 1 0 011.414 0l.458.458a1 1 0 11-1.414 1.414l-.458-.458a1 1 0 010-1.414zM0 14.333a1 1 0 011-1h2.667a1 1 0 110 2H1a1 1 0 01-1-1zm24 0a1 1 0 011-1h2.667a1 1 0 010 2H25a1 1 0 01-1-1zM7.498 21.17a1 1 0 010 1.414l-.457.457a1 1 0 01-1.415-1.414l.458-.457a1 1 0 011.414 0zm13.67 0a1 1 0 011.415 0l.457.457a1 1 0 01-1.414 1.415l-.457-.458a1 1 0 010-1.414zM14.334 24a1 1 0 011 1v2.667a1 1 0 01-2 0V25a1 1 0 011-1z" fill="#5565EC"/><path d="M12.435 9.939c.845-1.515 1.267-2.272 1.898-2.272.632 0 1.054.757 1.898 2.272l.219.392c.24.43.36.646.547.787.187.143.42.195.886.3l.424.097c1.64.37 2.46.556 2.655 1.183.195.628-.364 1.281-1.482 2.589l-.29.338c-.317.371-.476.557-.547.787-.072.23-.048.477 0 .973l.044.451c.17 1.744.254 2.616-.257 3.004-.51.388-1.278.034-2.814-.673l-.397-.183c-.436-.2-.654-.3-.886-.3-.23 0-.449.1-.885.3l-.398.183c-1.535.707-2.303 1.06-2.813.673-.51-.388-.426-1.26-.257-3.004l.043-.451c.048-.496.072-.743.001-.973-.071-.23-.23-.416-.548-.787l-.29-.338c-1.117-1.308-1.676-1.961-1.481-2.589.195-.627 1.015-.812 2.655-1.183l.424-.096c.466-.106.699-.159.886-.3.187-.143.307-.358.547-.788l.218-.392z" fill="#5565EC"/></svg>