<svg width="26" height="26" fill="none" xmlns="http://www.w3.org/2000/svg"><path d="M16.5 1.867a11.662 11.662 0 00-3.5-.534C6.557 1.333 1.333 6.557 1.333 13S6.557 24.667 13 24.667 24.667 19.443 24.667 13c0-2.001-.504-3.885-1.392-5.53m-4.442-1.762h.006M11.25 24.536v-2.57c0-.14.05-.274.14-.38l2.9-3.383a.583.583 0 00-.153-.886l-3.332-1.905a.583.583 0 01-.217-.217l-2.173-3.807a.583.583 0 00-.558-.291l-6.449.574M23.5 6c0 2.577-2.333 4.667-4.667 7-2.333-2.333-4.666-4.423-4.666-7A4.667 4.667 0 1123.5 6zm-4.375-.292a.292.292 0 11-.583 0 .292.292 0 01.583 0z" stroke="#fff" stroke-width="1.5" stroke-linecap="round" stroke-linejoin="round"/></svg>