<?xml version="1.0" encoding="utf-8"?><svg viewBox="0 0 34 34" xmlns="http://www.w3.org/2000/svg" xmlns:xlink="http://www.w3.org/1999/xlink"><style>:root>svg{display:none}:root>svg:target{display:block}</style><svg fill="none" viewBox="0 0 18 14" id="card" xmlns="http://www.w3.org/2000/svg"><path d="M10.667.333H7.333c-3.142 0-4.714 0-5.69.977-.703.703-.9 1.714-.955 3.398h16.624c-.055-1.684-.252-2.695-.955-3.398-.976-.977-2.548-.977-5.69-.977zM7.333 13.667h3.334c3.142 0 4.714 0 5.69-.977.976-.976.976-2.547.976-5.69l-.001-1.042H.668L.667 7c0 3.143 0 4.714.976 5.69.976.977 2.548.977 5.69.977z" fill="#5565EC"/><path fill-rule="evenodd" clip-rule="evenodd" d="M3.375 10.333c0-.345.28-.625.625-.625h3.333a.625.625 0 110 1.25H4a.625.625 0 01-.625-.625zM8.792 10.333c0-.345.28-.625.625-.625h1.25a.625.625 0 110 1.25h-1.25a.625.625 0 01-.625-.625z" fill="#fff"/></svg><svg fill="none" viewBox="0 0 11 9" id="check" xmlns="http://www.w3.org/2000/svg"><path d="M1 4.657l2.828 2.828 5.657-5.657" stroke="#fff" stroke-width="2" stroke-linecap="round"/></svg><svg fill="none" viewBox="0 0 22 22" id="check-fill" xmlns="http://www.w3.org/2000/svg"><path d="M11 .5C5.202.5.5 5.202.5 11S5.202 21.5 11 21.5 21.5 16.798 21.5 11 16.798.5 11 .5zm4.535 7.071L10.6 14.415a.745.745 0 01-1.212 0l-2.922-4.05a.188.188 0 01.152-.298h1.1c.238 0 .466.115.606.312l1.67 2.316 3.684-5.11a.75.75 0 01.607-.312h1.099c.152 0 .241.174.152.298z" fill="#5565EC"/></svg><svg fill="none" viewBox="0 0 18 18" id="check-fill-rect" xmlns="http://www.w3.org/2000/svg"><path fill-rule="evenodd" clip-rule="evenodd" d="M17.333 9c0 3.928 0 5.893-1.22 7.113-1.22 1.22-3.185 1.22-7.113 1.22-3.928 0-5.893 0-7.113-1.22C.667 14.893.667 12.928.667 9c0-3.928 0-5.893 1.22-7.113C3.107.667 5.072.667 9 .667c3.928 0 5.893 0 7.113 1.22 1.22 1.22 1.22 3.185 1.22 7.113zm-3.787-4.247c.274.209.327.601.118.876l-5.714 7.5a.625.625 0 01-.968.032l-2.62-3a.625.625 0 11.942-.822l2.115 2.423 5.25-6.89a.625.625 0 01.877-.12z" fill="#5565EC"/></svg><svg fill="none" viewBox="0 0 15 15" id="close" xmlns="http://www.w3.org/2000/svg"><path d="M13.774 13.774L1 1M13.774 1L1 13.774" stroke="#4D4D4D" stroke-width="2" stroke-linecap="round" stroke-linejoin="round"/></svg><svg fill="none" viewBox="0 0 26 26" id="dollar-circle" xmlns="http://www.w3.org/2000/svg"><path stroke="#fff" stroke-width="1.5" d="M2.197 1.136l22 22"/><path d="M8.583 15.778a2.722 2.722 0 002.723 2.722h2.527a2.917 2.917 0 100-5.833H11.5a2.917 2.917 0 010-5.834h2.528a2.722 2.722 0 012.722 2.723m-4.083-4.473v1.75m0 11.667v1.75m11.666-7.583c0 6.443-5.223 11.666-11.666 11.666C6.223 24.333 1 19.11 1 12.667 1 6.223 6.223 1 12.667 1c6.443 0 11.666 5.223 11.666 11.667z" stroke="#fff" stroke-width="1.5" stroke-linecap="round" stroke-linejoin="round"/></svg><svg fill="none" viewBox="0 0 13 8" id="down" xmlns="http://www.w3.org/2000/svg"><path d="M11.5 1.5l-5 5-5-5" stroke="#474A57" stroke-width="1.5" stroke-linecap="round" stroke-linejoin="round"/></svg><svg fill="none" viewBox="0 0 34 32" id="error" xmlns="http://www.w3.org/2000/svg"><path d="M15.625 6.708v7.542c0 .389.132.715.396.979s.59.396.979.396.715-.132.979-.396a1.33 1.33 0 00.396-.979V6.708a1.33 1.33 0 00-.396-.979A1.33 1.33 0 0017 5.333a1.33 1.33 0 00-.979.396 1.33 1.33 0 00-.396.979zM17 21.792c.417 0 .764-.139 1.042-.417.277-.278.416-.625.416-1.042 0-.417-.139-.764-.416-1.041A1.414 1.414 0 0017 18.875c-.417 0-.764.139-1.042.417a1.412 1.412 0 00-.416 1.041c0 .417.139.764.416 1.042.278.278.625.417 1.042.417zM.333 30.333V3.125c0-.75.278-1.403.834-1.958C1.722.611 2.375.333 3.125.333h27.75c.75 0 1.403.278 1.958.834.556.555.834 1.208.834 1.958v21.083c0 .75-.278 1.403-.834 1.959-.555.555-1.208.833-1.958.833H7l-4.292 4.292c-.444.444-.95.548-1.52.312-.57-.236-.855-.66-.855-1.271zm2.792-3.375l2.708-2.75h25.042V3.125H3.125v23.833z" fill="#D63329"/></svg><svg fill="none" viewBox="0 0 29 29" id="exp" xmlns="http://www.w3.org/2000/svg"><path fill-rule="evenodd" clip-rule="evenodd" d="M14.333 0a1 1 0 011 1v2.667a1 1 0 11-2 0V1a1 1 0 011-1zm8.708 5.626a1 1 0 010 1.414l-.458.458a1 1 0 11-1.414-1.414l.457-.458a1 1 0 011.415 0zm-17.415 0a1 1 0 011.414 0l.458.458a1 1 0 11-1.414 1.414l-.458-.458a1 1 0 010-1.414zM0 14.333a1 1 0 011-1h2.667a1 1 0 110 2H1a1 1 0 01-1-1zm24 0a1 1 0 011-1h2.667a1 1 0 010 2H25a1 1 0 01-1-1zM7.498 21.17a1 1 0 010 1.414l-.457.457a1 1 0 01-1.415-1.414l.458-.457a1 1 0 011.414 0zm13.67 0a1 1 0 011.415 0l.457.457a1 1 0 01-1.414 1.415l-.457-.458a1 1 0 010-1.414zM14.334 24a1 1 0 011 1v2.667a1 1 0 01-2 0V25a1 1 0 011-1z" fill="#5565EC"/><path d="M12.435 9.939c.845-1.515 1.267-2.272 1.898-2.272.632 0 1.054.757 1.898 2.272l.219.392c.24.43.36.646.547.787.187.143.42.195.886.3l.424.097c1.64.37 2.46.556 2.655 1.183.195.628-.364 1.281-1.482 2.589l-.29.338c-.317.371-.476.557-.547.787-.072.23-.048.477 0 .973l.044.451c.17 1.744.254 2.616-.257 3.004-.51.388-1.278.034-2.814-.673l-.397-.183c-.436-.2-.654-.3-.886-.3-.23 0-.449.1-.885.3l-.398.183c-1.535.707-2.303 1.06-2.813.673-.51-.388-.426-1.26-.257-3.004l.043-.451c.048-.496.072-.743.001-.973-.071-.23-.23-.416-.548-.787l-.29-.338c-1.117-1.308-1.676-1.961-1.481-2.589.195-.627 1.015-.812 2.655-1.183l.424-.096c.466-.106.699-.159.886-.3.187-.143.307-.358.547-.788l.218-.392z" fill="#5565EC"/></svg><svg fill="none" viewBox="0 0 26 26" id="globe" xmlns="http://www.w3.org/2000/svg"><path d="M16.5 1.867a11.662 11.662 0 00-3.5-.534C6.557 1.333 1.333 6.557 1.333 13S6.557 24.667 13 24.667 24.667 19.443 24.667 13c0-2.001-.504-3.885-1.392-5.53m-4.442-1.762h.006M11.25 24.536v-2.57c0-.14.05-.274.14-.38l2.9-3.383a.583.583 0 00-.153-.886l-3.332-1.905a.583.583 0 01-.217-.217l-2.173-3.807a.583.583 0 00-.558-.291l-6.449.574M23.5 6c0 2.577-2.333 4.667-4.667 7-2.333-2.333-4.666-4.423-4.666-7A4.667 4.667 0 1123.5 6zm-4.375-.292a.292.292 0 11-.583 0 .292.292 0 01.583 0z" stroke="#fff" stroke-width="1.5" stroke-linecap="round" stroke-linejoin="round"/></svg><svg fill="none" viewBox="0 0 25 26" id="like" xmlns="http://www.w3.org/2000/svg"><path d="M7.167 24.667V11.833m-5.833 2.334v8.166a2.333 2.333 0 002.333 2.334H19.33a3.5 3.5 0 003.46-2.968l1.256-8.167a3.5 3.5 0 00-3.46-4.032H16.5a1.167 1.167 0 01-1.166-1.167V4.21a2.877 2.877 0 00-2.877-2.877.959.959 0 00-.877.57L7.475 11.14a1.167 1.167 0 01-1.066.693H3.667a2.333 2.333 0 00-2.333 2.334z" stroke="#fff" stroke-width="1.5" stroke-linecap="round" stroke-linejoin="round"/></svg><svg fill="none" viewBox="0 0 14 18" id="location" xmlns="http://www.w3.org/2000/svg"><path fill-rule="evenodd" clip-rule="evenodd" d="M7 .667C3.318.667.333 4.002.333 7.75c0 3.719 2.128 7.76 5.448 9.312a2.875 2.875 0 002.438 0c3.32-1.552 5.448-5.594 5.448-9.312C13.667 4.002 10.682.667 7 .667zM7 9a1.667 1.667 0 100-3.333A1.667 1.667 0 007 9z" fill="#5565EC"/></svg><svg fill="none" viewBox="0 0 27 28" id="school" xmlns="http://www.w3.org/2000/svg"><path fill-rule="evenodd" clip-rule="evenodd" d="M0 13.333V8c0-3.771 0-5.657 1.172-6.828C2.343 0 4.229 0 8 0h10.667c3.77 0 5.656 0 6.828 1.172C26.667 2.343 26.667 4.229 26.667 8v5.333c0 3.772 0 5.657-1.172 6.829-.862.862-2.11 1.09-4.211 1.15a4.271 4.271 0 00-1.022-2.755.28.28 0 01-.067-.16 4.28 4.28 0 00-3.926-3.926.28.28 0 01-.16-.066 4.28 4.28 0 00-5.552 0 .28.28 0 01-.16.066 4.28 4.28 0 00-3.926 3.926.28.28 0 01-.066.16 4.272 4.272 0 00-1.023 2.755c-2.1-.06-3.349-.289-4.21-1.15C0 18.99 0 17.105 0 13.333zm8.333-8a1 1 0 011-1h8a1 1 0 110 2h-8a1 1 0 01-1-1zM6.667 9a1 1 0 100 2H20a1 1 0 100-2H6.667z" fill="#5565EC"/><path fill-rule="evenodd" clip-rule="evenodd" d="M14.812 15.927a2.28 2.28 0 00-2.958 0c-.365.311-.82.5-1.298.538a2.28 2.28 0 00-2.092 2.091 2.28 2.28 0 01-.537 1.298 2.28 2.28 0 000 2.958c.311.365.5.82.537 1.298a2.28 2.28 0 002.092 2.092 2.28 2.28 0 011.298.537 2.28 2.28 0 002.958 0c.366-.311.82-.5 1.298-.537a2.28 2.28 0 002.092-2.092 2.28 2.28 0 01.537-1.298 2.28 2.28 0 000-2.958 2.28 2.28 0 01-.537-1.298 2.28 2.28 0 00-2.092-2.091 2.28 2.28 0 01-1.298-.538zm1.204 4.804a1 1 0 00-1.365-1.462l-2.175 2.03-.46-.43a1 1 0 00-1.365 1.462l1.143 1.067a1 1 0 001.364 0l2.858-2.667z" fill="#5565EC"/></svg><svg fill="none" viewBox="0 0 34 34" id="success" xmlns="http://www.w3.org/2000/svg"><path d="M14.583 20.542l-3.916-3.959a1.444 1.444 0 00-1-.375c-.39 0-.737.139-1.042.417a1.505 1.505 0 00-.417 1.042c0 .389.139.722.417 1l5 4.958c.25.278.57.417.958.417.39 0 .709-.139.959-.417l9.833-9.792c.278-.277.41-.61.396-1a1.442 1.442 0 00-.438-1 1.388 1.388 0 00-1.021-.416c-.403 0-.743.139-1.02.416l-8.709 8.709zM17 33.667c-2.333 0-4.514-.43-6.542-1.292-2.027-.861-3.791-2.042-5.291-3.542-1.5-1.5-2.68-3.264-3.542-5.291C.764 21.514.333 19.333.333 17s.43-4.514 1.292-6.542c.861-2.027 2.042-3.791 3.542-5.291 1.5-1.5 3.264-2.68 5.291-3.542C12.486.764 14.667.333 17 .333s4.514.43 6.542 1.292c2.027.861 3.791 2.042 5.291 3.542 1.5 1.5 2.68 3.264 3.542 5.291.861 2.028 1.292 4.209 1.292 6.542s-.43 4.514-1.292 6.542c-.861 2.027-2.042 3.791-3.542 5.291-1.5 1.5-3.264 2.68-5.291 3.542-2.028.861-4.209 1.292-6.542 1.292zm0-2.792c3.917 0 7.208-1.333 9.875-4s4-5.958 4-9.875-1.333-7.208-4-9.875-5.958-4-9.875-4-7.208 1.333-9.875 4-4 5.958-4 9.875 1.333 7.208 4 9.875 5.958 4 9.875 4z" fill="#5565EC"/></svg><svg fill="none" viewBox="0 0 22 27" id="user" xmlns="http://www.w3.org/2000/svg"><path d="M21.333 20.667c0 3.313 0 6-10.666 6C0 26.667 0 23.98 0 20.667c0-3.314 4.776-6 10.667-6 5.89 0 10.666 2.686 10.666 6z" fill="#5565EC"/><circle cx="10.667" cy="5.333" r="5.333" fill="#5565EC"/></svg></svg>