<svg width="27" height="28" fill="none" xmlns="http://www.w3.org/2000/svg"><path fill-rule="evenodd" clip-rule="evenodd" d="M0 13.333V8c0-3.771 0-5.657 1.172-6.828C2.343 0 4.229 0 8 0h10.667c3.77 0 5.656 0 6.828 1.172C26.667 2.343 26.667 4.229 26.667 8v5.333c0 3.772 0 5.657-1.172 6.829-.862.862-2.11 1.09-4.211 1.15a4.271 4.271 0 00-1.022-2.755.28.28 0 01-.067-.16 4.28 4.28 0 00-3.926-3.926.28.28 0 01-.16-.066 4.28 4.28 0 00-5.552 0 .28.28 0 01-.16.066 4.28 4.28 0 00-3.926 3.926.28.28 0 01-.066.16 4.272 4.272 0 00-1.023 2.755c-2.1-.06-3.349-.289-4.21-1.15C0 18.99 0 17.105 0 13.333zm8.333-8a1 1 0 011-1h8a1 1 0 110 2h-8a1 1 0 01-1-1zM6.667 9a1 1 0 100 2H20a1 1 0 100-2H6.667z" fill="#5565EC"/><path fill-rule="evenodd" clip-rule="evenodd" d="M14.812 15.927a2.28 2.28 0 00-2.958 0c-.365.311-.82.5-1.298.538a2.28 2.28 0 00-2.092 2.091 2.28 2.28 0 01-.537 1.298 2.28 2.28 0 000 2.958c.311.365.5.82.537 1.298a2.28 2.28 0 002.092 2.092 2.28 2.28 0 011.298.537 2.28 2.28 0 002.958 0c.366-.311.82-.5 1.298-.537a2.28 2.28 0 002.092-2.092 2.28 2.28 0 01.537-1.298 2.28 2.28 0 000-2.958 2.28 2.28 0 01-.537-1.298 2.28 2.28 0 00-2.092-2.091 2.28 2.28 0 01-1.298-.538zm1.204 4.804a1 1 0 00-1.365-1.462l-2.175 2.03-.46-.43a1 1 0 00-1.365 1.462l1.143 1.067a1 1 0 001.364 0l2.858-2.667z" fill="#5565EC"/></svg>