<svg width="34" height="34" fill="none" xmlns="http://www.w3.org/2000/svg"><path d="M14.583 20.542l-3.916-3.959a1.444 1.444 0 00-1-.375c-.39 0-.737.139-1.042.417a1.505 1.505 0 00-.417 1.042c0 .389.139.722.417 1l5 4.958c.25.278.57.417.958.417.39 0 .709-.139.959-.417l9.833-9.792c.278-.277.41-.61.396-1a1.442 1.442 0 00-.438-1 1.388 1.388 0 00-1.021-.416c-.403 0-.743.139-1.02.416l-8.709 8.709zM17 33.667c-2.333 0-4.514-.43-6.542-1.292-2.027-.861-3.791-2.042-5.291-3.542-1.5-1.5-2.68-3.264-3.542-5.291C.764 21.514.333 19.333.333 17s.43-4.514 1.292-6.542c.861-2.027 2.042-3.791 3.542-5.291 1.5-1.5 3.264-2.68 5.291-3.542C12.486.764 14.667.333 17 .333s4.514.43 6.542 1.292c2.027.861 3.791 2.042 5.291 3.542 1.5 1.5 2.68 3.264 3.542 5.291.861 2.028 1.292 4.209 1.292 6.542s-.43 4.514-1.292 6.542c-.861 2.027-2.042 3.791-3.542 5.291-1.5 1.5-3.264 2.68-5.291 3.542-2.028.861-4.209 1.292-6.542 1.292zm0-2.792c3.917 0 7.208-1.333 9.875-4s4-5.958 4-9.875-1.333-7.208-4-9.875-5.958-4-9.875-4-7.208 1.333-9.875 4-4 5.958-4 9.875 1.333 7.208 4 9.875 5.958 4 9.875 4z" fill="#5565EC"/></svg>